<?xml version="1.0" encoding="UTF-8"?>
<!DOCTYPE svg PUBLIC "-//W3C//DTD SVG 1.1//EN" "http://www.w3.org/Graphics/SVG/1.1/DTD/svg11.dtd">
<svg xmlns="http://www.w3.org/2000/svg" version="1.1" width="512px" height="512px" style="shape-rendering:geometricPrecision; text-rendering:geometricPrecision; image-rendering:optimizeQuality; fill-rule:evenodd; clip-rule:evenodd" xmlns:xlink="http://www.w3.org/1999/xlink">
<g><path style="opacity:0.012" fill="#ffa900" d="M 302.5,157.5 C 309.321,156.345 316.321,156.179 323.5,157C 316.508,157.5 309.508,157.666 302.5,157.5 Z"/></g>
<g><path style="opacity:0.004" fill="#ffb4f6" d="M 299.5,158.5 C 301.337,158.639 301.67,159.306 300.5,160.5C 299.702,160.043 299.369,159.376 299.5,158.5 Z"/></g>
<g><path style="opacity:0.907" fill="#ff9f00" d="M 338.5,161.5 C 339.209,162.404 340.209,162.737 341.5,162.5C 343.509,164.065 345.843,165.065 348.5,165.5C 348.842,166.338 349.508,166.672 350.5,166.5C 351.899,167.89 353.566,168.89 355.5,169.5C 355.5,170.167 355.833,170.5 356.5,170.5C 357.29,171.401 358.29,172.068 359.5,172.5C 359.5,173.167 359.833,173.5 360.5,173.5C 360.5,174.167 360.833,174.5 361.5,174.5C 361.5,175.167 361.833,175.5 362.5,175.5C 362.5,176.167 362.833,176.5 363.5,176.5C 363.5,177.167 363.833,177.5 364.5,177.5C 364.5,178.167 364.833,178.5 365.5,178.5C 366.604,180.389 367.937,182.055 369.5,183.5C 369.703,185.044 370.37,186.378 371.5,187.5C 364.509,187.215 357.509,187.548 350.5,188.5C 350.737,187.209 350.404,186.209 349.5,185.5C 349.672,184.508 349.338,183.842 348.5,183.5C 348.5,182.833 348.167,182.5 347.5,182.5C 347.573,180.973 346.906,179.973 345.5,179.5C 345.5,178.833 345.167,178.5 344.5,178.5C 344.167,177.5 343.5,176.833 342.5,176.5C 342.5,175.833 342.167,175.5 341.5,175.5C 341.5,174.833 341.167,174.5 340.5,174.5C 340.027,173.094 339.027,172.427 337.5,172.5C 337.5,171.833 337.167,171.5 336.5,171.5C 335.101,170.11 333.434,169.11 331.5,168.5C 330.486,167.326 329.153,166.66 327.5,166.5C 326.791,165.596 325.791,165.263 324.5,165.5C 323.791,164.596 322.791,164.263 321.5,164.5C 319.162,162.96 316.495,162.294 313.5,162.5C 299.324,160.097 299.324,158.764 313.5,158.5C 321.963,158.522 330.296,159.522 338.5,161.5 Z"/></g>
<g><path style="opacity:0.02" fill="#ffa6ff" d="M 341.5,162.5 C 340.791,161.596 339.791,161.263 338.5,161.5C 336.438,160.224 334.104,159.39 331.5,159C 336.071,158.741 340.404,159.741 344.5,162C 343.552,162.483 342.552,162.649 341.5,162.5 Z"/></g>
<g><path style="opacity:0.012" fill="#ffbf00" d="M 305.5,162.5 C 304.448,162.649 303.448,162.483 302.5,162C 303.749,161.26 304.749,161.427 305.5,162.5 Z"/></g>
<g><path style="opacity:0.012" fill="#ffacfd" d="M 305.5,162.5 C 308.167,162.5 310.833,162.5 313.5,162.5C 315.905,163.768 318.572,164.435 321.5,164.5C 322.209,165.404 323.209,165.737 324.5,165.5C 325.209,166.404 326.209,166.737 327.5,166.5C 327.083,167.124 326.416,167.457 325.5,167.5C 318.78,165.487 312.113,163.82 305.5,162.5 Z"/></g>
<g><path style="opacity:0.016" fill="#ff96fe" d="M 348.5,165.5 C 349.849,164.203 351.182,164.37 352.5,166C 351.906,166.464 351.239,166.631 350.5,166.5C 350.158,165.662 349.492,165.328 348.5,165.5 Z"/></g>
<g><path style="opacity:0.016" fill="#ff82fe" d="M 331.5,168.5 C 332.368,170.892 331.701,171.059 329.5,169C 330.094,168.536 330.761,168.369 331.5,168.5 Z"/></g>
<g><path style="opacity:0.012" fill="#ffb2ff" d="M 355.5,169.5 C 356.497,168.287 357.497,168.454 358.5,170C 357.906,170.464 357.239,170.631 356.5,170.5C 355.833,170.5 355.5,170.167 355.5,169.5 Z"/></g>
<g><path style="opacity:0.004" fill="#ffcefe" d="M 336.5,171.5 C 337.167,171.5 337.5,171.833 337.5,172.5C 336.503,173.713 335.503,173.546 334.5,172C 335.094,171.536 335.761,171.369 336.5,171.5 Z"/></g>
<g><path style="opacity:0.008" fill="#ff96fd" d="M 359.5,172.5 C 359.897,171.475 360.563,171.308 361.5,172C 363,173.5 364.5,175 366,176.5C 366.692,177.437 366.525,178.103 365.5,178.5C 364.833,178.5 364.5,178.167 364.5,177.5C 363.833,177.5 363.5,177.167 363.5,176.5C 362.833,176.5 362.5,176.167 362.5,175.5C 361.833,175.5 361.5,175.167 361.5,174.5C 360.833,174.5 360.5,174.167 360.5,173.5C 359.833,173.5 359.5,173.167 359.5,172.5 Z"/></g>
<g><path style="opacity:0.027" fill="#ffa3fe" d="M 340.5,174.5 C 341.167,174.5 341.5,174.833 341.5,175.5C 342.167,175.5 342.5,175.833 342.5,176.5C 340.93,177.559 339.597,177.059 338.5,175C 339.094,174.536 339.761,174.369 340.5,174.5 Z"/></g>
<g><path style="opacity:0.012" fill="#ffb6ff" d="M 344.5,178.5 C 345.167,178.5 345.5,178.833 345.5,179.5C 345.253,181.975 344.587,181.975 343.5,179.5C 343.624,178.893 343.957,178.56 344.5,178.5 Z"/></g>
<g><path style="opacity:0.012" fill="#ffbb00" d="M 369.5,183.5 C 369.747,181.025 370.413,181.025 371.5,183.5C 371.03,184.463 370.363,184.463 369.5,183.5 Z"/></g>
<g><path style="opacity:0.027" fill="#ff88fe" d="M 347.5,182.5 C 348.167,182.5 348.5,182.833 348.5,183.5C 348.5,184.167 348.5,184.833 348.5,185.5C 346.618,184.779 346.285,183.779 347.5,182.5 Z"/></g>
<g><path style="opacity:0.02" fill="#ff9e00" d="M 348.5,185.5 C 348.833,185.5 349.167,185.5 349.5,185.5C 349.167,188.167 348.833,188.167 348.5,185.5 Z"/></g>
<g><path style="opacity:0.004" fill="#ffc1f7" d="M 372.5,186.5 C 373.525,186.897 373.692,187.563 373,188.5C 372.536,187.906 372.369,187.239 372.5,186.5 Z"/></g>
<g><path style="opacity:0.012" fill="#ffab00" d="M 350.5,190.5 C 353.482,189.835 356.648,189.502 360,189.5C 363.684,189.37 367.184,189.87 370.5,191C 363.919,190.581 357.252,190.415 350.5,190.5 Z"/></g>
<g><path style="opacity:0.024" fill="#0127ae" d="M 98.5,195.5 C 97.4324,194.566 96.099,194.232 94.5,194.5C 79.8333,193.167 65.1667,193.167 50.5,194.5C 48.6214,194.607 48.2881,194.107 49.5,193C 64.8333,192.333 80.1667,192.333 95.5,193C 97.6079,193.36 99.6079,194.027 101.5,195C 100.552,195.483 99.552,195.649 98.5,195.5 Z"/></g>
<g><path style="opacity:0.024" fill="#0426ac" d="M 181.5,194.5 C 179.359,193.837 177.025,193.503 174.5,193.5C 170.553,193.363 166.886,194.03 163.5,195.5C 159.107,195.543 158.774,195.043 162.5,194C 170.5,192 178.5,192 186.5,194C 184.866,194.494 183.199,194.66 181.5,194.5 Z"/></g>
<g><path style="opacity:0.024" fill="#0727b5" d="M 371.5,195.5 C 370.432,194.566 369.099,194.232 367.5,194.5C 362.833,193.167 358.167,193.167 353.5,194.5C 351.801,194.66 350.134,194.494 348.5,194C 357.294,191.759 365.961,192.092 374.5,195C 373.552,195.483 372.552,195.649 371.5,195.5 Z"/></g>
<g><path style="opacity:0.024" fill="#0227b4" d="M 461.5,195.5 C 460.081,194.549 458.415,194.216 456.5,194.5C 452.167,193.167 447.833,193.167 443.5,194.5C 441.801,194.66 440.134,194.494 438.5,194C 447.589,191.85 456.589,192.184 465.5,195C 464.207,195.49 462.873,195.657 461.5,195.5 Z"/></g>
<g><path style="opacity:0.016" fill="#003fbf" d="M 305.5,193.5 C 306.833,194.167 306.833,194.167 305.5,193.5 Z"/></g>
<g><path style="opacity:0.98" fill="#0022b1" d="M 50.5,194.5 C 65.1667,194.5 79.8333,194.5 94.5,194.5C 95.5676,195.434 96.901,195.768 98.5,195.5C 100.649,196.736 102.982,197.736 105.5,198.5C 105.5,199.167 105.833,199.5 106.5,199.5C 106.5,200.167 106.833,200.5 107.5,200.5C 108.167,201.833 109.167,202.833 110.5,203.5C 110.5,204.167 110.833,204.5 111.5,204.5C 111.932,205.71 112.599,206.71 113.5,207.5C 113.328,208.492 113.662,209.158 114.5,209.5C 114.263,210.791 114.596,211.791 115.5,212.5C 116.851,223.047 115.851,233.38 112.5,243.5C 111.662,243.842 111.328,244.508 111.5,245.5C 110.833,245.5 110.5,245.833 110.5,246.5C 108.808,248.205 107.475,250.205 106.5,252.5C 105.833,252.5 105.5,252.833 105.5,253.5C 104.833,253.5 104.5,253.833 104.5,254.5C 103.833,254.5 103.5,254.833 103.5,255.5C 102.833,255.5 102.5,255.833 102.5,256.5C 101.833,256.5 101.5,256.833 101.5,257.5C 100.508,257.328 99.8417,257.662 99.5,258.5C 98.8333,258.5 98.5,258.833 98.5,259.5C 97.5084,259.328 96.8417,259.662 96.5,260.5C 95.5084,260.328 94.8417,260.662 94.5,261.5C 93.5084,261.328 92.8417,261.662 92.5,262.5C 83.5895,264.049 74.5895,264.882 65.5,265C 72.1667,265.333 78.8333,265.667 85.5,266C 78.2141,267.186 70.8807,267.686 63.5,267.5C 62.6,276.899 61.2667,286.233 59.5,295.5C 58.8333,295.5 58.5,295.833 58.5,296.5C 50.4723,296.831 42.4723,296.498 34.5,295.5C 33.8103,291.558 33.8103,287.558 34.5,283.5C 35.4614,281.735 35.7947,279.735 35.5,277.5C 36.8955,273.409 37.5621,269.076 37.5,264.5C 39.1357,258.397 40.1357,252.064 40.5,245.5C 41.4614,243.735 41.7947,241.735 41.5,239.5C 42.4614,237.735 42.7947,235.735 42.5,233.5C 43.4682,231.393 43.8016,229.059 43.5,226.5C 45.5617,217.74 46.8951,208.74 47.5,199.5C 48.3077,197.78 49.3077,196.113 50.5,194.5 Z M 72.5,220.5 C 77.2615,219.109 81.9282,219.442 86.5,221.5C 81.8955,221.332 77.2289,220.999 72.5,220.5 Z M 86.5,221.5 C 88.4109,221.574 89.5776,222.574 90,224.5C 90.8371,228.148 90.3371,231.481 88.5,234.5C 88.59,232.304 88.9233,230.137 89.5,228C 89.4753,226.124 88.8086,224.624 87.5,223.5C 87.1667,222.833 86.8333,222.167 86.5,221.5 Z M 87.5,223.5 C 88.4184,227.122 88.4184,230.788 87.5,234.5C 86.1667,235.167 85.1667,236.167 84.5,237.5C 83.5084,237.328 82.8417,237.662 82.5,238.5C 78.2984,238.817 74.2984,238.483 70.5,237.5C 69.375,238.348 69.375,239.348 70.5,240.5C 69.4138,240.38 68.7472,239.713 68.5,238.5C 69.2337,233.312 70.2337,228.312 71.5,223.5C 71.8333,231.5 72.1667,231.5 72.5,223.5C 77.4688,222.217 82.4688,222.217 87.5,223.5 Z M 84.5,237.5 C 85.1667,237.5 85.8333,237.5 86.5,237.5C 85.9423,238.79 84.9423,239.623 83.5,240C 79.5138,240.499 75.5138,240.666 71.5,240.5C 75.1667,239.833 78.8333,239.167 82.5,238.5C 83.4916,238.672 84.1583,238.338 84.5,237.5 Z"/></g>
<g><path style="opacity:0.976" fill="#0022b1" d="M 181.5,194.5 C 184.726,195.489 188.06,196.489 191.5,197.5C 191.842,198.338 192.508,198.672 193.5,198.5C 193.842,199.338 194.508,199.672 195.5,199.5C 195.5,200.167 195.833,200.5 196.5,200.5C 198.808,202.471 201.142,204.471 203.5,206.5C 204.669,209.511 206.336,212.178 208.5,214.5C 208.66,216.153 209.326,217.486 210.5,218.5C 210.263,219.791 210.596,220.791 211.5,221.5C 211.858,224.689 212.525,227.689 213.5,230.5C 213.5,234.5 213.5,238.5 213.5,242.5C 212.539,244.265 212.205,246.265 212.5,248.5C 211.232,250.905 210.565,253.572 210.5,256.5C 209.596,257.209 209.263,258.209 209.5,259.5C 208.662,259.842 208.328,260.508 208.5,261.5C 207.662,261.842 207.328,262.508 207.5,263.5C 206.662,263.842 206.328,264.508 206.5,265.5C 205.662,265.842 205.328,266.508 205.5,267.5C 204.094,267.973 203.427,268.973 203.5,270.5C 202.094,270.973 201.427,271.973 201.5,273.5C 200.833,273.5 200.5,273.833 200.5,274.5C 199.026,275.436 198.026,276.77 197.5,278.5C 196.833,278.5 196.5,278.833 196.5,279.5C 195.833,279.5 195.5,279.833 195.5,280.5C 194.833,280.5 194.5,280.833 194.5,281.5C 193.833,281.5 193.5,281.833 193.5,282.5C 192.833,282.5 192.5,282.833 192.5,283.5C 191.833,283.5 191.5,283.833 191.5,284.5C 189.246,285.124 187.579,286.457 186.5,288.5C 185.508,288.328 184.842,288.662 184.5,289.5C 183.833,289.5 183.5,289.833 183.5,290.5C 182.508,290.328 181.842,290.662 181.5,291.5C 180.508,291.328 179.842,291.662 179.5,292.5C 178.508,292.328 177.842,292.662 177.5,293.5C 175.214,293.595 173.214,294.262 171.5,295.5C 169.901,295.232 168.568,295.566 167.5,296.5C 158.604,297.136 149.937,296.136 141.5,293.5C 141.158,292.662 140.492,292.328 139.5,292.5C 139.5,291.833 139.167,291.5 138.5,291.5C 137.205,290.512 135.872,289.512 134.5,288.5C 134.5,287.833 134.167,287.5 133.5,287.5C 133.5,286.833 133.167,286.5 132.5,286.5C 132.5,285.833 132.167,285.5 131.5,285.5C 131.5,284.833 131.167,284.5 130.5,284.5C 130.5,283.833 130.167,283.5 129.5,283.5C 129.068,282.29 128.401,281.29 127.5,280.5C 127.068,279.29 126.401,278.29 125.5,277.5C 125.672,276.508 125.338,275.842 124.5,275.5C 124.672,274.508 124.338,273.842 123.5,273.5C 123.737,272.209 123.404,271.209 122.5,270.5C 122.324,267.273 121.657,264.273 120.5,261.5C 120.5,257.167 120.5,252.833 120.5,248.5C 121.806,243.276 123.139,237.943 124.5,232.5C 126.204,229.744 127.537,226.744 128.5,223.5C 129.167,223.5 129.5,223.167 129.5,222.5C 130.338,222.158 130.672,221.492 130.5,220.5C 131.167,220.5 131.5,220.167 131.5,219.5C 132.401,218.71 133.068,217.71 133.5,216.5C 134.167,216.5 134.5,216.167 134.5,215.5C 142.329,206.092 151.995,199.425 163.5,195.5C 169.471,194.759 175.471,194.425 181.5,194.5 Z M 178.5,223.5 C 173.175,222.239 167.842,222.239 162.5,223.5C 165.017,222.027 167.85,221.36 171,221.5C 173.866,221.3 176.366,221.967 178.5,223.5 Z M 178.5,224.5 C 181.756,226.682 183.756,229.682 184.5,233.5C 184.431,238.854 184.098,244.187 183.5,249.5C 182.463,250.93 181.796,252.597 181.5,254.5C 180.094,254.973 179.427,255.973 179.5,257.5C 178.833,257.5 178.5,257.833 178.5,258.5C 177.833,258.5 177.5,258.833 177.5,259.5C 176.833,259.5 176.5,259.833 176.5,260.5C 175.833,260.5 175.5,260.833 175.5,261.5C 173.181,261.992 171.181,262.992 169.5,264.5C 164.77,264.717 160.103,264.383 155.5,263.5C 154.833,262.167 153.833,261.167 152.5,260.5C 152.5,259.833 152.167,259.5 151.5,259.5C 151.672,258.508 151.338,257.842 150.5,257.5C 149.8,253.202 149.467,248.869 149.5,244.5C 150.946,240.175 152.613,235.842 154.5,231.5C 155.401,230.71 156.068,229.71 156.5,228.5C 158.027,228.573 159.027,227.906 159.5,226.5C 160.167,226.5 160.5,226.167 160.5,225.5C 161.492,225.672 162.158,225.338 162.5,224.5C 167.841,223.26 173.174,223.26 178.5,224.5 Z M 160.5,224.5 C 160.5,224.833 160.5,225.167 160.5,225.5C 159.833,225.5 159.5,225.833 159.5,226.5C 158.833,226.5 158.167,226.5 157.5,226.5C 157.973,225.094 158.973,224.427 160.5,224.5 Z M 154.5,229.5 C 154.5,230.167 154.5,230.833 154.5,231.5C 153.833,231.833 153.167,232.167 152.5,232.5C 152.427,230.973 153.094,229.973 154.5,229.5 Z M 184.5,229.5 C 186.006,232.356 186.672,235.523 186.5,239C 186.621,242.782 185.954,246.282 184.5,249.5C 185.559,244.009 185.559,238.675 184.5,233.5C 184.5,232.167 184.5,230.833 184.5,229.5 Z M 178.5,258.5 C 178.833,258.5 179.167,258.5 179.5,258.5C 179.5,260.5 178.5,261.5 176.5,261.5C 176.5,261.167 176.5,260.833 176.5,260.5C 177.167,260.5 177.5,260.167 177.5,259.5C 178.167,259.5 178.5,259.167 178.5,258.5 Z M 150.5,259.5 C 150.833,259.5 151.167,259.5 151.5,259.5C 152.167,259.5 152.5,259.833 152.5,260.5C 152.5,261.167 152.5,261.833 152.5,262.5C 151.094,262.027 150.427,261.027 150.5,259.5 Z M 157.5,265.5 C 161.5,265.5 165.5,265.5 169.5,265.5C 167.657,266.283 165.657,266.95 163.5,267.5C 161.343,266.95 159.343,266.283 157.5,265.5 Z"/></g>
<g><path style="opacity:0.961" fill="#0022b1" d="M 305.5,194.5 C 306.355,195.531 307.022,196.697 307.5,198C 306.148,204.796 304.981,211.629 304,218.5C 303.283,219.044 302.783,219.711 302.5,220.5C 293.983,220.174 285.65,220.507 277.5,221.5C 275.097,231.586 273.431,241.92 272.5,252.5C 271.539,254.265 271.205,256.265 271.5,258.5C 270.539,260.265 270.205,262.265 270.5,264.5C 268.514,275.074 266.514,285.741 264.5,296.5C 263.508,296.328 262.842,296.662 262.5,297.5C 255.825,297.666 249.158,297.5 242.5,297C 241.584,296.626 240.75,296.126 240,295.5C 239.503,293.19 239.337,290.857 239.5,288.5C 240.461,286.735 240.795,284.735 240.5,282.5C 242.469,274.061 243.802,265.394 244.5,256.5C 245.461,254.735 245.795,252.735 245.5,250.5C 246.461,248.735 246.795,246.735 246.5,244.5C 248.461,236.733 249.794,228.733 250.5,220.5C 242.493,220.666 234.493,220.5 226.5,220C 225.426,219.261 224.759,218.261 224.5,217C 225.764,212.248 226.431,207.414 226.5,202.5C 227.033,199.878 228.033,197.378 229.5,195C 254.831,194.5 280.164,194.333 305.5,194.5 Z"/></g>
<g><path style="opacity:0.975" fill="#0022b1" d="M 353.5,194.5 C 358.167,194.5 362.833,194.5 367.5,194.5C 368.568,195.434 369.901,195.768 371.5,195.5C 373.936,196.871 376.603,197.871 379.5,198.5C 379.5,199.167 379.833,199.5 380.5,199.5C 382.142,200.803 383.809,202.136 385.5,203.5C 385.5,204.167 385.833,204.5 386.5,204.5C 386.5,205.167 386.833,205.5 387.5,205.5C 387.5,206.167 387.833,206.5 388.5,206.5C 388.5,207.167 388.833,207.5 389.5,207.5C 391.181,210.203 392.847,212.869 394.5,215.5C 394.328,216.492 394.662,217.158 395.5,217.5C 396.13,221.048 397.13,224.381 398.5,227.5C 398.5,233.5 398.5,239.5 398.5,245.5C 397.549,246.919 397.216,248.585 397.5,250.5C 395.997,254.341 394.664,258.341 393.5,262.5C 392.662,262.842 392.328,263.508 392.5,264.5C 391.662,264.842 391.328,265.508 391.5,266.5C 390.094,266.973 389.427,267.973 389.5,269.5C 388.662,269.842 388.328,270.508 388.5,271.5C 387.833,271.5 387.5,271.833 387.5,272.5C 386.026,273.436 385.026,274.77 384.5,276.5C 383.833,276.5 383.5,276.833 383.5,277.5C 382.833,277.5 382.5,277.833 382.5,278.5C 381.833,278.5 381.5,278.833 381.5,279.5C 380.167,280.167 379.167,281.167 378.5,282.5C 377.833,282.5 377.5,282.833 377.5,283.5C 376.833,283.5 376.5,283.833 376.5,284.5C 375.833,284.5 375.5,284.833 375.5,285.5C 374.833,285.5 374.5,285.833 374.5,286.5C 372.596,286.738 371.262,287.738 370.5,289.5C 364.635,292.442 358.635,294.775 352.5,296.5C 347.167,296.5 341.833,296.5 336.5,296.5C 332.919,295.193 329.253,293.859 325.5,292.5C 325.158,291.662 324.492,291.328 323.5,291.5C 323.5,290.833 323.167,290.5 322.5,290.5C 318.124,287.126 314.458,283.126 311.5,278.5C 311.672,277.508 311.338,276.842 310.5,276.5C 305.509,262.321 305.176,247.988 309.5,233.5C 311.481,229.539 313.481,225.539 315.5,221.5C 316.401,220.71 317.068,219.71 317.5,218.5C 318.167,218.5 318.5,218.167 318.5,217.5C 319.401,216.71 320.068,215.71 320.5,214.5C 321.167,214.5 321.5,214.167 321.5,213.5C 322.167,213.5 322.5,213.167 322.5,212.5C 323.167,212.5 323.5,212.167 323.5,211.5C 324.167,211.5 324.5,211.167 324.5,210.5C 325.5,210.167 326.167,209.5 326.5,208.5C 327.167,208.5 327.5,208.167 327.5,207.5C 328.167,207.5 328.5,207.167 328.5,206.5C 329.167,206.5 329.5,206.167 329.5,205.5C 332.523,203.467 335.523,201.467 338.5,199.5C 343.527,197.602 348.527,195.935 353.5,194.5 Z M 351.5,222.5 C 352.964,221.84 354.631,221.507 356.5,221.5C 359.486,221.382 362.152,222.048 364.5,223.5C 363.167,223.5 361.833,223.5 360.5,223.5C 357.713,222.523 354.713,222.19 351.5,222.5 Z M 348.5,223.5 C 348.5,223.833 348.5,224.167 348.5,224.5C 347.508,224.328 346.842,224.662 346.5,225.5C 345.833,225.5 345.167,225.5 344.5,225.5C 345.287,223.896 346.62,223.229 348.5,223.5 Z M 360.5,223.5 C 362.028,224.309 363.694,224.976 365.5,225.5C 365.5,226.167 365.833,226.5 366.5,226.5C 366.5,227.167 366.833,227.5 367.5,227.5C 368.271,230.332 368.938,230.665 369.5,228.5C 373.062,234.665 373.396,240.998 370.5,247.5C 371.421,242.063 371.255,236.73 370,231.5C 369.501,236.823 369.334,242.156 369.5,247.5C 368.542,249.302 367.875,251.302 367.5,253.5C 366.094,253.973 365.427,254.973 365.5,256.5C 364.094,256.973 363.427,257.973 363.5,259.5C 362.833,259.5 362.5,259.833 362.5,260.5C 360.973,260.427 359.973,261.094 359.5,262.5C 358.508,262.328 357.842,262.662 357.5,263.5C 351.356,265.092 345.356,264.758 339.5,262.5C 339.5,261.833 339.167,261.5 338.5,261.5C 335.739,255.196 334.739,248.529 335.5,241.5C 336.404,240.791 336.737,239.791 336.5,238.5C 338.293,236.574 339.293,234.241 339.5,231.5C 340.167,231.5 340.5,231.167 340.5,230.5C 341.167,230.5 341.5,230.167 341.5,229.5C 342.167,229.5 342.5,229.167 342.5,228.5C 343.167,228.5 343.5,228.167 343.5,227.5C 344.71,227.068 345.71,226.401 346.5,225.5C 347.492,225.672 348.158,225.338 348.5,224.5C 352.466,223.838 356.466,223.505 360.5,223.5 Z M 365.5,225.5 C 365.5,225.167 365.5,224.833 365.5,224.5C 367.5,224.5 368.5,225.5 368.5,227.5C 368.167,227.5 367.833,227.5 367.5,227.5C 366.833,227.5 366.5,227.167 366.5,226.5C 365.833,226.5 365.5,226.167 365.5,225.5 Z M 343.5,226.5 C 343.5,226.833 343.5,227.167 343.5,227.5C 342.833,227.5 342.5,227.833 342.5,228.5C 341.833,228.5 341.5,228.833 341.5,229.5C 340.833,229.5 340.5,229.833 340.5,230.5C 340.167,230.5 339.833,230.5 339.5,230.5C 339.833,228.167 341.167,226.833 343.5,226.5 Z M 336.5,235.5 C 336.5,236.5 336.5,237.5 336.5,238.5C 335.596,239.209 335.263,240.209 335.5,241.5C 335.167,241.5 334.833,241.5 334.5,241.5C 334.259,239.102 334.926,237.102 336.5,235.5 Z M 337.5,261.5 C 337.833,261.5 338.167,261.5 338.5,261.5C 339.167,261.5 339.5,261.833 339.5,262.5C 339.5,262.833 339.5,263.167 339.5,263.5C 338.167,263.5 337.5,262.833 337.5,261.5 Z M 342.5,265.5 C 346.833,265.5 351.167,265.5 355.5,265.5C 353.444,266.216 351.277,266.883 349,267.5C 346.723,266.883 344.556,266.216 342.5,265.5 Z"/></g>
<g><path style="opacity:0.968" fill="#0022b1" d="M 443.5,194.5 C 447.833,194.5 452.167,194.5 456.5,194.5C 457.919,195.451 459.585,195.784 461.5,195.5C 466.429,197.202 471.429,199.035 476.5,201C 477.38,202.356 477.714,203.856 477.5,205.5C 476.596,206.209 476.263,207.209 476.5,208.5C 475.662,208.842 475.328,209.508 475.5,210.5C 474.596,211.209 474.263,212.209 474.5,213.5C 473.596,214.209 473.263,215.209 473.5,216.5C 472.069,217.78 471.402,219.447 471.5,221.5C 470.662,221.842 470.328,222.508 470.5,223.5C 468.5,223.5 466.5,223.5 464.5,223.5C 463.22,222.069 461.553,221.402 459.5,221.5C 458.791,220.596 457.791,220.263 456.5,220.5C 455.432,219.566 454.099,219.232 452.5,219.5C 450.167,218.167 447.833,218.167 445.5,219.5C 441.998,219.076 439.665,220.41 438.5,223.5C 437.167,225.167 437.167,226.833 438.5,228.5C 442.888,230.434 447.555,231.767 452.5,232.5C 455.314,234.07 458.314,235.403 461.5,236.5C 461.5,237.167 461.833,237.5 462.5,237.5C 462.5,238.167 462.833,238.5 463.5,238.5C 463.5,239.167 463.833,239.5 464.5,239.5C 464.5,240.167 464.833,240.5 465.5,240.5C 465.5,241.167 465.833,241.5 466.5,241.5C 467.596,244.032 468.929,246.365 470.5,248.5C 471.793,256.159 471.793,263.826 470.5,271.5C 469.662,271.842 469.328,272.508 469.5,273.5C 468.662,273.842 468.328,274.508 468.5,275.5C 467.662,275.842 467.328,276.508 467.5,277.5C 465.808,279.205 464.475,281.205 463.5,283.5C 462.833,283.5 462.5,283.833 462.5,284.5C 461.833,284.5 461.5,284.833 461.5,285.5C 460.833,285.5 460.5,285.833 460.5,286.5C 459.833,286.5 459.5,286.833 459.5,287.5C 458.833,287.5 458.5,287.833 458.5,288.5C 457.508,288.328 456.842,288.662 456.5,289.5C 455.833,289.5 455.5,289.833 455.5,290.5C 453.566,291.11 451.899,292.11 450.5,293.5C 446.033,294.695 441.699,296.029 437.5,297.5C 431.811,297.468 426.145,297.134 420.5,296.5C 416.383,294.796 412.049,293.463 407.5,292.5C 407.158,291.662 406.492,291.328 405.5,291.5C 402.53,290.347 399.863,288.68 397.5,286.5C 398.441,284.95 399.107,283.284 399.5,281.5C 402.008,277.818 404.008,273.818 405.5,269.5C 406.737,268.035 407.737,266.368 408.5,264.5C 411.327,264.584 413.994,265.25 416.5,266.5C 417.209,267.404 418.209,267.737 419.5,267.5C 423.493,269.569 427.827,270.902 432.5,271.5C 434.982,270.933 437.316,270.266 439.5,269.5C 440.492,269.672 441.158,269.338 441.5,268.5C 442.117,268.389 442.617,268.056 443,267.5C 444.651,262.906 443.151,260.24 438.5,259.5C 437.791,258.596 436.791,258.263 435.5,258.5C 428.709,257.011 422.376,254.345 416.5,250.5C 416.5,249.833 416.167,249.5 415.5,249.5C 414.488,248.128 413.488,246.795 412.5,245.5C 412.672,244.508 412.338,243.842 411.5,243.5C 411.672,242.508 411.338,241.842 410.5,241.5C 410.326,234.465 410.659,227.465 411.5,220.5C 413.147,217.205 414.814,213.872 416.5,210.5C 417.167,210.5 417.5,210.167 417.5,209.5C 418.167,209.5 418.5,209.167 418.5,208.5C 420.167,207.5 421.5,206.167 422.5,204.5C 423.167,204.5 423.5,204.167 423.5,203.5C 424.872,202.488 426.205,201.488 427.5,200.5C 428.167,200.5 428.5,200.167 428.5,199.5C 433.527,197.602 438.527,195.935 443.5,194.5 Z M 445.5,219.5 C 444.5,220.167 443.5,220.833 442.5,221.5C 440.973,221.427 439.973,222.094 439.5,223.5C 439.167,223.5 438.833,223.5 438.5,223.5C 439.665,220.41 441.998,219.076 445.5,219.5 Z M 459.5,221.5 C 461.553,221.402 463.22,222.069 464.5,223.5C 463.5,223.5 462.5,223.5 461.5,223.5C 460.833,222.833 460.167,222.167 459.5,221.5 Z M 419.5,267.5 C 421.806,267.993 424.139,268.326 426.5,268.5C 430.634,269.485 434.968,269.818 439.5,269.5C 437.316,270.266 434.982,270.933 432.5,271.5C 427.827,270.902 423.493,269.569 419.5,267.5 Z"/></g>
<g><path style="opacity:0.008" fill="#0000d2" d="M 154.5,197.5 C 154.897,196.475 155.563,196.308 156.5,197C 155.906,197.464 155.239,197.631 154.5,197.5 Z"/></g>
<g><path style="opacity:0.005" fill="#0000f0" d="M 191.5,197.5 C 193.128,196.147 194.462,196.481 195.5,198.5C 194.833,198.5 194.167,198.5 193.5,198.5C 193.158,197.662 192.492,197.328 191.5,197.5 Z"/></g>
<g><path style="opacity:0.006" fill="#0000ff" d="M 430.5,197.5 C 430.897,196.475 431.563,196.308 432.5,197C 431.906,197.464 431.239,197.631 430.5,197.5 Z"/></g>
<g><path style="opacity:0.008" fill="#18087b" d="M 308.5,196.5 C 309.573,197.251 309.74,198.251 309,199.5C 308.517,198.552 308.351,197.552 308.5,196.5 Z"/></g>
<g><path style="opacity:0.008" fill="#0313ad" d="M 379.5,198.5 C 380.497,197.287 381.497,197.454 382.5,199C 381.906,199.464 381.239,199.631 380.5,199.5C 379.833,199.5 379.5,199.167 379.5,198.5 Z"/></g>
<g><path style="opacity:0.012" fill="#020bc6" d="M 105.5,198.5 C 107.07,197.441 108.403,197.941 109.5,200C 108.906,200.464 108.239,200.631 107.5,200.5C 106.833,200.5 106.5,200.167 106.5,199.5C 105.833,199.5 105.5,199.167 105.5,198.5 Z"/></g>
<g><path style="opacity:0.008" fill="#031ba3" d="M 195.5,199.5 C 195.5,199.167 195.5,198.833 195.5,198.5C 198.46,199.032 198.793,199.699 196.5,200.5C 195.833,200.5 195.5,200.167 195.5,199.5 Z"/></g>
<g><path style="opacity:0.027" fill="#0325b2" d="M 226.5,202.5 C 225.607,206.191 224.607,209.858 223.5,213.5C 223.898,207.778 224.731,202.111 226,196.5C 226.495,198.473 226.662,200.473 226.5,202.5 Z"/></g>
<g><path style="opacity:0.004" fill="#0624d6" d="M 338.5,199.5 C 336.025,199.253 336.025,198.587 338.5,197.5C 339.463,197.97 339.463,198.637 338.5,199.5 Z"/></g>
<g><path style="opacity:0.016" fill="#052cbc" d="M 428.5,199.5 C 427.833,199.5 427.5,199.833 427.5,200.5C 425.025,200.253 425.025,199.587 427.5,198.5C 428.107,198.624 428.44,198.957 428.5,199.5 Z"/></g>
<g><path style="opacity:0.012" fill="#0210cb" d="M 111.5,204.5 C 110.833,204.5 110.5,204.167 110.5,203.5C 110.747,201.025 111.413,201.025 112.5,203.5C 112.376,204.107 112.043,204.44 111.5,204.5 Z"/></g>
<g><path style="opacity:0.004" fill="#020dcf" d="M 385.5,203.5 C 387.664,202.882 389.33,203.882 390.5,206.5C 390.376,207.107 390.043,207.44 389.5,207.5C 388.833,207.5 388.5,207.167 388.5,206.5C 387.833,206.5 387.5,206.167 387.5,205.5C 386.833,205.5 386.5,205.167 386.5,204.5C 385.833,204.5 385.5,204.167 385.5,203.5 Z"/></g>
<g><path style="opacity:0.016" fill="#052db7" d="M 477.5,208.5 C 477.5,207.5 477.5,206.5 477.5,205.5C 478.29,204.391 478.79,203.058 479,201.5C 479.826,204.212 479.326,206.545 477.5,208.5 Z"/></g>
<g><path style="opacity:0.008" fill="#0415bd" d="M 423.5,203.5 C 422.833,203.5 422.5,203.833 422.5,204.5C 420.025,204.253 420.025,203.587 422.5,202.5C 423.107,202.624 423.44,202.957 423.5,203.5 Z"/></g>
<g><path style="opacity:0.02" fill="#0032cc" d="M 204.5,206.5 C 203.833,205.167 203.833,205.167 204.5,206.5 Z"/></g>
<g><path style="opacity:0.012" fill="#0000aa" d="M 204.5,206.5 C 205.833,207.167 205.833,207.167 204.5,206.5 Z"/></g>
<g><path style="opacity:0.012" fill="#0313c8" d="M 329.5,205.5 C 328.833,205.5 328.5,205.833 328.5,206.5C 327.833,206.5 327.5,206.833 327.5,207.5C 326.833,207.5 326.5,207.833 326.5,208.5C 325.833,208.5 325.167,208.5 324.5,208.5C 325.648,205.913 327.315,204.913 329.5,205.5 Z"/></g>
<g><path style="opacity:0.008" fill="#0c0387" d="M 115.5,209.5 C 115.167,209.5 114.833,209.5 114.5,209.5C 114.672,208.508 114.338,207.842 113.5,207.5C 113.369,206.761 113.536,206.094 114,205.5C 115.188,206.563 115.688,207.897 115.5,209.5 Z"/></g>
<g><path style="opacity:0.012" fill="#0414d0" d="M 418.5,208.5 C 417.833,208.5 417.5,208.833 417.5,209.5C 416.833,209.5 416.5,209.833 416.5,210.5C 415.441,208.93 415.941,207.597 418,206.5C 418.464,207.094 418.631,207.761 418.5,208.5 Z"/></g>
<g><path style="opacity:0.007" fill="#0000ff" d="M 115.5,209.5 C 116.404,210.209 116.737,211.209 116.5,212.5C 116.167,212.5 115.833,212.5 115.5,212.5C 115.5,211.5 115.5,210.5 115.5,209.5 Z"/></g>
<g><path style="opacity:0.004" fill="#0218d7" d="M 476.5,208.5 C 476.833,208.5 477.167,208.5 477.5,208.5C 477.598,210.553 476.931,212.22 475.5,213.5C 475.5,212.5 475.5,211.5 475.5,210.5C 476.338,210.158 476.672,209.492 476.5,208.5 Z"/></g>
<g><path style="opacity:0.02" fill="#0524d7" d="M 324.5,208.5 C 324.5,209.167 324.5,209.833 324.5,210.5C 323.833,210.5 323.5,210.833 323.5,211.5C 322.833,211.5 322.5,211.833 322.5,212.5C 321.833,212.5 321.5,212.833 321.5,213.5C 320.833,213.5 320.5,213.833 320.5,214.5C 319.475,214.103 319.308,213.437 320,212.5C 321.371,210.959 322.871,209.625 324.5,208.5 Z"/></g>
<g><path style="opacity:0.012" fill="#1015a8" d="M 47.5,199.5 C 45.4383,208.26 44.1049,217.26 43.5,226.5C 42.9143,216.166 44.081,205.833 47,195.5C 47.49,196.793 47.6567,198.127 47.5,199.5 Z"/></g>
<g><path style="opacity:0.008" fill="#011497" d="M 210.5,215.5 C 209.833,215.167 209.167,214.833 208.5,214.5C 209.301,212.207 209.968,212.54 210.5,215.5 Z"/></g>
<g><path style="opacity:0.012" fill="#18087c" d="M 474.5,213.5 C 474.833,213.5 475.167,213.5 475.5,213.5C 475.737,214.791 475.404,215.791 474.5,216.5C 474.5,215.5 474.5,214.5 474.5,213.5 Z"/></g>
<g><path style="opacity:0.016" fill="#1428ab" d="M 116.5,212.5 C 117.451,213.919 117.784,215.585 117.5,217.5C 116.549,216.081 116.216,214.415 116.5,212.5 Z"/></g>
<g><path style="opacity:0.012" fill="#0000b2" d="M 134.5,215.5 C 133.833,215.5 133.5,215.833 133.5,216.5C 132.287,215.503 132.454,214.503 134,213.5C 134.464,214.094 134.631,214.761 134.5,215.5 Z"/></g>
<g><path style="opacity:0.012" fill="#1506a1" d="M 210.5,215.5 C 212.461,217.32 212.794,219.32 211.5,221.5C 211.737,220.209 211.404,219.209 210.5,218.5C 210.5,217.5 210.5,216.5 210.5,215.5 Z"/></g>
<g><path style="opacity:0.012" fill="#0000c2" d="M 223.5,213.5 C 223.5,215.5 223.5,217.5 223.5,219.5C 222.167,217.5 222.167,215.5 223.5,213.5 Z"/></g>
<g><path style="opacity:0.005" fill="#0416d6" d="M 395.5,217.5 C 395.672,216.508 395.338,215.842 394.5,215.5C 394.393,213.621 394.893,213.288 396,214.5C 397.187,216.044 397.52,217.711 397,219.5C 396.722,218.584 396.222,217.918 395.5,217.5 Z"/></g>
<g><path style="opacity:0.016" fill="#0628b8" d="M 306.5,207.5 C 307.652,211.054 307.485,214.72 306,218.5C 305.938,214.852 306.105,211.185 306.5,207.5 Z"/></g>
<g><path style="opacity:0.024" fill="#1b1d9c" d="M 318.5,217.5 C 317.833,217.5 317.5,217.833 317.5,218.5C 316.287,217.503 316.454,216.503 318,215.5C 318.464,216.094 318.631,216.761 318.5,217.5 Z"/></g>
<g><path style="opacity:0.016" fill="#18258f" d="M 131.5,219.5 C 130.833,219.5 130.5,219.833 130.5,220.5C 130.167,220.5 129.833,220.5 129.5,220.5C 130.032,217.54 130.699,217.207 131.5,219.5 Z"/></g>
<g><path style="opacity:0.008" fill="#000080" d="M 223.5,219.5 C 224.167,219.5 224.5,219.833 224.5,220.5C 224.167,220.167 223.833,219.833 223.5,219.5 Z"/></g>
<g><path style="opacity:0.016" fill="#0a2eb9" d="M 117.5,217.5 C 118.833,220.833 118.833,224.167 117.5,227.5C 117.5,224.167 117.5,220.833 117.5,217.5 Z"/></g>
<g><path style="opacity:0.008" fill="#000080" d="M 224.5,220.5 C 225.167,220.5 225.5,220.833 225.5,221.5C 225.167,221.167 224.833,220.833 224.5,220.5 Z"/></g>
<g><path style="opacity:0.024" fill="#0423be" d="M 445.5,219.5 C 447.833,219.5 450.167,219.5 452.5,219.5C 453.568,220.434 454.901,220.768 456.5,220.5C 457.209,221.404 458.209,221.737 459.5,221.5C 460.167,222.167 460.833,222.833 461.5,223.5C 457.371,222.426 453.204,221.426 449,220.5C 446.863,221.077 444.696,221.41 442.5,221.5C 443.5,220.833 444.5,220.167 445.5,219.5 Z"/></g>
<g><path style="opacity:0.009" fill="#0d108c" d="M 72.5,220.5 C 77.2289,220.999 81.8955,221.332 86.5,221.5C 86.8333,222.167 87.1667,222.833 87.5,223.5C 82.4688,222.217 77.4688,222.217 72.5,223.5C 72.5,222.5 72.5,221.5 72.5,220.5 Z"/></g>
<g><path style="opacity:0.008" fill="#031793" d="M 129.5,220.5 C 129.5,221.167 129.5,221.833 129.5,222.5C 128.833,222.5 128.5,222.833 128.5,223.5C 127.285,222.221 127.618,221.221 129.5,220.5 Z"/></g>
<g><path style="opacity:0.024" fill="#0521a8" d="M 225.5,221.5 C 233.5,221.5 241.5,221.5 249.5,221.5C 248.955,224.813 248.455,228.146 248,231.5C 247.223,228.571 247.39,225.737 248.5,223C 240.656,222.829 232.989,222.329 225.5,221.5 Z"/></g>
<g><path style="opacity:0.024" fill="#0128b4" d="M 302.5,220.5 C 304.379,220.393 304.712,220.893 303.5,222C 295.173,222.5 286.84,222.666 278.5,222.5C 278.784,224.415 278.451,226.081 277.5,227.5C 277.5,225.5 277.5,223.5 277.5,221.5C 286.017,221.826 294.35,221.493 302.5,220.5 Z"/></g>
<g><path style="opacity:0.02" fill="#0532d2" d="M 315.5,221.5 C 313.108,222.368 312.941,221.701 315,219.5C 315.464,220.094 315.631,220.761 315.5,221.5 Z"/></g>
<g><path style="opacity:0.016" fill="#0d27b5" d="M 178.5,223.5 C 178.5,223.833 178.5,224.167 178.5,224.5C 173.174,223.26 167.841,223.26 162.5,224.5C 162.5,224.167 162.5,223.833 162.5,223.5C 167.842,222.239 173.175,222.239 178.5,223.5 Z"/></g>
<g><path style="opacity:0.02" fill="#062aac" d="M 351.5,222.5 C 354.713,222.19 357.713,222.523 360.5,223.5C 356.466,223.505 352.466,223.838 348.5,224.5C 348.5,224.167 348.5,223.833 348.5,223.5C 349.791,223.737 350.791,223.404 351.5,222.5 Z"/></g>
<g><path style="opacity:0.012" fill="#0d0fa4" d="M 473.5,216.5 C 473.833,216.5 474.167,216.5 474.5,216.5C 474.834,219.491 473.834,221.824 471.5,223.5C 471.5,222.833 471.5,222.167 471.5,221.5C 472.931,220.22 473.598,218.553 473.5,216.5 Z"/></g>
<g><path style="opacity:0.012" fill="#0e13bc" d="M 411.5,220.5 C 408.259,227.405 407.925,234.405 410.5,241.5C 410.328,242.492 410.662,243.158 411.5,243.5C 411.328,244.492 411.662,245.158 412.5,245.5C 412.631,246.239 412.464,246.906 412,247.5C 406.428,237.772 406.095,227.772 411,217.5C 411.483,218.448 411.649,219.448 411.5,220.5 Z"/></g>
<g><path style="opacity:0.008" fill="#000080" d="M 470.5,223.5 C 470.833,223.5 471.167,223.5 471.5,223.5C 471.315,224.17 470.981,224.17 470.5,223.5 Z"/></g>
<g><path style="opacity:0.027" fill="#0d24a7" d="M 438.5,223.5 C 438.833,223.5 439.167,223.5 439.5,223.5C 439.227,225.451 439.893,226.951 441.5,228C 440.552,228.483 439.552,228.649 438.5,228.5C 438.5,226.833 438.5,225.167 438.5,223.5 Z"/></g>
<g><path style="opacity:0.012" fill="#0000b3" d="M 464.5,225.5 C 465.251,224.427 466.251,224.26 467.5,225C 466.552,225.483 465.552,225.649 464.5,225.5 Z"/></g>
<g><path style="opacity:0.004" fill="#0000e1" d="M 470.5,224.5 C 470.103,225.525 469.437,225.692 468.5,225C 469.094,224.536 469.761,224.369 470.5,224.5 Z"/></g>
<g><path style="opacity:0.006" fill="#1305cc" d="M 87.5,223.5 C 88.8086,224.624 89.4753,226.124 89.5,228C 88.9233,230.137 88.59,232.304 88.5,234.5C 88.1667,234.5 87.8333,234.5 87.5,234.5C 88.4184,230.788 88.4184,227.122 87.5,223.5 Z"/></g>
<g><path style="opacity:0.004" fill="#0113e8" d="M 157.5,226.5 C 158.167,226.5 158.833,226.5 159.5,226.5C 159.027,227.906 158.027,228.573 156.5,228.5C 156.5,228.167 156.5,227.833 156.5,227.5C 157.167,227.5 157.5,227.167 157.5,226.5 Z"/></g>
<g><path style="opacity:0.016" fill="#072ccf" d="M 117.5,227.5 C 117.662,229.527 117.495,231.527 117,233.5C 116.211,231.288 116.378,229.288 117.5,227.5 Z"/></g>
<g><path style="opacity:0.02" fill="#0421c0" d="M 277.5,227.5 C 277.66,229.199 277.494,230.866 277,232.5C 276.22,230.613 276.387,228.946 277.5,227.5 Z"/></g>
<g><path style="opacity:0.004" fill="#0310d0" d="M 450.5,230.5 C 447.784,230.322 445.117,229.822 442.5,229C 445.482,228.297 448.149,228.797 450.5,230.5 Z"/></g>
<g><path style="opacity:0.008" fill="#021299" d="M 450.5,230.5 C 452.308,230.491 453.975,230.991 455.5,232C 454.552,232.483 453.552,232.649 452.5,232.5C 451.833,231.833 451.167,231.167 450.5,230.5 Z"/></g>
<g><path style="opacity:0.012" fill="#0117ca" d="M 124.5,232.5 C 123.778,232.918 123.278,233.584 123,234.5C 122.48,232.711 122.813,231.044 124,229.5C 124.483,230.448 124.649,231.448 124.5,232.5 Z"/></g>
<g><path style="opacity:0.016" fill="#052cbb" d="M 309.5,233.5 C 308.833,234.167 308.167,234.833 307.5,235.5C 307.491,233.692 307.991,232.025 309,230.5C 309.483,231.448 309.649,232.448 309.5,233.5 Z"/></g>
<g><path style="opacity:0.024" fill="#0327b6" d="M 213.5,248.5 C 213.5,246.5 213.5,244.5 213.5,242.5C 214.833,238.5 214.833,234.5 213.5,230.5C 213.338,228.473 213.505,226.473 214,224.5C 216.146,232.693 215.979,240.693 213.5,248.5 Z"/></g>
<g><path style="opacity:0.012" fill="#0802be" d="M 184.5,233.5 C 185.559,238.675 185.559,244.009 184.5,249.5C 184.167,249.5 183.833,249.5 183.5,249.5C 184.098,244.187 184.431,238.854 184.5,233.5 Z"/></g>
<g><path style="opacity:0.005" fill="#0000ed" d="M 115.5,238.5 C 115.343,237.127 115.51,235.793 116,234.5C 116.765,236.066 116.598,237.399 115.5,238.5 Z"/></g>
<g><path style="opacity:0.024" fill="#0d20b0" d="M 154.5,231.5 C 152.613,235.842 150.946,240.175 149.5,244.5C 149.5,242.833 149.5,241.167 149.5,239.5C 150.404,238.791 150.737,237.791 150.5,236.5C 151.338,236.158 151.672,235.492 151.5,234.5C 152.338,234.158 152.672,233.492 152.5,232.5C 153.167,232.167 153.833,231.833 154.5,231.5 Z"/></g>
<g><path style="opacity:0.004" fill="#0000e9" d="M 370.5,247.5 C 370.167,247.5 369.833,247.5 369.5,247.5C 369.334,242.156 369.501,236.823 370,231.5C 371.255,236.73 371.421,242.063 370.5,247.5 Z"/></g>
<g><path style="opacity:0.02" fill="#0524a7" d="M 87.5,234.5 C 87.5,235.167 87.5,235.833 87.5,236.5C 86.8333,236.5 86.5,236.833 86.5,237.5C 85.8333,237.5 85.1667,237.5 84.5,237.5C 85.1667,236.167 86.1667,235.167 87.5,234.5 Z"/></g>
<g><path style="opacity:0.027" fill="#0420b9" d="M 338.5,231.5 C 338.833,231.5 339.167,231.5 339.5,231.5C 339.293,234.241 338.293,236.574 336.5,238.5C 336.5,237.5 336.5,236.5 336.5,235.5C 337.338,235.158 337.672,234.492 337.5,233.5C 338.338,233.158 338.672,232.492 338.5,231.5 Z"/></g>
<g><path style="opacity:0.007" fill="#1217df" d="M 461.5,236.5 C 461.897,235.475 462.563,235.308 463.5,236C 464.667,237.167 465.833,238.333 467,239.5C 467.692,240.437 467.525,241.103 466.5,241.5C 465.833,241.5 465.5,241.167 465.5,240.5C 464.833,240.5 464.5,240.167 464.5,239.5C 463.833,239.5 463.5,239.167 463.5,238.5C 462.833,238.5 462.5,238.167 462.5,237.5C 461.833,237.5 461.5,237.167 461.5,236.5 Z"/></g>
<g><path style="opacity:0.008" fill="#070f90" d="M 70.5,237.5 C 74.2984,238.483 78.2984,238.817 82.5,238.5C 78.8333,239.167 75.1667,239.833 71.5,240.5C 71.1667,240.5 70.8333,240.5 70.5,240.5C 69.375,239.348 69.375,238.348 70.5,237.5 Z"/></g>
<g><path style="opacity:0.012" fill="#000094" d="M 115.5,238.5 C 115.737,239.791 115.404,240.791 114.5,241.5C 114.263,240.209 114.596,239.209 115.5,238.5 Z"/></g>
<g><path style="opacity:0.008" fill="#030edb" d="M 307.5,235.5 C 307.196,238.522 306.696,241.522 306,244.5C 305.219,241.183 305.719,238.183 307.5,235.5 Z"/></g>
<g><path style="opacity:0.016" fill="#003bb2" d="M 114.5,241.5 C 114.672,242.492 114.338,243.158 113.5,243.5C 113.328,242.508 113.662,241.842 114.5,241.5 Z"/></g>
<g><path style="opacity:0.008" fill="#0a02a0" d="M 120.5,248.5 C 119.226,244.926 119.393,241.259 121,237.5C 120.89,241.129 120.724,244.796 120.5,248.5 Z"/></g>
<g><path style="opacity:0.016" fill="#062ab7" d="M 398.5,250.5 C 398.5,248.833 398.5,247.167 398.5,245.5C 399.833,239.5 399.833,233.5 398.5,227.5C 398.457,223.107 398.957,222.774 400,226.5C 400.167,229.833 400.333,233.167 400.5,236.5C 400.7,241.437 400.033,246.104 398.5,250.5 Z"/></g>
<g><path style="opacity:0.016" fill="#0039b7" d="M 112.5,243.5 C 112.833,243.5 113.167,243.5 113.5,243.5C 113.672,244.492 113.338,245.158 112.5,245.5C 112.5,244.833 112.5,244.167 112.5,243.5 Z"/></g>
<g><path style="opacity:0.016" fill="#0628bd" d="M 111.5,245.5 C 111.833,245.5 112.167,245.5 112.5,245.5C 111.968,248.46 111.301,248.793 110.5,246.5C 111.167,246.5 111.5,246.167 111.5,245.5 Z"/></g>
<g><path style="opacity:0.008" fill="#141886" d="M 472.5,250.5 C 471.833,249.833 471.167,249.167 470.5,248.5C 470.351,247.448 470.517,246.448 471,245.5C 472.009,247.025 472.509,248.692 472.5,250.5 Z"/></g>
<g><path style="opacity:0.02" fill="#0628af" d="M 212.5,248.5 C 212.833,248.5 213.167,248.5 213.5,248.5C 213.167,253.833 212.833,253.833 212.5,248.5 Z"/></g>
<g><path style="opacity:0.02" fill="#0c21ab" d="M 270.5,264.5 C 271.461,262.735 271.795,260.735 271.5,258.5C 272.461,256.735 272.795,254.735 272.5,252.5C 273.748,249.058 274.581,245.392 275,241.5C 274.586,251.252 273.252,260.918 271,270.5C 270.505,268.527 270.338,266.527 270.5,264.5 Z"/></g>
<g><path style="opacity:0.004" fill="#1b0c56" d="M 415.5,249.5 C 416.167,249.5 416.5,249.833 416.5,250.5C 416.44,251.043 416.107,251.376 415.5,251.5C 414.227,250.743 414.227,250.077 415.5,249.5 Z"/></g>
<g><path style="opacity:0.016" fill="#132db0" d="M 148.5,244.5 C 148.833,244.5 149.167,244.5 149.5,244.5C 149.467,248.869 149.8,253.202 150.5,257.5C 150.167,257.5 149.833,257.5 149.5,257.5C 149.737,256.209 149.404,255.209 148.5,254.5C 148.5,251.167 148.5,247.833 148.5,244.5 Z"/></g>
<g><path style="opacity:0.024" fill="#0724b8" d="M 246.5,244.5 C 245.539,246.265 245.205,248.265 245.5,250.5C 244.539,252.265 244.205,254.265 244.5,256.5C 243.833,258.167 243.167,259.833 242.5,261.5C 243.211,253.777 244.377,246.11 246,238.5C 246.495,240.473 246.662,242.473 246.5,244.5 Z"/></g>
<g><path style="opacity:0.006" fill="#0000f0" d="M 397.5,250.5 C 397.833,250.5 398.167,250.5 398.5,250.5C 398.167,255.833 397.833,255.833 397.5,250.5 Z"/></g>
<g><path style="opacity:0.004" fill="#16173e" d="M 106.5,252.5 C 107.718,254.332 107.051,255.332 104.5,255.5C 104.5,255.167 104.5,254.833 104.5,254.5C 105.167,254.5 105.5,254.167 105.5,253.5C 106.167,253.5 106.5,253.167 106.5,252.5 Z"/></g>
<g><path style="opacity:0.008" fill="#14069b" d="M 210.5,259.5 C 210.5,258.5 210.5,257.5 210.5,256.5C 211.268,255.737 211.768,254.737 212,253.5C 212.738,255.881 212.238,257.881 210.5,259.5 Z"/></g>
<g><path style="opacity:0.016" fill="#003fbf" d="M 103.5,255.5 C 103.833,255.5 104.167,255.5 104.5,255.5C 104.315,256.17 103.981,256.17 103.5,255.5 Z"/></g>
<g><path style="opacity:0.008" fill="#0118e7" d="M 181.5,254.5 C 181.5,255.167 181.5,255.833 181.5,256.5C 180.833,256.5 180.5,256.833 180.5,257.5C 180.167,257.5 179.833,257.5 179.5,257.5C 179.427,255.973 180.094,254.973 181.5,254.5 Z"/></g>
<g><path style="opacity:0.027" fill="#0429c6" d="M 367.5,253.5 C 367.5,254.167 367.5,254.833 367.5,255.5C 366.833,255.5 366.5,255.833 366.5,256.5C 366.167,256.5 365.833,256.5 365.5,256.5C 365.427,254.973 366.094,253.973 367.5,253.5 Z"/></g>
<g><path style="opacity:0.008" fill="#0000d2" d="M 423.5,256.5 C 422.761,256.631 422.094,256.464 421.5,256C 422.437,255.308 423.103,255.475 423.5,256.5 Z"/></g>
<g><path style="opacity:0.016" fill="#003fbf" d="M 102.5,256.5 C 102.833,256.5 103.167,256.5 103.5,256.5C 103.315,257.17 102.981,257.17 102.5,256.5 Z"/></g>
<g><path style="opacity:0.008" fill="#13058e" d="M 118.5,249.5 C 119.643,252.976 119.81,256.642 119,260.5C 118.501,256.848 118.335,253.182 118.5,249.5 Z"/></g>
<g><path style="opacity:0.008" fill="#140668" d="M 423.5,256.5 C 424.552,256.351 425.552,256.517 426.5,257C 425.251,257.74 424.251,257.573 423.5,256.5 Z"/></g>
<g><path style="opacity:0.004" fill="#0701d5" d="M 472.5,250.5 C 474.958,256.289 475.125,262.289 473,268.5C 472.501,262.509 472.334,256.509 472.5,250.5 Z"/></g>
<g><path style="opacity:0.016" fill="#003fbf" d="M 101.5,257.5 C 101.833,257.5 102.167,257.5 102.5,257.5C 102.315,258.17 101.981,258.17 101.5,257.5 Z"/></g>
<g><path style="opacity:0.016" fill="#0521ce" d="M 365.5,256.5 C 365.5,257.167 365.5,257.833 365.5,258.5C 364.833,258.5 364.5,258.833 364.5,259.5C 364.167,259.5 363.833,259.5 363.5,259.5C 363.427,257.973 364.094,256.973 365.5,256.5 Z"/></g>
<g><path style="opacity:0.008" fill="#0b11a7" d="M 42.5,233.5 C 41.5386,235.265 41.2053,237.265 41.5,239.5C 40.5386,241.265 40.2053,243.265 40.5,245.5C 38.5473,251.556 37.5473,257.889 37.5,264.5C 37.1667,264.5 36.8333,264.5 36.5,264.5C 37.6173,252.076 39.4506,239.743 42,227.5C 42.4955,229.473 42.6621,231.473 42.5,233.5 Z"/></g>
<g><path style="opacity:0.004" fill="#0319d1" d="M 99.5,258.5 C 100.167,258.5 100.833,258.5 101.5,258.5C 101.027,259.906 100.027,260.573 98.5,260.5C 98.5,260.167 98.5,259.833 98.5,259.5C 99.1667,259.5 99.5,259.167 99.5,258.5 Z"/></g>
<g><path style="opacity:0.027" fill="#0329c4" d="M 435.5,258.5 C 436.209,259.404 437.209,259.737 438.5,259.5C 438.083,260.124 437.416,260.457 436.5,260.5C 429.584,259.423 429.251,258.756 435.5,258.5 Z"/></g>
<g><path style="opacity:0.004" fill="#0a28e5" d="M 362.5,260.5 C 362.5,260.833 362.5,261.167 362.5,261.5C 361.833,261.5 361.5,261.833 361.5,262.5C 360.833,262.5 360.167,262.5 359.5,262.5C 359.973,261.094 360.973,260.427 362.5,260.5 Z"/></g>
<g><path style="opacity:0.004" fill="#030fcc" d="M 96.5,260.5 C 97.1667,260.5 97.8333,260.5 98.5,260.5C 96.9148,262.982 94.9148,263.648 92.5,262.5C 93.4916,262.672 94.1583,262.338 94.5,261.5C 95.4916,261.672 96.1583,261.338 96.5,260.5 Z"/></g>
<g><path style="opacity:0.008" fill="#0823d7" d="M 152.5,260.5 C 153.833,261.167 154.833,262.167 155.5,263.5C 154.833,263.5 154.167,263.5 153.5,263.5C 153.5,262.833 153.167,262.5 152.5,262.5C 152.5,261.833 152.5,261.167 152.5,260.5 Z"/></g>
<g><path style="opacity:0.024" fill="#0f2b9b" d="M 209.5,259.5 C 209.833,259.5 210.167,259.5 210.5,259.5C 210.771,261.38 210.104,262.713 208.5,263.5C 208.5,262.833 208.5,262.167 208.5,261.5C 209.338,261.158 209.672,260.492 209.5,259.5 Z"/></g>
<g><path style="opacity:0.016" fill="#0f269b" d="M 408.5,264.5 C 407.957,264.44 407.624,264.107 407.5,263.5C 408.999,261.142 410.666,260.976 412.5,263C 410.942,263.21 409.609,263.71 408.5,264.5 Z"/></g>
<g><path style="opacity:0.012" fill="#0217c1" d="M 175.5,261.5 C 175.5,261.833 175.5,262.167 175.5,262.5C 174.833,262.5 174.5,262.833 174.5,263.5C 173.508,263.328 172.842,263.662 172.5,264.5C 171.5,264.5 170.5,264.5 169.5,264.5C 171.181,262.992 173.181,261.992 175.5,261.5 Z"/></g>
<g><path style="opacity:0.02" fill="#00309e" d="M 393.5,262.5 C 394.833,263.167 394.833,263.833 393.5,264.5C 393.5,263.833 393.5,263.167 393.5,262.5 Z"/></g>
<g><path style="opacity:0.008" fill="#0f07a9" d="M 120.5,261.5 C 120.215,264.829 120.882,267.829 122.5,270.5C 122.5,271.5 122.5,272.5 122.5,273.5C 119.685,269.789 119.019,265.789 120.5,261.5 Z"/></g>
<g><path style="opacity:0.02" fill="#0133a9" d="M 207.5,263.5 C 207.833,263.5 208.167,263.5 208.5,263.5C 208.672,264.492 208.338,265.158 207.5,265.5C 207.5,264.833 207.5,264.167 207.5,263.5 Z"/></g>
<g><path style="opacity:0.008" fill="#0000c5" d="M 242.5,261.5 C 242.663,263.857 242.497,266.19 242,268.5C 241.204,265.961 241.371,263.628 242.5,261.5 Z"/></g>
<g><path style="opacity:0.005" fill="#0318db" d="M 339.5,263.5 C 339.5,263.167 339.5,262.833 339.5,262.5C 345.356,264.758 351.356,265.092 357.5,263.5C 357.5,263.833 357.5,264.167 357.5,264.5C 356.508,264.328 355.842,264.662 355.5,265.5C 351.167,265.5 346.833,265.5 342.5,265.5C 342.158,264.662 341.492,264.328 340.5,264.5C 340.5,263.833 340.167,263.5 339.5,263.5 Z"/></g>
<g><path style="opacity:0.008" fill="#031ae1" d="M 392.5,264.5 C 392.833,264.5 393.167,264.5 393.5,264.5C 393.672,265.492 393.338,266.158 392.5,266.5C 392.5,265.833 392.5,265.167 392.5,264.5 Z"/></g>
<g><path style="opacity:0.016" fill="#062fb8" d="M 416.5,266.5 C 416.897,265.475 417.563,265.308 418.5,266C 417.906,266.464 417.239,266.631 416.5,266.5 Z"/></g>
<g><path style="opacity:0.008" fill="#01108d" d="M 206.5,265.5 C 206.833,265.5 207.167,265.5 207.5,265.5C 207.672,266.492 207.338,267.158 206.5,267.5C 206.5,266.833 206.5,266.167 206.5,265.5 Z"/></g>
<g><path style="opacity:0.02" fill="#003299" d="M 391.5,266.5 C 391.833,266.5 392.167,266.5 392.5,266.5C 392.315,267.17 391.981,267.17 391.5,266.5 Z"/></g>
<g><path style="opacity:0.016" fill="#003fbf" d="M 205.5,267.5 C 205.833,267.5 206.167,267.5 206.5,267.5C 206.315,268.17 205.981,268.17 205.5,267.5 Z"/></g>
<g><path style="opacity:0.02" fill="#1124a2" d="M 36.5,264.5 C 36.6621,266.527 36.4955,268.527 36,270.5C 35.2109,268.288 35.3775,266.288 36.5,264.5 Z"/></g>
<g><path style="opacity:0.012" fill="#0000c4" d="M 64.5,268.5 C 65.6225,270.288 65.7891,272.288 65,274.5C 64.5045,272.527 64.3379,270.527 64.5,268.5 Z"/></g>
<g><path style="opacity:0.02" fill="#0c23a4" d="M 441.5,268.5 C 440.508,268.328 439.842,268.662 439.5,269.5C 434.968,269.818 430.634,269.485 426.5,268.5C 430.514,268.666 434.514,268.499 438.5,268C 440.304,266.188 441.304,266.354 441.5,268.5 Z"/></g>
<g><path style="opacity:0.024" fill="#021db3" d="M 405.5,269.5 C 403.108,270.368 402.941,269.701 405,267.5C 405.464,268.094 405.631,268.761 405.5,269.5 Z"/></g>
<g><path style="opacity:0.004" fill="#1a0b5b" d="M 203.5,270.5 C 205.892,269.632 206.059,270.299 204,272.5C 203.536,271.906 203.369,271.239 203.5,270.5 Z"/></g>
<g><path style="opacity:0.012" fill="#1a0993" d="M 389.5,271.5 C 389.5,270.833 389.5,270.167 389.5,269.5C 392.187,268.939 392.187,269.606 389.5,271.5 Z"/></g>
<g><path style="opacity:0.012" fill="#0e109b" d="M 305.5,265.5 C 306.775,267.608 307.275,269.942 307,272.5C 305.798,270.323 305.298,267.989 305.5,265.5 Z"/></g>
<g><path style="opacity:0.016" fill="#161b9b" d="M 269.5,271.5 C 270.622,273.288 270.789,275.288 270,277.5C 269.505,275.527 269.338,273.527 269.5,271.5 Z"/></g>
<g><path style="opacity:0.016" fill="#0f04ab" d="M 240.5,269.5 C 241.622,271.288 241.789,273.288 241,275.5C 240.505,273.527 240.338,271.527 240.5,269.5 Z"/></g>
<g><path style="opacity:0.012" fill="#0218c7" d="M 388.5,271.5 C 388.833,271.5 389.167,271.5 389.5,271.5C 388.968,274.46 388.301,274.793 387.5,272.5C 388.167,272.5 388.5,272.167 388.5,271.5 Z"/></g>
<g><path style="opacity:0.006" fill="#0420da" d="M 470.5,271.5 C 471.853,273.128 471.519,274.462 469.5,275.5C 469.5,274.833 469.5,274.167 469.5,273.5C 470.338,273.158 470.672,272.492 470.5,271.5 Z"/></g>
<g><path style="opacity:0.024" fill="#0622b5" d="M 35.5,277.5 C 34.5386,279.265 34.2053,281.265 34.5,283.5C 33.1682,287.264 32.3349,291.264 32,295.5C 32.0792,287.423 33.0792,279.423 35,271.5C 35.4955,273.473 35.6621,275.473 35.5,277.5 Z"/></g>
<g><path style="opacity:0.02" fill="#0231ac" d="M 122.5,273.5 C 122.833,273.5 123.167,273.5 123.5,273.5C 123.5,274.167 123.5,274.833 123.5,275.5C 122.662,275.158 122.328,274.492 122.5,273.5 Z"/></g>
<g><path style="opacity:0.008" fill="#14146d" d="M 201.5,273.5 C 202.713,274.497 202.546,275.497 201,276.5C 200.536,275.906 200.369,275.239 200.5,274.5C 201.167,274.5 201.5,274.167 201.5,273.5 Z"/></g>
<g><path style="opacity:0.016" fill="#000c91" d="M 123.5,275.5 C 123.833,275.5 124.167,275.5 124.5,275.5C 124.5,276.167 124.5,276.833 124.5,277.5C 123.662,277.158 123.328,276.492 123.5,275.5 Z"/></g>
<g><path style="opacity:0.016" fill="#003fbf" d="M 384.5,276.5 C 385.833,277.167 385.833,277.167 384.5,276.5 Z"/></g>
<g><path style="opacity:0.012" fill="#00009b" d="M 468.5,275.5 C 468.833,275.5 469.167,275.5 469.5,275.5C 469.672,276.492 469.338,277.158 468.5,277.5C 468.5,276.833 468.5,276.167 468.5,275.5 Z"/></g>
<g><path style="opacity:0.012" fill="#0214aa" d="M 310.5,276.5 C 310.5,277.167 310.5,277.833 310.5,278.5C 309.167,277.833 309.167,277.167 310.5,276.5 Z"/></g>
<g><path style="opacity:0.004" fill="#031ae1" d="M 124.5,277.5 C 124.833,277.5 125.167,277.5 125.5,277.5C 125.167,280.167 124.833,280.167 124.5,277.5 Z"/></g>
<g><path style="opacity:0.024" fill="#002aaa" d="M 197.5,278.5 C 198.833,279.167 198.833,279.167 197.5,278.5 Z"/></g>
<g><path style="opacity:0.02" fill="#0032cc" d="M 310.5,278.5 C 310.833,278.5 311.167,278.5 311.5,278.5C 311.315,279.17 310.981,279.17 310.5,278.5 Z"/></g>
<g><path style="opacity:0.008" fill="#00008d" d="M 467.5,277.5 C 467.833,277.5 468.167,277.5 468.5,277.5C 468.167,280.167 467.833,280.167 467.5,277.5 Z"/></g>
<g><path style="opacity:0.024" fill="#002aaa" d="M 196.5,279.5 C 196.833,279.5 197.167,279.5 197.5,279.5C 197.315,280.17 196.981,280.17 196.5,279.5 Z"/></g>
<g><path style="opacity:0.024" fill="#0621b7" d="M 240.5,282.5 C 239.539,284.265 239.205,286.265 239.5,288.5C 238.683,290.969 238.183,293.635 238,296.5C 237.5,295.5 237,294.5 236.5,293.5C 237.88,287.89 239.047,282.223 240,276.5C 240.495,278.473 240.662,280.473 240.5,282.5 Z"/></g>
<g><path style="opacity:0.012" fill="#0108a3" d="M 383.5,277.5 C 383.833,277.5 384.167,277.5 384.5,277.5C 384.315,279.196 383.481,280.529 382,281.5C 381.536,280.906 381.369,280.239 381.5,279.5C 382.167,279.5 382.5,279.167 382.5,278.5C 383.167,278.5 383.5,278.167 383.5,277.5 Z"/></g>
<g><path style="opacity:0.024" fill="#002aaa" d="M 195.5,280.5 C 195.833,280.5 196.167,280.5 196.5,280.5C 196.315,281.17 195.981,281.17 195.5,280.5 Z"/></g>
<g><path style="opacity:0.012" fill="#0000aa" d="M 311.5,280.5 C 312.833,281.167 312.833,281.167 311.5,280.5 Z"/></g>
<g><path style="opacity:0.012" fill="#0000c5" d="M 127.5,280.5 C 127.631,281.239 127.464,281.906 127,282.5C 126.308,281.563 126.475,280.897 127.5,280.5 Z"/></g>
<g><path style="opacity:0.024" fill="#002aaa" d="M 194.5,281.5 C 194.833,281.5 195.167,281.5 195.5,281.5C 195.315,282.17 194.981,282.17 194.5,281.5 Z"/></g>
<g><path style="opacity:0.027" fill="#0118b9" d="M 399.5,281.5 C 397.108,282.368 396.941,281.701 399,279.5C 399.464,280.094 399.631,280.761 399.5,281.5 Z"/></g>
<g><path style="opacity:0.02" fill="#0032cc" d="M 193.5,282.5 C 193.833,282.5 194.167,282.5 194.5,282.5C 194.315,283.17 193.981,283.17 193.5,282.5 Z"/></g>
<g><path style="opacity:0.02" fill="#0032cc" d="M 192.5,283.5 C 192.833,283.5 193.167,283.5 193.5,283.5C 193.315,284.17 192.981,284.17 192.5,283.5 Z"/></g>
<g><path style="opacity:0.008" fill="#ff98ff" d="M 307.5,284.5 C 306.761,284.631 306.094,284.464 305.5,284C 306.579,283.044 307.745,282.211 309,281.5C 309.239,282.788 308.739,283.788 307.5,284.5 Z"/></g>
<g><path style="opacity:0.008" fill="#13149f" d="M 378.5,282.5 C 379.239,282.369 379.906,282.536 380.5,283C 379.167,284.333 377.833,285.667 376.5,287C 375.563,287.692 374.897,287.525 374.5,286.5C 375.167,286.5 375.5,286.167 375.5,285.5C 376.167,285.5 376.5,285.167 376.5,284.5C 377.167,284.5 377.5,284.167 377.5,283.5C 378.167,283.5 378.5,283.167 378.5,282.5 Z"/></g>
<g><path style="opacity:0.027" fill="#0023b6" d="M 463.5,283.5 C 464.833,284.167 464.833,284.167 463.5,283.5 Z"/></g>
<g><path style="opacity:0.024" fill="#002aaa" d="M 191.5,284.5 C 191.833,284.5 192.167,284.5 192.5,284.5C 192.315,285.17 191.981,285.17 191.5,284.5 Z"/></g>
<g><path style="opacity:0.02" fill="#0032cc" d="M 462.5,284.5 C 462.833,284.5 463.167,284.5 463.5,284.5C 463.315,285.17 462.981,285.17 462.5,284.5 Z"/></g>
<g><path style="opacity:0.007" fill="#0000e8" d="M 397.5,286.5 C 397.607,288.379 397.107,288.712 396,287.5C 395.368,284.125 395.868,283.791 397.5,286.5 Z"/></g>
<g><path style="opacity:0.004" fill="#0005d7" d="M 129.5,283.5 C 130.167,283.5 130.5,283.833 130.5,284.5C 131.167,284.5 131.5,284.833 131.5,285.5C 132.167,285.5 132.5,285.833 132.5,286.5C 133.167,286.5 133.5,286.833 133.5,287.5C 134.167,287.5 134.5,287.833 134.5,288.5C 134.103,289.525 133.437,289.692 132.5,289C 131.333,287.833 130.167,286.667 129,285.5C 128.308,284.563 128.475,283.897 129.5,283.5 Z"/></g>
<g><path style="opacity:0.96" fill="#ff9d00" d="M 307.5,284.5 C 309.573,285.3 311.24,286.633 312.5,288.5C 312.5,289.167 312.833,289.5 313.5,289.5C 314.167,290.833 315.167,291.833 316.5,292.5C 316.5,293.167 316.833,293.5 317.5,293.5C 320.498,295.179 323.165,297.179 325.5,299.5C 324.833,299.5 324.5,299.833 324.5,300.5C 323.833,300.5 323.5,300.833 323.5,301.5C 322.833,301.5 322.5,301.833 322.5,302.5C 321.508,302.328 320.842,302.662 320.5,303.5C 319.833,303.5 319.5,303.833 319.5,304.5C 318.833,304.5 318.5,304.833 318.5,305.5C 317.833,305.5 317.5,305.833 317.5,306.5C 316.508,306.328 315.842,306.662 315.5,307.5C 314.833,307.5 314.5,307.833 314.5,308.5C 312.77,309.026 311.436,310.026 310.5,311.5C 309.833,311.5 309.5,311.833 309.5,312.5C 308.508,312.328 307.842,312.662 307.5,313.5C 306.833,313.5 306.5,313.833 306.5,314.5C 305.508,314.328 304.842,314.662 304.5,315.5C 303.833,315.5 303.5,315.833 303.5,316.5C 301.973,316.427 300.973,317.094 300.5,318.5C 298.973,318.427 297.973,319.094 297.5,320.5C 296.508,320.328 295.842,320.662 295.5,321.5C 294.833,321.5 294.5,321.833 294.5,322.5C 291.669,323.079 289.336,324.412 287.5,326.5C 286.508,326.328 285.842,326.662 285.5,327.5C 284.508,327.328 283.842,327.662 283.5,328.5C 282.508,328.328 281.842,328.662 281.5,329.5C 278.702,330.65 276.035,331.983 273.5,333.5C 272.508,333.328 271.842,333.662 271.5,334.5C 270.508,334.328 269.842,334.662 269.5,335.5C 268.508,335.328 267.842,335.662 267.5,336.5C 266.508,336.328 265.842,336.662 265.5,337.5C 262.557,337.98 259.89,338.98 257.5,340.5C 256.508,340.328 255.842,340.662 255.5,341.5C 254.209,341.263 253.209,341.596 252.5,342.5C 251.508,342.328 250.842,342.662 250.5,343.5C 249.209,343.263 248.209,343.596 247.5,344.5C 242.562,345.231 237.895,346.565 233.5,348.5C 231.901,348.232 230.568,348.566 229.5,349.5C 225.922,349.549 222.589,350.215 219.5,351.5C 201.373,354.339 183.373,353.673 165.5,349.5C 162.449,347.648 159.116,346.314 155.5,345.5C 148.891,341.224 142.891,336.224 137.5,330.5C 137.5,329.833 137.167,329.5 136.5,329.5C 136.068,328.29 135.401,327.29 134.5,326.5C 134.008,324.181 133.008,322.181 131.5,320.5C 131.672,319.508 131.338,318.842 130.5,318.5C 129.597,314.72 128.931,310.886 128.5,307C 128.833,305.5 129.167,304 129.5,302.5C 130.182,303.243 130.849,303.909 131.5,304.5C 131.5,305.167 131.833,305.5 132.5,305.5C 132.932,306.71 133.599,307.71 134.5,308.5C 134.5,309.167 134.833,309.5 135.5,309.5C 135.5,310.167 135.833,310.5 136.5,310.5C 136.5,311.167 136.833,311.5 137.5,311.5C 137.5,312.167 137.833,312.5 138.5,312.5C 138.973,313.906 139.973,314.573 141.5,314.5C 141.5,315.167 141.833,315.5 142.5,315.5C 142.973,316.906 143.973,317.573 145.5,317.5C 146.514,318.674 147.847,319.34 149.5,319.5C 149.842,320.338 150.508,320.672 151.5,320.5C 151.842,321.338 152.508,321.672 153.5,321.5C 154.209,322.404 155.209,322.737 156.5,322.5C 156.842,323.338 157.508,323.672 158.5,323.5C 160.838,325.04 163.505,325.706 166.5,325.5C 181.246,328.905 196.246,329.405 211.5,327C 215.392,326.581 219.058,325.748 222.5,324.5C 225.495,324.706 228.162,324.04 230.5,322.5C 232.099,322.768 233.432,322.434 234.5,321.5C 235.791,321.737 236.791,321.404 237.5,320.5C 240.152,320.59 242.485,319.924 244.5,318.5C 245.791,318.737 246.791,318.404 247.5,317.5C 248.492,317.672 249.158,317.338 249.5,316.5C 250.791,316.737 251.791,316.404 252.5,315.5C 253.492,315.672 254.158,315.338 254.5,314.5C 256.553,314.598 258.22,313.931 259.5,312.5C 262.241,312.293 264.574,311.293 266.5,309.5C 267.492,309.672 268.158,309.338 268.5,308.5C 269.492,308.672 270.158,308.338 270.5,307.5C 271.492,307.672 272.158,307.338 272.5,306.5C 274.819,306.008 276.819,305.008 278.5,303.5C 282.836,301.668 286.836,299.335 290.5,296.5C 291.167,296.5 291.5,296.167 291.5,295.5C 292.492,295.672 293.158,295.338 293.5,294.5C 294.167,294.5 294.5,294.167 294.5,293.5C 296.434,292.89 298.101,291.89 299.5,290.5C 300.167,290.5 300.5,290.167 300.5,289.5C 301.167,289.5 301.5,289.167 301.5,288.5C 303.777,287.551 305.777,286.218 307.5,284.5 Z M 138.5,312.5 C 139.167,312.5 139.833,312.5 140.5,312.5C 140.5,313.167 140.833,313.5 141.5,313.5C 141.5,313.833 141.5,314.167 141.5,314.5C 139.973,314.573 138.973,313.906 138.5,312.5 Z M 256.5,312.5 C 257.5,312.5 258.5,312.5 259.5,312.5C 258.22,313.931 256.553,314.598 254.5,314.5C 255.167,313.833 255.833,313.167 256.5,312.5 Z M 142.5,315.5 C 143.167,315.5 143.833,315.5 144.5,315.5C 144.833,316.167 145.167,316.833 145.5,317.5C 143.973,317.573 142.973,316.906 142.5,315.5 Z M 240.5,318.5 C 241.833,318.5 243.167,318.5 244.5,318.5C 242.485,319.924 240.152,320.59 237.5,320.5C 238.5,319.833 239.5,319.167 240.5,318.5 Z M 226.5,322.5 C 227.833,322.5 229.167,322.5 230.5,322.5C 228.162,324.04 225.495,324.706 222.5,324.5C 223.833,323.833 225.167,323.167 226.5,322.5 Z"/></g>
<g><path style="opacity:0.004" fill="#181b45" d="M 461.5,285.5 C 461.833,285.5 462.167,285.5 462.5,285.5C 462.5,287.5 461.5,288.5 459.5,288.5C 459.5,288.167 459.5,287.833 459.5,287.5C 460.167,287.5 460.5,287.167 460.5,286.5C 461.167,286.5 461.5,286.167 461.5,285.5 Z"/></g>
<g><path style="opacity:0.016" fill="#0000bf" d="M 186.5,288.5 C 187.833,289.167 187.833,289.167 186.5,288.5 Z"/></g>
<g><path style="opacity:0.02" fill="#ff9ffe" d="M 301.5,288.5 C 300.833,288.5 300.5,288.833 300.5,289.5C 299.833,289.5 299.5,289.833 299.5,290.5C 297.408,289.714 297.741,288.714 300.5,287.5C 301.107,287.624 301.44,287.957 301.5,288.5 Z"/></g>
<g><path style="opacity:0.024" fill="#ff97fd" d="M 313.5,289.5 C 312.833,289.5 312.5,289.167 312.5,288.5C 312.747,286.025 313.413,286.025 314.5,288.5C 314.376,289.107 314.043,289.44 313.5,289.5 Z"/></g>
<g><path style="opacity:0.016" fill="#003fbf" d="M 458.5,288.5 C 458.833,288.5 459.167,288.5 459.5,288.5C 459.315,289.17 458.981,289.17 458.5,288.5 Z"/></g>
<g><path style="opacity:0.024" fill="#0c25bc" d="M 60.5,295.5 C 61.7714,288.873 62.9381,282.206 64,275.5C 64.105,281.882 63.4383,288.215 62,294.5C 61.6174,295.056 61.1174,295.389 60.5,295.5 Z"/></g>
<g><path style="opacity:0.008" fill="#041994" d="M 184.5,290.5 C 184.5,290.167 184.5,289.833 184.5,289.5C 185.167,289.5 185.833,289.5 186.5,289.5C 186.158,290.338 185.492,290.672 184.5,290.5 Z"/></g>
<g><path style="opacity:0.02" fill="#0032cc" d="M 370.5,289.5 C 371.833,290.167 371.833,290.167 370.5,289.5 Z"/></g>
<g><path style="opacity:0.006" fill="#0211dc" d="M 456.5,289.5 C 457.167,289.5 457.833,289.5 458.5,289.5C 457.779,291.382 456.779,291.715 455.5,290.5C 456.167,290.5 456.5,290.167 456.5,289.5 Z"/></g>
<g><path style="opacity:0.027" fill="#0023b6" d="M 183.5,290.5 C 183.833,290.5 184.167,290.5 184.5,290.5C 184.315,291.17 183.981,291.17 183.5,290.5 Z"/></g>
<g><path style="opacity:0.012" fill="#0732dc" d="M 322.5,290.5 C 323.167,290.5 323.5,290.833 323.5,291.5C 323.5,291.833 323.5,292.167 323.5,292.5C 320.54,291.968 320.207,291.301 322.5,290.5 Z"/></g>
<g><path style="opacity:0.008" fill="#031a9b" d="M 138.5,291.5 C 139.167,291.5 139.5,291.833 139.5,292.5C 139.5,292.833 139.5,293.167 139.5,293.5C 136.54,292.968 136.207,292.301 138.5,291.5 Z"/></g>
<g><path style="opacity:0.016" fill="#013bc3" d="M 181.5,292.5 C 181.5,292.167 181.5,291.833 181.5,291.5C 182.167,291.5 182.833,291.5 183.5,291.5C 183.158,292.338 182.492,292.672 181.5,292.5 Z"/></g>
<g><path style="opacity:0.02" fill="#062ac8" d="M 267.5,285.5 C 268.595,288.717 268.429,292.05 267,295.5C 266.828,292.174 266.995,288.841 267.5,285.5 Z"/></g>
<g><path style="opacity:0.004" fill="#ffcefe" d="M 294.5,293.5 C 293.833,293.5 293.5,293.833 293.5,294.5C 292.833,294.5 292.167,294.5 291.5,294.5C 292.221,292.618 293.221,292.285 294.5,293.5 Z"/></g>
<g><path style="opacity:0.012" fill="#ffa6fc" d="M 316.5,292.5 C 317.497,291.287 318.497,291.454 319.5,293C 318.906,293.464 318.239,293.631 317.5,293.5C 316.833,293.5 316.5,293.167 316.5,292.5 Z"/></g>
<g><path style="opacity:0.02" fill="#12169e" d="M 405.5,291.5 C 405.842,292.338 406.508,292.672 407.5,292.5C 410.209,294.132 409.875,294.632 406.5,294C 405.167,293.333 403.833,292.667 402.5,292C 403.448,291.517 404.448,291.351 405.5,291.5 Z"/></g>
<g><path style="opacity:0.008" fill="#0000e1" d="M 139.5,293.5 C 140.167,293.5 140.833,293.5 141.5,293.5C 141.5,293.833 141.5,294.167 141.5,294.5C 140.508,294.672 139.842,294.338 139.5,293.5 Z"/></g>
<g><path style="opacity:0.012" fill="#1612b2" d="M 179.5,292.5 C 180.167,292.5 180.833,292.5 181.5,292.5C 180.082,294.708 178.082,295.542 175.5,295C 176.416,294.722 177.082,294.222 177.5,293.5C 178.492,293.672 179.158,293.338 179.5,292.5 Z"/></g>
<g><path style="opacity:0.012" fill="#150e76" d="M 323.5,292.5 C 324.167,292.5 324.833,292.5 325.5,292.5C 326.061,295.187 325.394,295.187 323.5,292.5 Z"/></g>
<g><path style="opacity:0.012" fill="#0000c5" d="M 450.5,294.5 C 450.5,294.167 450.5,293.833 450.5,293.5C 453.167,293.833 453.167,294.167 450.5,294.5 Z"/></g>
<g><path style="opacity:0.006" fill="#0000ff" d="M 141.5,294.5 C 142.239,294.369 142.906,294.536 143.5,295C 142.563,295.692 141.897,295.525 141.5,294.5 Z"/></g>
<g><path style="opacity:0.004" fill="#0000e1" d="M 450.5,294.5 C 450.103,295.525 449.437,295.692 448.5,295C 449.094,294.536 449.761,294.369 450.5,294.5 Z"/></g>
<g><path style="opacity:0.012" fill="#0000aa" d="M 59.5,295.5 C 59.8333,295.5 60.1667,295.5 60.5,295.5C 60.3147,296.17 59.9813,296.17 59.5,295.5 Z"/></g>
<g><path style="opacity:0.016" fill="#062fb8" d="M 144.5,296.5 C 144.897,295.475 145.563,295.308 146.5,296C 145.906,296.464 145.239,296.631 144.5,296.5 Z"/></g>
<g><path style="opacity:0.016" fill="#0728be" d="M 171.5,296.5 C 171.5,296.167 171.5,295.833 171.5,295.5C 175.5,295.833 175.5,296.167 171.5,296.5 Z"/></g>
<g><path style="opacity:0.004" fill="#ffccff" d="M 291.5,294.5 C 291.5,294.833 291.5,295.167 291.5,295.5C 290.833,295.5 290.5,295.833 290.5,296.5C 288.207,295.699 288.54,295.032 291.5,294.5 Z"/></g>
<g><path style="opacity:0.016" fill="#003fbf" d="M 58.5,296.5 C 58.8333,296.5 59.1667,296.5 59.5,296.5C 59.3147,297.17 58.9813,297.17 58.5,296.5 Z"/></g>
<g><path style="opacity:0.012" fill="#0000aa" d="M 264.5,296.5 C 265.833,297.167 265.833,297.167 264.5,296.5 Z"/></g>
<g><path style="opacity:0.027" fill="#0c25a8" d="M 167.5,296.5 C 168.833,296.5 170.167,296.5 171.5,296.5C 167.797,298.055 163.797,298.722 159.5,298.5C 156.5,298.333 153.5,298.167 150.5,298C 156.348,297.827 162.015,297.327 167.5,296.5 Z"/></g>
<g><path style="opacity:0.027" fill="#0723b9" d="M 336.5,296.5 C 341.833,297.833 347.167,297.833 352.5,296.5C 354.199,296.34 355.866,296.506 357.5,297C 349.153,298.964 340.82,298.964 332.5,297C 333.793,296.51 335.127,296.343 336.5,296.5 Z"/></g>
<g><path style="opacity:0.004" fill="#0824e6" d="M 58.5,297.5 C 58.0825,298.222 57.4158,298.722 56.5,299C 49.0598,299.928 41.7265,299.594 34.5,298C 42.4931,297.5 50.4931,297.334 58.5,297.5 Z"/></g>
<g><path style="opacity:0.012" fill="#0003b1" d="M 262.5,297.5 C 263.167,297.5 263.833,297.5 264.5,297.5C 264.389,298.117 264.056,298.617 263.5,299C 256.167,299.667 248.833,299.667 241.5,299C 248.679,298.829 255.679,298.329 262.5,297.5 Z"/></g>
<g><path style="opacity:0.004" fill="#ffc1f7" d="M 326.5,299.5 C 326.369,298.761 326.536,298.094 327,297.5C 327.692,298.437 327.525,299.103 326.5,299.5 Z"/></g>
<g><path style="opacity:0.024" fill="#0326b9" d="M 420.5,296.5 C 426.09,298.55 431.756,298.883 437.5,297.5C 439.199,297.34 440.866,297.506 442.5,298C 433.743,300.137 425.077,299.803 416.5,297C 417.793,296.51 419.127,296.343 420.5,296.5 Z"/></g>
<g><path style="opacity:0.008" fill="#fe8000" d="M 325.5,299.5 C 325.833,299.5 326.167,299.5 326.5,299.5C 326.315,300.17 325.981,300.17 325.5,299.5 Z"/></g>
<g><path style="opacity:0.004" fill="#ff7ffa" d="M 128.5,299.5 C 129.289,299.783 129.956,300.283 130.5,301C 129.184,301.528 128.517,301.028 128.5,299.5 Z"/></g>
<g><path style="opacity:0.012" fill="#feaa00" d="M 324.5,300.5 C 324.833,300.5 325.167,300.5 325.5,300.5C 325.315,301.17 324.981,301.17 324.5,300.5 Z"/></g>
<g><path style="opacity:0.02" fill="#fe9900" d="M 323.5,301.5 C 323.833,301.5 324.167,301.5 324.5,301.5C 324.315,302.17 323.981,302.17 323.5,301.5 Z"/></g>
<g><path style="opacity:0.012" fill="#ffb3ff" d="M 278.5,303.5 C 276.025,303.253 276.025,302.587 278.5,301.5C 279.463,301.97 279.463,302.637 278.5,303.5 Z"/></g>
<g><path style="opacity:0.02" fill="#fe9900" d="M 322.5,302.5 C 322.833,302.5 323.167,302.5 323.5,302.5C 323.315,303.17 322.981,303.17 322.5,302.5 Z"/></g>
<g><path style="opacity:0.004" fill="#ff7ef8" d="M 126.5,305.5 C 125.475,305.103 125.308,304.437 126,303.5C 126.464,304.094 126.631,304.761 126.5,305.5 Z"/></g>
<g><path style="opacity:0.02" fill="#ffadff" d="M 132.5,305.5 C 131.833,305.5 131.5,305.167 131.5,304.5C 131.747,302.025 132.413,302.025 133.5,304.5C 133.376,305.107 133.043,305.44 132.5,305.5 Z"/></g>
<g><path style="opacity:0.012" fill="#ffacfe" d="M 320.5,303.5 C 321.167,303.5 321.833,303.5 322.5,303.5C 321.738,305.262 320.404,306.262 318.5,306.5C 318.5,306.167 318.5,305.833 318.5,305.5C 319.167,305.5 319.5,305.167 319.5,304.5C 320.167,304.5 320.5,304.167 320.5,303.5 Z"/></g>
<g><path style="opacity:0.02" fill="#fe9900" d="M 317.5,306.5 C 317.833,306.5 318.167,306.5 318.5,306.5C 318.315,307.17 317.981,307.17 317.5,306.5 Z"/></g>
<g><path style="opacity:0.018" fill="#ff9afe" d="M 272.5,306.5 C 271.508,306.328 270.842,306.662 270.5,307.5C 269.508,307.328 268.842,307.662 268.5,308.5C 267.508,308.328 266.842,308.662 266.5,309.5C 264.621,309.607 264.288,309.107 265.5,308C 267.274,307.03 269.107,306.196 271,305.5C 271.765,305.57 272.265,305.903 272.5,306.5 Z"/></g>
<g><path style="opacity:0.008" fill="#ffacfe" d="M 315.5,308.5 C 315.5,308.167 315.5,307.833 315.5,307.5C 316.167,307.5 316.833,307.5 317.5,307.5C 317.158,308.338 316.492,308.672 315.5,308.5 Z"/></g>
<g><path style="opacity:0.02" fill="#ff9ffe" d="M 137.5,310.5 C 137.167,310.5 136.833,310.5 136.5,310.5C 135.833,310.5 135.5,310.167 135.5,309.5C 134.833,309.5 134.5,309.167 134.5,308.5C 134.369,307.761 134.536,307.094 135,306.5C 136.481,307.471 137.315,308.804 137.5,310.5 Z"/></g>
<g><path style="opacity:0.02" fill="#fe9900" d="M 314.5,308.5 C 314.833,308.5 315.167,308.5 315.5,308.5C 315.315,309.17 314.981,309.17 314.5,308.5 Z"/></g>
<g><path style="opacity:0.008" fill="#ff92fe" d="M 126.5,305.5 C 127.525,308.974 128.192,312.64 128.5,316.5C 126.783,313.155 126.116,309.489 126.5,305.5 Z"/></g>
<g><path style="opacity:0.008" fill="#ffa7ff" d="M 137.5,311.5 C 137.5,311.167 137.5,310.833 137.5,310.5C 139.027,310.427 140.027,311.094 140.5,312.5C 139.833,312.5 139.167,312.5 138.5,312.5C 137.833,312.5 137.5,312.167 137.5,311.5 Z"/></g>
<g><path style="opacity:0.004" fill="#ff7bfc" d="M 310.5,311.5 C 312.793,312.301 312.46,312.968 309.5,313.5C 309.5,313.167 309.5,312.833 309.5,312.5C 310.167,312.5 310.5,312.167 310.5,311.5 Z"/></g>
<g><path style="opacity:0.016" fill="#ff85ff" d="M 256.5,312.5 C 255.833,313.167 255.167,313.833 254.5,314.5C 253.508,314.328 252.842,314.662 252.5,315.5C 251.5,315.5 250.5,315.5 249.5,315.5C 251.426,313.707 253.759,312.707 256.5,312.5 Z"/></g>
<g><path style="opacity:0.008" fill="#fe8000" d="M 307.5,314.5 C 307.5,314.167 307.5,313.833 307.5,313.5C 308.167,313.5 308.833,313.5 309.5,313.5C 309.158,314.338 308.492,314.672 307.5,314.5 Z"/></g>
<g><path style="opacity:0.012" fill="#ff8efe" d="M 141.5,314.5 C 141.5,314.167 141.5,313.833 141.5,313.5C 143.027,313.427 144.027,314.094 144.5,315.5C 143.833,315.5 143.167,315.5 142.5,315.5C 141.833,315.5 141.5,315.167 141.5,314.5 Z"/></g>
<g><path style="opacity:0.02" fill="#fe9900" d="M 306.5,314.5 C 306.833,314.5 307.167,314.5 307.5,314.5C 307.315,315.17 306.981,315.17 306.5,314.5 Z"/></g>
<g><path style="opacity:0.008" fill="#ff9800" d="M 304.5,315.5 C 305.167,315.5 305.833,315.5 306.5,315.5C 305.779,317.382 304.779,317.715 303.5,316.5C 304.167,316.5 304.5,316.167 304.5,315.5 Z"/></g>
<g><path style="opacity:0.02" fill="#ffa0fe" d="M 249.5,315.5 C 249.5,315.833 249.5,316.167 249.5,316.5C 248.508,316.328 247.842,316.662 247.5,317.5C 246.448,317.649 245.448,317.483 244.5,317C 246.025,315.991 247.692,315.491 249.5,315.5 Z"/></g>
<g><path style="opacity:0.027" fill="#ffaefe" d="M 128.5,316.5 C 129.167,317.167 129.833,317.833 130.5,318.5C 130.328,319.492 130.662,320.158 131.5,320.5C 131.607,322.379 131.107,322.712 130,321.5C 128.991,319.975 128.491,318.308 128.5,316.5 Z"/></g>
<g><path style="opacity:0.02" fill="#ffa0ff" d="M 149.5,319.5 C 152.092,318.597 154.426,319.264 156.5,321.5C 155.5,321.5 154.5,321.5 153.5,321.5C 153.158,320.662 152.492,320.328 151.5,320.5C 151.158,319.662 150.492,319.328 149.5,319.5 Z"/></g>
<g><path style="opacity:0.004" fill="#ff73fd" d="M 300.5,318.5 C 302.975,318.747 302.975,319.413 300.5,320.5C 299.537,320.03 299.537,319.363 300.5,318.5 Z"/></g>
<g><path style="opacity:0.016" fill="#febf00" d="M 297.5,320.5 C 298.833,321.167 298.833,321.167 297.5,320.5 Z"/></g>
<g><path style="opacity:0.02" fill="#ff98ff" d="M 240.5,318.5 C 239.5,319.167 238.5,319.833 237.5,320.5C 236.209,320.263 235.209,320.596 234.5,321.5C 232.901,321.232 231.568,321.566 230.5,322.5C 229.167,322.5 227.833,322.5 226.5,322.5C 230.895,320.565 235.562,319.231 240.5,318.5 Z"/></g>
<g><path style="opacity:0.008" fill="#ffd6fe" d="M 295.5,322.5 C 295.5,322.167 295.5,321.833 295.5,321.5C 296.167,321.5 296.833,321.5 297.5,321.5C 297.158,322.338 296.492,322.672 295.5,322.5 Z"/></g>
<g><path style="opacity:0.024" fill="#ff91fe" d="M 156.5,322.5 C 156.5,322.167 156.5,321.833 156.5,321.5C 158.786,321.595 160.786,322.262 162.5,323.5C 161.167,323.5 159.833,323.5 158.5,323.5C 158.158,322.662 157.492,322.328 156.5,322.5 Z"/></g>
<g><path style="opacity:0.027" fill="#fe9200" d="M 294.5,322.5 C 294.833,322.5 295.167,322.5 295.5,322.5C 295.315,323.17 294.981,323.17 294.5,322.5 Z"/></g>
<g><path style="opacity:0.016" fill="#fe8000" d="M 131.5,323.5 C 132.833,324.167 132.833,324.167 131.5,323.5 Z"/></g>
<g><path style="opacity:0.012" fill="#ffb5ff" d="M 162.5,323.5 C 163.552,323.351 164.552,323.517 165.5,324C 164.251,324.74 163.251,324.573 162.5,323.5 Z"/></g>
<g><path style="opacity:0.004" fill="#ff74fd" d="M 134.5,326.5 C 134.253,328.975 133.587,328.975 132.5,326.5C 132.97,325.537 133.637,325.537 134.5,326.5 Z"/></g>
<g><path style="opacity:0.02" fill="#ff9fff" d="M 166.5,325.5 C 167.449,324.848 168.615,324.514 170,324.5C 176.638,325.46 183.304,326.126 190,326.5C 198.838,325.635 207.671,325.135 216.5,325C 199.855,328.099 183.188,328.266 166.5,325.5 Z"/></g>
<g><path style="opacity:0.004" fill="#ffe3ff" d="M 287.5,327.5 C 287.5,327.167 287.5,326.833 287.5,326.5C 290.167,326.833 290.167,327.167 287.5,327.5 Z"/></g>
<g><path style="opacity:0.004" fill="#ffddff" d="M 285.5,328.5 C 285.5,328.167 285.5,327.833 285.5,327.5C 286.167,327.5 286.833,327.5 287.5,327.5C 287.158,328.338 286.492,328.672 285.5,328.5 Z"/></g>
<g><path style="opacity:0.016" fill="#ffb200" d="M 283.5,329.5 C 283.5,329.167 283.5,328.833 283.5,328.5C 284.167,328.5 284.833,328.5 285.5,328.5C 285.158,329.338 284.492,329.672 283.5,329.5 Z"/></g>
<g><path style="opacity:0.012" fill="#ffa100" d="M 136.5,329.5 C 137.167,329.5 137.5,329.833 137.5,330.5C 137.253,332.975 136.587,332.975 135.5,330.5C 135.624,329.893 135.957,329.56 136.5,329.5 Z"/></g>
<g><path style="opacity:0.008" fill="#ff9cff" d="M 281.5,329.5 C 282.167,329.5 282.833,329.5 283.5,329.5C 281.606,332.187 280.939,332.187 281.5,329.5 Z"/></g>
<g><path style="opacity:0.008" fill="#ff8e00" d="M 276.5,333.5 C 276.897,332.475 277.563,332.308 278.5,333C 277.906,333.464 277.239,333.631 276.5,333.5 Z"/></g>
<g><path style="opacity:0.012" fill="#ffc6ff" d="M 273.5,334.5 C 273.5,334.167 273.5,333.833 273.5,333.5C 276.167,333.833 276.167,334.167 273.5,334.5 Z"/></g>
<g><path style="opacity:0.018" fill="#ffb8fe" d="M 271.5,334.5 C 272.167,334.5 272.833,334.5 273.5,334.5C 270.767,337.367 267.434,338.867 263.5,339C 264.416,338.722 265.082,338.222 265.5,337.5C 266.492,337.672 267.158,337.338 267.5,336.5C 268.492,336.672 269.158,336.338 269.5,335.5C 270.492,335.672 271.158,335.338 271.5,334.5 Z"/></g>
<g><path style="opacity:0.004" fill="#ff83fb" d="M 257.5,340.5 C 258.552,340.351 259.552,340.517 260.5,341C 258.975,342.009 257.308,342.509 255.5,342.5C 255.5,342.167 255.5,341.833 255.5,341.5C 256.492,341.672 257.158,341.338 257.5,340.5 Z"/></g>
<g><path style="opacity:0.02" fill="#ffa600" d="M 252.5,342.5 C 253.5,342.5 254.5,342.5 255.5,342.5C 254.22,343.931 252.553,344.598 250.5,344.5C 250.5,344.167 250.5,343.833 250.5,343.5C 251.492,343.672 252.158,343.338 252.5,342.5 Z"/></g>
<g><path style="opacity:0.012" fill="#ffc6ff" d="M 155.5,345.5 C 155.5,345.833 155.5,346.167 155.5,346.5C 152.833,346.167 152.833,345.833 155.5,345.5 Z"/></g>
<g><path style="opacity:0.008" fill="#ff79ff" d="M 247.5,344.5 C 248.5,344.5 249.5,344.5 250.5,344.5C 248.881,346.238 246.881,346.738 244.5,346C 245.737,345.768 246.737,345.268 247.5,344.5 Z"/></g>
<g><path style="opacity:0.016" fill="#ff66ff" d="M 155.5,346.5 C 156.239,346.369 156.906,346.536 157.5,347C 156.563,347.692 155.897,347.525 155.5,346.5 Z"/></g>
<g><path style="opacity:0.018" fill="#ff94fe" d="M 165.5,349.5 C 167.562,350.776 169.896,351.61 172.5,352C 168.947,352.598 165.614,351.931 162.5,350C 163.448,349.517 164.448,349.351 165.5,349.5 Z"/></g>
<g><path style="opacity:0.008" fill="#ff88fe" d="M 233.5,348.5 C 234.873,348.343 236.207,348.51 237.5,349C 229.397,351.962 221.063,353.295 212.5,353C 215.036,352.814 217.369,352.314 219.5,351.5C 223.122,351.678 226.456,351.011 229.5,349.5C 231.099,349.768 232.432,349.434 233.5,348.5 Z"/></g>
<g><path style="opacity:0.012" fill="#ffb300" d="M 200.5,354.5 C 203.976,353.357 207.642,353.19 211.5,354C 207.848,354.499 204.182,354.665 200.5,354.5 Z"/></g>
<g><path style="opacity:0.008" fill="#ff8bfd" d="M 200.5,354.5 C 198.866,355.161 197.033,355.494 195,355.5C 189.83,355.033 184.663,354.533 179.5,354C 186.499,353.772 193.499,353.939 200.5,354.5 Z"/></g>
</svg>
