<svg width="114" height="127" xmlns="http://www.w3.org/2000/svg" version="1.1">
    <!-- Generator: Sketch 51.2 (57519) - http://www.bohemiancoding.com/sketch -->
    <title>logo/横/原色</title>
    <desc>Created with Sketch.</desc>

    <g>
        <title>Layer 1</title>
        <path stroke="null" fill="#194EA0" id="Fill-19"
            d="m100.747,80.72487c0.07,3.813 -2.54,8.498 -5.828,10.466c0,0 -30.846,19.446 -31.342,19.759c-6.558,4.127 -14.422,-0.463 -14.426,-0.464c-13.008,-6.55 -28.743,-15.841 -28.743,-15.841c-4.856,-2.704 -7.898,-9.294 -7.894,-13.014c0,-0.273 0.277,-36.045 0.277,-36.045c0.28,-5.384 3.293,-8.857 5.829,-10.465c0,0 22.002,-14.041 30.583,-19.368c3.16,-1.961 10.365,-2.843 15.22,-0.139c0,0 16.183,8.485 28.601,16.096c0.003,0.002 8.046,4.273 7.99,12.019l-0.267,36.996zm2.523,-57.896c-15.927,-9.763 -36.686,-20.648 -36.686,-20.648c-6.228,-3.469 -15.469,-2.336 -19.523,0.18c-11.006,6.833 -39.228,24.843 -39.228,24.843c-3.253,2.063 -7.117,6.516 -7.476,13.423c0,0 -0.357,45.884 -0.357,46.236c-0.004,4.77 3.898,13.223 10.126,16.692c0,0 20.183,11.916 36.87,20.317c0.004,0.003 10.092,5.889 18.502,0.597c0.637,-0.401 40.203,-25.346 40.203,-25.346c4.218,-2.523 7.565,-8.533 7.476,-13.423l0.342,-47.454c0.072,-9.938 -10.244,-15.415 -10.249,-15.417z" />
        <path stroke="null" fill="#ED1C27" id="Combined-Shape"
            d="m52.0912,82.74347l0,18.328c-0.819,-0.339 -1.322,-0.627 -1.323,-0.627c-10.25,-5.161 -22.649,-12.482 -22.649,-12.482c-3.826,-2.131 -6.224,-7.323 -6.221,-10.254c0.001,-0.178 0.15,-19.386 0.202,-26.104l15.453,7.989l0,9.73c0,3.11 1.659,5.984 4.353,7.54l10.185,5.88zm-11.522,-32.1182l-15.626,-8.077c0.581,-0.615 1.188,-1.121 1.767,-1.489c0,0 17.337,-11.064 24.099,-15.261c2.49,-1.546 8.167,-2.241 11.993,-0.11c0,0 12.752,6.686 22.537,12.683c0.001,0.001 3.073,1.639 4.925,4.693l-16.392,8.473c-0.632,-0.737 -1.378,-1.386 -2.245,-1.887l-10.508,-6.066c-2.693,-1.555 -6.012,-1.555 -8.706,0l-10.507,6.066c-0.485,0.281 -0.923,0.616 -1.337,0.975zm35.4112,10.3496l15.618,-8.073c-0.174,24.09 -0.174,24.093 -0.174,24.093c0.055,3.003 -2.001,6.696 -4.592,8.246c0,0 -24.307,15.323 -24.698,15.569c-0.228,0.144 -0.461,0.259 -0.693,0.377l0,-18.442l10.186,-5.881c2.693,-1.556 4.353,-4.43 4.353,-7.54l0,-8.349z" />
    </g>
</svg>