<?xml version="1.0" encoding="UTF-8"?>
<!DOCTYPE svg PUBLIC "-//W3C//DTD SVG 1.1//EN" "http://www.w3.org/Graphics/SVG/1.1/DTD/svg11.dtd">
<svg xmlns="http://www.w3.org/2000/svg" version="1.1" width="512px" height="512px" style="shape-rendering:geometricPrecision; text-rendering:geometricPrecision; image-rendering:optimizeQuality; fill-rule:evenodd; clip-rule:evenodd" xmlns:xlink="http://www.w3.org/1999/xlink">
<g><path style="opacity:0.016" fill="#ff9bff" d="M 319.5,156.5 C 314.349,155.673 309.016,155.173 303.5,155C 311.542,154.277 319.542,154.61 327.5,156C 324.854,156.497 322.187,156.664 319.5,156.5 Z"/></g>
<g><path style="opacity:0.004" fill="#feff00" d="M 300.5,157.5 C 301.833,158.167 301.833,158.167 300.5,157.5 Z"/></g>
<g><path style="opacity:0.02" fill="#ff9dff" d="M 337.5,158.5 C 336.167,158.5 334.833,158.5 333.5,158.5C 332.048,157.698 330.382,157.198 328.5,157C 331.817,156.219 334.817,156.719 337.5,158.5 Z"/></g>
<g><path style="opacity:0.013" fill="#ff7fff" d="M 337.5,159.5 C 337.5,159.167 337.5,158.833 337.5,158.5C 339.898,158.259 341.898,158.926 343.5,160.5C 342.5,160.5 341.5,160.5 340.5,160.5C 339.791,159.596 338.791,159.263 337.5,159.5 Z"/></g>
<g><path style="opacity:0.02" fill="#ff97ff" d="M 310.5,160.5 C 312.265,161.461 314.265,161.795 316.5,161.5C 314.372,162.629 312.039,162.796 309.5,162C 307.5,161.667 305.5,161.333 303.5,161C 305.81,160.503 308.143,160.337 310.5,160.5 Z"/></g>
<g><path style="opacity:0.016" fill="#fe8000" d="M 343.5,161.5 C 343.5,161.167 343.5,160.833 343.5,160.5C 346.167,160.833 346.167,161.167 343.5,161.5 Z"/></g>
<g><path style="opacity:0.996" fill="#ff9d00" d="M 319.5,156.5 C 323.964,157.644 328.63,158.31 333.5,158.5C 334.568,159.434 335.901,159.768 337.5,159.5C 338.209,160.404 339.209,160.737 340.5,160.5C 341.209,161.404 342.209,161.737 343.5,161.5C 353.426,165.295 361.759,171.295 368.5,179.5C 368.5,180.167 368.833,180.5 369.5,180.5C 370.487,182.473 371.487,184.473 372.5,186.5C 370.257,187.474 367.924,187.808 365.5,187.5C 361.34,186.689 357.006,186.689 352.5,187.5C 352.068,186.29 351.401,185.29 350.5,184.5C 348.291,179.619 344.957,175.619 340.5,172.5C 340.5,171.833 340.167,171.5 339.5,171.5C 336.279,168.722 332.612,166.722 328.5,165.5C 325.004,162.952 321.004,161.619 316.5,161.5C 314.735,160.539 312.735,160.205 310.5,160.5C 307.972,159.834 305.306,159.168 302.5,158.5C 302.709,157.914 303.043,157.414 303.5,157C 308.823,156.501 314.156,156.334 319.5,156.5 Z"/></g>
<g><path style="opacity:0.008" fill="#ff9600" d="M 346.5,162.5 C 346.897,161.475 347.563,161.308 348.5,162C 347.906,162.464 347.239,162.631 346.5,162.5 Z"/></g>
<g><path style="opacity:0.02" fill="#ff9000" d="M 328.5,165.5 C 328.5,165.833 328.5,166.167 328.5,166.5C 325.833,166.167 325.833,165.833 328.5,165.5 Z"/></g>
<g><path style="opacity:0.02" fill="#ff9000" d="M 328.5,166.5 C 329.239,166.369 329.906,166.536 330.5,167C 329.563,167.692 328.897,167.525 328.5,166.5 Z"/></g>
<g><path style="opacity:0.024" fill="#ffa6fc" d="M 339.5,171.5 C 340.167,171.5 340.5,171.833 340.5,172.5C 339.503,173.713 338.503,173.546 337.5,172C 338.094,171.536 338.761,171.369 339.5,171.5 Z"/></g>
<g><path style="opacity:0.02" fill="#ff9efc" d="M 369.5,180.5 C 368.833,180.5 368.5,180.167 368.5,179.5C 368.747,177.025 369.413,177.025 370.5,179.5C 370.376,180.107 370.043,180.44 369.5,180.5 Z"/></g>
<g><path style="opacity:0.008" fill="#ff8800" d="M 350.5,184.5 C 350.631,185.239 350.464,185.906 350,186.5C 349.308,185.563 349.475,184.897 350.5,184.5 Z"/></g>
<g><path style="opacity:0.004" fill="#feff00" d="M 352.5,187.5 C 352.5,187.833 352.5,188.167 352.5,188.5C 351.83,188.019 351.83,187.685 352.5,187.5 Z"/></g>
<g><path style="opacity:0.012" fill="#ff8eff" d="M 365.5,187.5 C 363.712,188.622 361.712,188.789 359.5,188C 361.473,187.505 363.473,187.338 365.5,187.5 Z"/></g>
<g><path style="opacity:0.02" fill="#ff93fd" d="M 352.5,188.5 C 354.527,188.338 356.527,188.505 358.5,189C 356.288,189.789 354.288,189.622 352.5,188.5 Z"/></g>
<g><path style="opacity:0.02" fill="#ff9700" d="M 366.5,189.5 C 368.288,188.378 370.288,188.211 372.5,189C 370.527,189.495 368.527,189.662 366.5,189.5 Z"/></g>
<g><path style="opacity:0.011" fill="#fefffe" d="M 47.5,192.5 C 61.9942,191.339 76.6609,191.172 91.5,192C 76.8371,192.5 62.1705,192.667 47.5,192.5 Z"/></g>
<g><path style="opacity:0.012" fill="#fefffe" d="M 96.5,194.5 C 95.3915,193.71 94.0581,193.21 92.5,193C 94.9712,192.294 97.3046,192.627 99.5,194C 98.552,194.483 97.552,194.649 96.5,194.5 Z"/></g>
<g><path style="opacity:0.012" fill="#fefffe" d="M 162.5,194.5 C 159.402,194.587 159.068,194.087 161.5,193C 163.5,192.333 165.5,192.333 167.5,193C 165.618,193.198 163.952,193.698 162.5,194.5 Z"/></g>
<g><path style="opacity:0.012" fill="#fefffe" d="M 441.5,194.5 C 438.402,194.587 438.068,194.087 440.5,193C 442.5,192.333 444.5,192.333 446.5,193C 444.618,193.198 442.952,193.698 441.5,194.5 Z"/></g>
<g><path style="opacity:0.949" fill="#fefffe" d="M 96.5,194.5 C 99.1013,195.801 101.768,197.134 104.5,198.5C 104.5,199.167 104.833,199.5 105.5,199.5C 105.5,200.167 105.833,200.5 106.5,200.5C 106.5,201.167 106.833,201.5 107.5,201.5C 107.5,202.167 107.833,202.5 108.5,202.5C 111.285,206.545 113.285,210.878 114.5,215.5C 114.5,219.833 114.5,224.167 114.5,228.5C 113.343,231.273 112.676,234.273 112.5,237.5C 111.596,238.209 111.263,239.209 111.5,240.5C 110.596,241.209 110.263,242.209 110.5,243.5C 109.662,243.842 109.328,244.508 109.5,245.5C 108.833,245.5 108.5,245.833 108.5,246.5C 107.662,246.842 107.328,247.508 107.5,248.5C 106.833,248.5 106.5,248.833 106.5,249.5C 105.662,249.842 105.328,250.508 105.5,251.5C 104.833,251.5 104.5,251.833 104.5,252.5C 103.833,252.5 103.5,252.833 103.5,253.5C 102.833,253.5 102.5,253.833 102.5,254.5C 101.833,254.5 101.5,254.833 101.5,255.5C 99.246,256.124 97.5794,257.457 96.5,259.5C 95.5084,259.328 94.8417,259.662 94.5,260.5C 84.1527,263.922 73.486,265.422 62.5,265C 61.5939,266.699 61.2606,268.533 61.5,270.5C 60.5318,272.607 60.1984,274.941 60.5,277.5C 59.5386,279.265 59.2053,281.265 59.5,283.5C 58.6761,287.918 57.3427,292.251 55.5,296.5C 48.224,297.465 40.8907,297.799 33.5,297.5C 31.461,296.089 30.461,294.089 30.5,291.5C 31.4614,289.735 31.7947,287.735 31.5,285.5C 33.1357,279.397 34.1357,273.064 34.5,266.5C 35.8955,262.409 36.5621,258.076 36.5,253.5C 37.4614,251.735 37.7947,249.735 37.5,247.5C 39.7943,237.06 41.4609,226.393 42.5,215.5C 43.4682,213.393 43.8016,211.059 43.5,208.5C 44.5522,204.348 45.3855,200.015 46,195.5C 46.5,195 47,194.5 47.5,194C 63.8541,193.243 80.1875,193.41 96.5,194.5 Z M 69.5,220.5 C 69.5,222.833 69.5,225.167 69.5,227.5C 68.5386,229.265 68.2053,231.265 68.5,233.5C 67.5386,235.265 67.2053,237.265 67.5,239.5C 71.8333,239.5 76.1667,239.5 80.5,239.5C 76.03,240.486 71.3633,240.819 66.5,240.5C 66.6557,233.578 67.6557,226.911 69.5,220.5 Z M 83.5,221.5 C 86.075,223.845 87.075,226.845 86.5,230.5C 85.4625,231.93 84.7959,233.597 84.5,235.5C 83.1283,236.512 81.795,237.512 80.5,238.5C 76.5,238.5 72.5,238.5 68.5,238.5C 68.5,236.833 68.5,235.167 68.5,233.5C 69.4614,231.735 69.7947,229.735 69.5,227.5C 70.4614,225.735 70.7947,223.735 70.5,221.5C 74.8333,221.5 79.1667,221.5 83.5,221.5 Z M 87.5,224.5 C 88.8647,227.959 88.5314,231.292 86.5,234.5C 86.5,233.167 86.5,231.833 86.5,230.5C 87.4614,228.735 87.7947,226.735 87.5,224.5 Z"/></g>
<g><path style="opacity:0.987" fill="#fbfbfd" d="M 188.5,195.5 C 188.842,196.338 189.508,196.672 190.5,196.5C 191.514,197.674 192.847,198.34 194.5,198.5C 194.5,199.167 194.833,199.5 195.5,199.5C 199.876,202.874 203.542,206.874 206.5,211.5C 206.427,213.027 207.094,214.027 208.5,214.5C 208.98,217.443 209.98,220.11 211.5,222.5C 212.313,230.138 212.646,237.804 212.5,245.5C 211.549,246.919 211.216,248.585 211.5,250.5C 210.566,251.568 210.232,252.901 210.5,254.5C 209.596,255.209 209.263,256.209 209.5,257.5C 208.662,257.842 208.328,258.508 208.5,259.5C 207.596,260.209 207.263,261.209 207.5,262.5C 206.662,262.842 206.328,263.508 206.5,264.5C 205.662,264.842 205.328,265.508 205.5,266.5C 204.833,266.5 204.5,266.833 204.5,267.5C 203.662,267.842 203.328,268.508 203.5,269.5C 202.662,269.842 202.328,270.508 202.5,271.5C 201.833,271.5 201.5,271.833 201.5,272.5C 200.833,272.5 200.5,272.833 200.5,273.5C 199.662,273.842 199.328,274.508 199.5,275.5C 198.833,275.5 198.5,275.833 198.5,276.5C 197.833,276.5 197.5,276.833 197.5,277.5C 196.833,277.5 196.5,277.833 196.5,278.5C 195.833,278.5 195.5,278.833 195.5,279.5C 194.833,279.5 194.5,279.833 194.5,280.5C 193.833,280.5 193.5,280.833 193.5,281.5C 192.833,281.5 192.5,281.833 192.5,282.5C 191.833,282.5 191.5,282.833 191.5,283.5C 190.833,283.5 190.5,283.833 190.5,284.5C 189.833,284.5 189.5,284.833 189.5,285.5C 188.833,285.5 188.5,285.833 188.5,286.5C 187.833,286.5 187.5,286.833 187.5,287.5C 186.508,287.328 185.842,287.662 185.5,288.5C 184.833,288.5 184.5,288.833 184.5,289.5C 183.508,289.328 182.842,289.662 182.5,290.5C 181.833,290.5 181.5,290.833 181.5,291.5C 180.508,291.328 179.842,291.662 179.5,292.5C 178.508,292.328 177.842,292.662 177.5,293.5C 176.209,293.263 175.209,293.596 174.5,294.5C 173.508,294.328 172.842,294.662 172.5,295.5C 170.901,295.232 169.568,295.566 168.5,296.5C 166.265,296.205 164.265,296.539 162.5,297.5C 159.5,297.5 156.5,297.5 153.5,297.5C 151.735,296.539 149.735,296.205 147.5,296.5C 146.791,295.596 145.791,295.263 144.5,295.5C 142.351,294.264 140.018,293.264 137.5,292.5C 137.5,291.833 137.167,291.5 136.5,291.5C 134.858,290.197 133.191,288.864 131.5,287.5C 131.5,286.833 131.167,286.5 130.5,286.5C 128.488,283.795 126.488,281.128 124.5,278.5C 124.672,277.508 124.338,276.842 123.5,276.5C 123.672,275.508 123.338,274.842 122.5,274.5C 122.672,273.508 122.338,272.842 121.5,272.5C 121.279,269.933 120.612,267.599 119.5,265.5C 117.411,247.597 121.411,231.263 131.5,216.5C 132.167,216.5 132.5,216.167 132.5,215.5C 139.041,207.241 147.041,200.907 156.5,196.5C 158.786,196.405 160.786,195.738 162.5,194.5C 171.238,193.022 179.905,193.355 188.5,195.5 Z M 173.5,221.5 C 170.941,221.198 168.607,221.532 166.5,222.5C 165.167,222.5 163.833,222.5 162.5,222.5C 166.044,220.431 169.71,220.098 173.5,221.5 Z M 166.5,222.5 C 170.658,222.332 174.658,222.998 178.5,224.5C 179.167,225.833 180.167,226.833 181.5,227.5C 181.66,229.153 182.326,230.486 183.5,231.5C 183.5,236.167 183.5,240.833 183.5,245.5C 182.331,248.341 181.331,251.341 180.5,254.5C 179.094,254.973 178.427,255.973 178.5,257.5C 177.833,257.5 177.5,257.833 177.5,258.5C 176.833,258.5 176.5,258.833 176.5,259.5C 175.833,259.5 175.5,259.833 175.5,260.5C 174.833,260.5 174.5,260.833 174.5,261.5C 172.973,261.427 171.973,262.094 171.5,263.5C 170.209,263.263 169.209,263.596 168.5,264.5C 164.5,264.5 160.5,264.5 156.5,264.5C 153.576,263.247 151.243,261.247 149.5,258.5C 148.725,253.203 148.392,247.87 148.5,242.5C 149.833,241.167 149.833,239.833 148.5,238.5C 148.263,237.209 148.596,236.209 149.5,235.5C 149.369,236.239 149.536,236.906 150,237.5C 151.122,235.593 151.955,233.593 152.5,231.5C 153.167,231.5 153.5,231.167 153.5,230.5C 155.167,229.5 156.5,228.167 157.5,226.5C 158.167,226.5 158.5,226.167 158.5,225.5C 161.257,224.488 163.924,223.488 166.5,222.5 Z M 158.5,224.5 C 158.5,224.833 158.5,225.167 158.5,225.5C 157.833,225.5 157.5,225.833 157.5,226.5C 156.833,226.5 156.167,226.5 155.5,226.5C 155.973,225.094 156.973,224.427 158.5,224.5 Z M 153.5,228.5 C 153.5,229.167 153.5,229.833 153.5,230.5C 152.833,230.5 152.5,230.833 152.5,231.5C 152.167,231.5 151.833,231.5 151.5,231.5C 151.427,229.973 152.094,228.973 153.5,228.5 Z M 184.5,231.5 C 185.164,233.81 185.497,236.31 185.5,239C 185.696,242.805 185.03,246.305 183.5,249.5C 183.5,248.167 183.5,246.833 183.5,245.5C 184.486,241.03 184.819,236.363 184.5,231.5 Z M 148.5,238.5 C 148.5,239.833 148.5,241.167 148.5,242.5C 147.515,246.634 147.182,250.968 147.5,255.5C 146.837,253.359 146.503,251.025 146.5,248.5C 146.315,244.859 146.981,241.526 148.5,238.5 Z M 177.5,258.5 C 177.833,258.5 178.167,258.5 178.5,258.5C 178.5,260.5 177.5,261.5 175.5,261.5C 175.5,261.167 175.5,260.833 175.5,260.5C 176.167,260.5 176.5,260.167 176.5,259.5C 177.167,259.5 177.5,259.167 177.5,258.5 Z M 168.5,265.5 C 166.657,266.283 164.657,266.95 162.5,267.5C 161.893,267.376 161.56,267.043 161.5,266.5C 163.717,265.631 166.05,265.298 168.5,265.5 Z"/></g>
<g><path style="opacity:0.941" fill="#fefffe" d="M 307.5,202.5 C 306.336,207.942 305.003,213.442 303.5,219C 294.814,219.168 286.148,219.668 277.5,220.5C 276.626,222.747 276.292,225.08 276.5,227.5C 273.872,239.939 271.872,252.606 270.5,265.5C 269.539,267.265 269.205,269.265 269.5,271.5C 268.105,275.591 267.438,279.924 267.5,284.5C 266.539,286.265 266.205,288.265 266.5,290.5C 265.926,292.788 264.926,294.955 263.5,297C 255.833,297.667 248.167,297.667 240.5,297C 239.695,295.887 239.028,294.721 238.5,293.5C 239.461,291.735 239.795,289.735 239.5,287.5C 241.236,281.411 242.236,275.078 242.5,268.5C 243.461,266.735 243.795,264.735 243.5,262.5C 245.974,249.499 248.307,236.332 250.5,223C 250.472,221.93 250.139,221.097 249.5,220.5C 241.677,219.671 233.677,219.171 225.5,219C 224.903,217.938 224.57,216.772 224.5,215.5C 225.604,210.214 226.27,204.881 226.5,199.5C 227.131,197.552 228.131,195.719 229.5,194C 254.833,193.333 280.167,193.333 305.5,194C 307.321,196.456 307.988,199.289 307.5,202.5 Z"/></g>
<g><path style="opacity:0.97" fill="#fdfdfe" d="M 383.5,199.5 C 383.5,200.167 383.833,200.5 384.5,200.5C 392.933,208.03 398.267,217.363 400.5,228.5C 400.717,236.915 400.05,245.248 398.5,253.5C 397.596,254.209 397.263,255.209 397.5,256.5C 396.596,257.209 396.263,258.209 396.5,259.5C 395.662,259.842 395.328,260.508 395.5,261.5C 394.662,261.842 394.328,262.508 394.5,263.5C 393.662,263.842 393.328,264.508 393.5,265.5C 392.662,265.842 392.328,266.508 392.5,267.5C 391.662,267.842 391.328,268.508 391.5,269.5C 390.833,269.5 390.5,269.833 390.5,270.5C 389.662,270.842 389.328,271.508 389.5,272.5C 388.833,272.5 388.5,272.833 388.5,273.5C 387.833,273.5 387.5,273.833 387.5,274.5C 386.662,274.842 386.328,275.508 386.5,276.5C 385.833,276.5 385.5,276.833 385.5,277.5C 384.833,277.5 384.5,277.833 384.5,278.5C 383.833,278.5 383.5,278.833 383.5,279.5C 382.833,279.5 382.5,279.833 382.5,280.5C 381.833,280.5 381.5,280.833 381.5,281.5C 380.833,281.5 380.5,281.833 380.5,282.5C 379.833,282.5 379.5,282.833 379.5,283.5C 378.833,283.5 378.5,283.833 378.5,284.5C 377.833,284.5 377.5,284.833 377.5,285.5C 376.833,285.5 376.5,285.833 376.5,286.5C 375.508,286.328 374.842,286.662 374.5,287.5C 372.205,288.475 370.205,289.808 368.5,291.5C 366.181,291.992 364.181,292.992 362.5,294.5C 353.64,297.243 344.64,297.91 335.5,296.5C 333.698,295.542 331.698,294.875 329.5,294.5C 329.158,293.662 328.492,293.328 327.5,293.5C 325.795,291.808 323.795,290.475 321.5,289.5C 321.5,288.833 321.167,288.5 320.5,288.5C 319.833,287.167 318.833,286.167 317.5,285.5C 317.5,284.833 317.167,284.5 316.5,284.5C 315.066,281.953 313.4,279.619 311.5,277.5C 309.347,271.869 307.68,266.202 306.5,260.5C 306.5,256.833 306.5,253.167 306.5,249.5C 307.468,247.393 307.802,245.059 307.5,242.5C 308.434,241.432 308.768,240.099 308.5,238.5C 310.997,231.17 314.33,224.17 318.5,217.5C 319.167,217.5 319.5,217.167 319.5,216.5C 320.803,214.858 322.136,213.191 323.5,211.5C 324.167,211.5 324.5,211.167 324.5,210.5C 325.167,210.5 325.5,210.167 325.5,209.5C 326.167,209.5 326.5,209.167 326.5,208.5C 327.167,208.5 327.5,208.167 327.5,207.5C 328.167,207.5 328.5,207.167 328.5,206.5C 330.191,205.136 331.858,203.803 333.5,202.5C 334.167,202.5 334.5,202.167 334.5,201.5C 350.524,191.889 366.858,191.223 383.5,199.5 Z M 361.5,221.5 C 358.941,221.198 356.607,221.532 354.5,222.5C 353.167,222.5 351.833,222.5 350.5,222.5C 354.044,220.431 357.71,220.098 361.5,221.5 Z M 354.5,222.5 C 358.658,222.332 362.658,222.998 366.5,224.5C 366.5,225.167 366.833,225.5 367.5,225.5C 367.5,226.167 367.833,226.5 368.5,226.5C 368.5,227.167 368.833,227.5 369.5,227.5C 369.796,229.403 370.463,231.07 371.5,232.5C 371.5,236.5 371.5,240.5 371.5,244.5C 370.549,245.919 370.216,247.585 370.5,249.5C 369.662,249.842 369.328,250.508 369.5,251.5C 368.596,252.209 368.263,253.209 368.5,254.5C 367.833,254.5 367.5,254.833 367.5,255.5C 365.863,257.475 364.196,259.475 362.5,261.5C 360.973,261.427 359.973,262.094 359.5,263.5C 358.209,263.263 357.209,263.596 356.5,264.5C 351.453,264.663 346.453,264.329 341.5,263.5C 341.5,262.833 341.167,262.5 340.5,262.5C 340.5,261.833 340.167,261.5 339.5,261.5C 339.5,260.833 339.167,260.5 338.5,260.5C 337.284,257.129 336.284,253.795 335.5,250.5C 335.5,249.5 335.5,248.5 335.5,247.5C 336.461,245.735 336.795,243.735 336.5,241.5C 337.924,239.485 338.59,237.152 338.5,234.5C 339.906,234.027 340.573,233.027 340.5,231.5C 344.139,226.854 348.806,223.854 354.5,222.5 Z M 366.5,224.5 C 366.5,224.167 366.5,223.833 366.5,223.5C 368.833,223.833 370.167,225.167 370.5,227.5C 370.167,227.5 369.833,227.5 369.5,227.5C 368.833,227.5 368.5,227.167 368.5,226.5C 367.833,226.5 367.5,226.167 367.5,225.5C 366.833,225.5 366.5,225.167 366.5,224.5 Z M 371.5,229.5 C 372.222,229.918 372.722,230.584 373,231.5C 373.167,233.833 373.333,236.167 373.5,238.5C 373.637,242.447 372.97,246.114 371.5,249.5C 371.5,247.833 371.5,246.167 371.5,244.5C 372.833,240.5 372.833,236.5 371.5,232.5C 371.5,231.5 371.5,230.5 371.5,229.5 Z M 336.5,237.5 C 336.5,238.833 336.5,240.167 336.5,241.5C 335.539,243.265 335.205,245.265 335.5,247.5C 335.167,247.5 334.833,247.5 334.5,247.5C 334.159,243.84 334.825,240.507 336.5,237.5 Z M 334.5,247.5 C 334.263,248.791 334.596,249.791 335.5,250.5C 335.5,252.5 335.5,254.5 335.5,256.5C 334.596,254.362 333.929,252.029 333.5,249.5C 333.543,248.584 333.876,247.917 334.5,247.5 Z M 370.5,249.5 C 370.833,249.5 371.167,249.5 371.5,249.5C 371.598,251.553 370.931,253.22 369.5,254.5C 369.5,253.5 369.5,252.5 369.5,251.5C 370.338,251.158 370.672,250.492 370.5,249.5 Z M 368.5,254.5 C 368.833,254.5 369.167,254.5 369.5,254.5C 369.573,256.027 368.906,257.027 367.5,257.5C 367.5,256.833 367.5,256.167 367.5,255.5C 368.167,255.5 368.5,255.167 368.5,254.5 Z M 337.5,260.5 C 337.833,260.5 338.167,260.5 338.5,260.5C 339.167,260.5 339.5,260.833 339.5,261.5C 340.167,261.5 340.5,261.833 340.5,262.5C 341.167,262.5 341.5,262.833 341.5,263.5C 341.5,263.833 341.5,264.167 341.5,264.5C 339.167,264.167 337.833,262.833 337.5,260.5 Z M 343.5,265.5 C 347.833,266.833 352.167,266.833 356.5,265.5C 352.167,268.167 347.833,268.167 343.5,265.5 Z"/></g>
<g><path style="opacity:0.018" fill="#fefffe" d="M 373.5,194.5 C 373.897,193.475 374.563,193.308 375.5,194C 374.906,194.464 374.239,194.631 373.5,194.5 Z"/></g>
<g><path style="opacity:0.95" fill="#fefffe" d="M 467.5,195.5 C 468.209,196.404 469.209,196.737 470.5,196.5C 472.214,197.738 474.214,198.405 476.5,198.5C 476.842,199.338 477.508,199.672 478.5,199.5C 479.141,200.482 479.807,201.482 480.5,202.5C 479.754,203.736 479.421,205.07 479.5,206.5C 477.98,208.89 476.98,211.557 476.5,214.5C 475.596,215.209 475.263,216.209 475.5,217.5C 474.596,218.209 474.263,219.209 474.5,220.5C 473.662,220.842 473.328,221.508 473.5,222.5C 472.508,222.328 471.842,222.662 471.5,223.5C 470.5,223.5 469.5,223.5 468.5,223.5C 468.158,222.662 467.492,222.328 466.5,222.5C 463.855,220.69 460.855,219.69 457.5,219.5C 453.391,217.297 449.391,217.297 445.5,219.5C 444.209,219.263 443.209,219.596 442.5,220.5C 441.833,220.5 441.5,220.833 441.5,221.5C 440.662,221.842 440.328,222.508 440.5,223.5C 439.167,224.833 439.167,226.167 440.5,227.5C 440.5,228.167 440.833,228.5 441.5,228.5C 442.568,229.434 443.901,229.768 445.5,229.5C 472.216,235.591 480.549,251.591 470.5,277.5C 469.833,277.5 469.5,277.833 469.5,278.5C 468.662,278.842 468.328,279.508 468.5,280.5C 467.833,280.5 467.5,280.833 467.5,281.5C 466.662,281.842 466.328,282.508 466.5,283.5C 465.833,283.5 465.5,283.833 465.5,284.5C 464.833,284.5 464.5,284.833 464.5,285.5C 463.833,285.5 463.5,285.833 463.5,286.5C 462.833,286.5 462.5,286.833 462.5,287.5C 461.833,287.5 461.5,287.833 461.5,288.5C 460.508,288.328 459.842,288.662 459.5,289.5C 458.833,289.5 458.5,289.833 458.5,290.5C 457.508,290.328 456.842,290.662 456.5,291.5C 455.833,291.5 455.5,291.833 455.5,292.5C 454.508,292.328 453.842,292.662 453.5,293.5C 452.508,293.328 451.842,293.662 451.5,294.5C 443.045,297.072 434.378,298.072 425.5,297.5C 424.081,296.549 422.415,296.216 420.5,296.5C 416.775,294.653 412.775,293.319 408.5,292.5C 408.158,291.662 407.492,291.328 406.5,291.5C 403.469,290.64 401.135,288.807 399.5,286C 400.914,284.007 401.914,281.84 402.5,279.5C 403.338,279.158 403.672,278.492 403.5,277.5C 404.338,277.158 404.672,276.492 404.5,275.5C 405.338,275.158 405.672,274.492 405.5,273.5C 406.338,273.158 406.672,272.492 406.5,271.5C 407.338,271.158 407.672,270.492 407.5,269.5C 408.338,269.158 408.672,268.492 408.5,267.5C 409.234,266.071 410.401,265.071 412,264.5C 414.895,265.409 417.728,266.409 420.5,267.5C 421.209,268.404 422.209,268.737 423.5,268.5C 424.209,269.404 425.209,269.737 426.5,269.5C 431.861,272.007 437.194,272.007 442.5,269.5C 443.496,269.586 444.329,269.252 445,268.5C 445.796,265.961 445.629,263.628 444.5,261.5C 444.027,260.094 443.027,259.427 441.5,259.5C 440.791,258.596 439.791,258.263 438.5,258.5C 437.081,257.549 435.415,257.216 433.5,257.5C 415.884,252.988 409.05,241.654 413,223.5C 417.314,208.686 426.814,199.019 441.5,194.5C 450.227,193.106 458.894,193.439 467.5,195.5 Z M 457.5,219.5 C 453.5,219.5 449.5,219.5 445.5,219.5C 449.391,217.297 453.391,217.297 457.5,219.5 Z M 426.5,269.5 C 431.849,270.616 437.183,270.616 442.5,269.5C 437.194,272.007 431.861,272.007 426.5,269.5 Z"/></g>
<g><path style="opacity:0.01" fill="#fefffe" d="M 156.5,196.5 C 152.779,196.207 152.945,195.541 157,194.5C 157.5,194.667 158,194.833 158.5,195C 157.584,195.278 156.918,195.778 156.5,196.5 Z"/></g>
<g><path style="opacity:0.012" fill="#fefffe" d="M 308.5,202.5 C 308.336,199.813 308.503,197.146 309,194.5C 309.374,195.416 309.874,196.25 310.5,197C 309.891,198.948 309.224,200.782 308.5,202.5 Z"/></g>
<g><path style="opacity:0.012" fill="#fefffe" d="M 376.5,195.5 C 376.897,194.475 377.563,194.308 378.5,195C 377.906,195.464 377.239,195.631 376.5,195.5 Z"/></g>
<g><path style="opacity:0.011" fill="#fefffe" d="M 467.5,195.5 C 469.435,194.291 471.435,194.458 473.5,196C 472.552,196.483 471.552,196.649 470.5,196.5C 469.791,195.596 468.791,195.263 467.5,195.5 Z"/></g>
<g><path style="opacity:0.014" fill="#d5d4e4" d="M 188.5,195.5 C 189.849,194.203 191.182,194.37 192.5,196C 191.906,196.464 191.239,196.631 190.5,196.5C 190.158,195.662 189.492,195.328 188.5,195.5 Z"/></g>
<g><path style="opacity:0.012" fill="#fefffe" d="M 226.5,199.5 C 225.691,201.292 225.191,203.292 225,205.5C 224.299,202.072 224.632,198.738 226,195.5C 226.49,196.793 226.657,198.127 226.5,199.5 Z"/></g>
<g><path style="opacity:0.008" fill="#fefffe" d="M 104.5,198.5 C 106.664,197.882 108.33,198.882 109.5,201.5C 109.376,202.107 109.043,202.44 108.5,202.5C 107.833,202.5 107.5,202.167 107.5,201.5C 106.833,201.5 106.5,201.167 106.5,200.5C 105.833,200.5 105.5,200.167 105.5,199.5C 104.833,199.5 104.5,199.167 104.5,198.5 Z"/></g>
<g><path style="opacity:0.009" fill="#fefffe" d="M 476.5,198.5 C 477.849,197.203 479.182,197.37 480.5,199C 479.906,199.464 479.239,199.631 478.5,199.5C 478.158,198.662 477.492,198.328 476.5,198.5 Z"/></g>
<g><path style="opacity:0.008" fill="#afccff" d="M 194.5,198.5 C 195.497,197.287 196.497,197.454 197.5,199C 196.906,199.464 196.239,199.631 195.5,199.5C 194.833,199.5 194.5,199.167 194.5,198.5 Z"/></g>
<g><path style="opacity:0.009" fill="#fefffe" d="M 383.5,199.5 C 384.497,198.287 385.497,198.454 386.5,200C 385.906,200.464 385.239,200.631 384.5,200.5C 383.833,200.5 383.5,200.167 383.5,199.5 Z"/></g>
<g><path style="opacity:0.012" fill="#fefffe" d="M 43.5,208.5 C 42.5318,210.607 42.1984,212.941 42.5,215.5C 41.6909,217.292 41.1909,219.292 41,221.5C 40.9099,214.789 41.5765,208.122 43,201.5C 43.4966,203.81 43.6633,206.143 43.5,208.5 Z"/></g>
<g><path style="opacity:0.01" fill="#dfdfdf" d="M 334.5,201.5 C 333.833,201.5 333.5,201.833 333.5,202.5C 331.025,202.253 331.025,201.587 333.5,200.5C 334.107,200.624 334.44,200.957 334.5,201.5 Z"/></g>
<g><path style="opacity:0.012" fill="#fefffe" d="M 481.5,201.5 C 482.525,201.897 482.692,202.563 482,203.5C 481.536,202.906 481.369,202.239 481.5,201.5 Z"/></g>
<g><path style="opacity:0.012" fill="#fefffe" d="M 307.5,202.5 C 307.833,202.5 308.167,202.5 308.5,202.5C 308.167,210.5 307.833,210.5 307.5,202.5 Z"/></g>
<g><path style="opacity:0.011" fill="#fefffe" d="M 479.5,206.5 C 480.222,206.082 480.722,205.416 481,204.5C 481.52,206.289 481.187,207.956 480,209.5C 479.517,208.552 479.351,207.552 479.5,206.5 Z"/></g>
<g><path style="opacity:0.02" fill="#dbc4ff" d="M 328.5,206.5 C 327.833,206.5 327.5,206.833 327.5,207.5C 327.167,207.5 326.833,207.5 326.5,207.5C 326.711,205.576 327.377,205.243 328.5,206.5 Z"/></g>
<g><path style="opacity:0.016" fill="#fefffe" d="M 223.5,211.5 C 223.34,209.801 223.506,208.134 224,206.5C 224.78,208.387 224.613,210.054 223.5,211.5 Z"/></g>
<g><path style="opacity:0.012" fill="#fefffe" d="M 326.5,207.5 C 326.5,207.833 326.5,208.167 326.5,208.5C 325.833,208.5 325.5,208.833 325.5,209.5C 325.167,209.5 324.833,209.5 324.5,209.5C 324.5,208.167 325.167,207.5 326.5,207.5 Z"/></g>
<g><path style="opacity:0.012" fill="#fefffe" d="M 207.5,211.5 C 207.167,211.5 206.833,211.5 206.5,211.5C 206.833,208.833 207.167,208.833 207.5,211.5 Z"/></g>
<g><path style="opacity:0.016" fill="#b8b8b8" d="M 324.5,209.5 C 324.5,209.833 324.5,210.167 324.5,210.5C 323.833,210.5 323.5,210.833 323.5,211.5C 322.243,210.377 322.576,209.711 324.5,209.5 Z"/></g>
<g><path style="opacity:0.011" fill="#fefffe" d="M 114.5,228.5 C 115.833,224.167 115.833,219.833 114.5,215.5C 114.457,211.107 114.957,210.774 116,214.5C 116.774,221.224 116.441,227.89 115,234.5C 114.505,232.527 114.338,230.527 114.5,228.5 Z"/></g>
<g><path style="opacity:0.016" fill="#fefffe" d="M 207.5,211.5 C 208.833,212.167 208.833,212.167 207.5,211.5 Z"/></g>
<g><path style="opacity:0.012" fill="#fefffe" d="M 223.5,211.5 C 223.663,213.857 223.497,216.19 223,218.5C 222.204,215.961 222.371,213.628 223.5,211.5 Z"/></g>
<g><path style="opacity:0.011" fill="#fefffe" d="M 476.5,217.5 C 476.5,216.5 476.5,215.5 476.5,214.5C 477.222,214.082 477.722,213.416 478,212.5C 478.599,214.535 478.099,216.201 476.5,217.5 Z"/></g>
<g><path style="opacity:0.01" fill="#fefffe" d="M 132.5,215.5 C 131.833,215.5 131.5,215.833 131.5,216.5C 130.287,215.503 130.454,214.503 132,213.5C 132.464,214.094 132.631,214.761 132.5,215.5 Z"/></g>
<g><path style="opacity:0.02" fill="#fefffe" d="M 209.5,214.5 C 208.833,213.167 208.833,213.167 209.5,214.5 Z"/></g>
<g><path style="opacity:0.008" fill="#e3d0ff" d="M 319.5,216.5 C 318.833,216.5 318.5,216.833 318.5,217.5C 317.287,216.503 317.454,215.503 319,214.5C 319.464,215.094 319.631,215.761 319.5,216.5 Z"/></g>
<g><path style="opacity:0.02" fill="#dddcff" d="M 209.5,214.5 C 210.525,214.897 210.692,215.563 210,216.5C 209.536,215.906 209.369,215.239 209.5,214.5 Z"/></g>
<g><path style="opacity:0.013" fill="#fefffe" d="M 475.5,217.5 C 475.833,217.5 476.167,217.5 476.5,217.5C 476.737,218.791 476.404,219.791 475.5,220.5C 475.5,219.5 475.5,218.5 475.5,217.5 Z"/></g>
<g><path style="opacity:0.012" fill="#fefffe" d="M 445.5,220.5 C 445.5,220.167 445.5,219.833 445.5,219.5C 449.5,219.5 453.5,219.5 457.5,219.5C 458.263,220.268 459.263,220.768 460.5,221C 459.833,221.167 459.167,221.333 458.5,221.5C 454.213,220.625 449.879,220.292 445.5,220.5 Z"/></g>
<g><path style="opacity:0.013" fill="#fefffe" d="M 69.5,220.5 C 74.1667,220.5 78.8333,220.5 83.5,220.5C 83.5,220.833 83.5,221.167 83.5,221.5C 79.1667,221.5 74.8333,221.5 70.5,221.5C 70.7947,223.735 70.4614,225.735 69.5,227.5C 69.5,225.167 69.5,222.833 69.5,220.5 Z"/></g>
<g><path style="opacity:0.015" fill="#fefffe" d="M 249.5,220.5 C 249.11,223.839 248.61,227.173 248,230.5C 247.272,227.77 247.438,225.103 248.5,222.5C 240.855,221.669 233.188,221.169 225.5,221C 233.493,220.5 241.493,220.334 249.5,220.5 Z"/></g>
<g><path style="opacity:0.012" fill="#fefffe" d="M 442.5,220.5 C 443.5,220.5 444.5,220.5 445.5,220.5C 444.205,221.488 442.872,222.488 441.5,223.5C 441.5,222.833 441.5,222.167 441.5,221.5C 442.167,221.5 442.5,221.167 442.5,220.5 Z"/></g>
<g><path style="opacity:0.014" fill="#fefffe" d="M 474.5,220.5 C 474.833,220.5 475.167,220.5 475.5,220.5C 475.672,221.492 475.338,222.158 474.5,222.5C 474.5,221.833 474.5,221.167 474.5,220.5 Z"/></g>
<g><path style="opacity:0.016" fill="#fefffe" d="M 39.5,222.5 C 40.6129,223.946 40.7796,225.613 40,227.5C 39.5065,225.866 39.3398,224.199 39.5,222.5 Z"/></g>
<g><path style="opacity:0.013" fill="#f0e9ff" d="M 211.5,222.5 C 211.413,219.402 211.913,219.068 213,221.5C 213.667,223.167 213.667,224.833 213,226.5C 212.79,224.942 212.29,223.609 211.5,222.5 Z"/></g>
<g><path style="opacity:0.011" fill="#fefffe" d="M 466.5,222.5 C 466.842,223.338 467.508,223.672 468.5,223.5C 468.5,223.833 468.5,224.167 468.5,224.5C 466.692,224.509 465.025,224.009 463.5,223C 464.448,222.517 465.448,222.351 466.5,222.5 Z"/></g>
<g><path style="opacity:0.008" fill="#fefffe" d="M 473.5,222.5 C 473.833,222.5 474.167,222.5 474.5,222.5C 474.315,223.17 473.981,223.17 473.5,222.5 Z"/></g>
<g><path style="opacity:0.012" fill="#fefffe" d="M 400.5,228.5 C 400.34,226.801 400.506,225.134 401,223.5C 403,232.167 403,240.833 401,249.5C 401.645,242.353 401.478,235.353 400.5,228.5 Z"/></g>
<g><path style="opacity:0.009" fill="#fefffe" d="M 410.5,223.5 C 411.652,228.985 411.818,234.651 411,240.5C 409.419,234.888 409.253,229.221 410.5,223.5 Z"/></g>
<g><path style="opacity:0.013" fill="#fefffe" d="M 440.5,223.5 C 440.833,223.5 441.167,223.5 441.5,223.5C 441.33,224.822 441.663,225.989 442.5,227C 445.167,227.667 447.833,228.333 450.5,229C 448.866,229.494 447.199,229.66 445.5,229.5C 444.432,228.566 443.099,228.232 441.5,228.5C 440.833,228.5 440.5,228.167 440.5,227.5C 440.5,226.167 440.5,224.833 440.5,223.5 Z"/></g>
<g><path style="opacity:0.006" fill="#fefffe" d="M 471.5,224.5 C 471.5,224.167 471.5,223.833 471.5,223.5C 472.167,223.5 472.833,223.5 473.5,223.5C 473.158,224.338 472.492,224.672 471.5,224.5 Z"/></g>
<g><path style="opacity:0.004" fill="#d9d7ff" d="M 178.5,224.5 C 179.167,224.5 179.833,224.5 180.5,224.5C 180.5,225.167 180.833,225.5 181.5,225.5C 181.5,226.167 181.5,226.833 181.5,227.5C 180.167,226.833 179.167,225.833 178.5,224.5 Z"/></g>
<g><path style="opacity:0.012" fill="#fefffe" d="M 468.5,224.5 C 469.5,224.5 470.5,224.5 471.5,224.5C 470.5,225.833 469.5,225.833 468.5,224.5 Z"/></g>
<g><path style="opacity:0.004" fill="#8d80a0" d="M 155.5,226.5 C 156.167,226.5 156.833,226.5 157.5,226.5C 156.5,228.167 155.167,229.5 153.5,230.5C 153.5,229.833 153.5,229.167 153.5,228.5C 154.167,228.5 154.5,228.167 154.5,227.5C 155.167,227.5 155.5,227.167 155.5,226.5 Z"/></g>
<g><path style="opacity:0.011" fill="#fefffe" d="M 276.5,227.5 C 277.614,231.709 277.447,236.042 276,240.5C 275.924,236.181 276.091,231.848 276.5,227.5 Z"/></g>
<g><path style="opacity:0.004" fill="#f1f0f7" d="M 181.5,227.5 C 181.833,227.5 182.167,227.5 182.5,227.5C 182.5,228.167 182.833,228.5 183.5,228.5C 183.5,229.5 183.5,230.5 183.5,231.5C 182.326,230.486 181.66,229.153 181.5,227.5 Z"/></g>
<g><path style="opacity:0.011" fill="#fefffe" d="M 86.5,230.5 C 86.5,231.833 86.5,233.167 86.5,234.5C 85.8333,234.5 85.5,234.833 85.5,235.5C 85.1667,235.5 84.8333,235.5 84.5,235.5C 84.7959,233.597 85.4625,231.93 86.5,230.5 Z"/></g>
<g><path style="opacity:0.017" fill="#ede8ff" d="M 213.5,245.5 C 213.334,239.491 213.501,233.491 214,227.5C 214.819,233.681 214.653,239.681 213.5,245.5 Z"/></g>
<g><path style="opacity:0.014" fill="#fefffe" d="M 246.5,231.5 C 247.613,232.946 247.78,234.613 247,236.5C 246.506,234.866 246.34,233.199 246.5,231.5 Z"/></g>
<g><path style="opacity:0.01" fill="#f5f4ff" d="M 339.5,231.5 C 339.833,231.5 340.167,231.5 340.5,231.5C 340.573,233.027 339.906,234.027 338.5,234.5C 338.5,233.833 338.5,233.167 338.5,232.5C 339.167,232.5 339.5,232.167 339.5,231.5 Z"/></g>
<g><path style="opacity:0.015" fill="#fefffe" d="M 68.5,233.5 C 68.5,235.167 68.5,236.833 68.5,238.5C 72.5,238.5 76.5,238.5 80.5,238.5C 80.5,238.833 80.5,239.167 80.5,239.5C 76.1667,239.5 71.8333,239.5 67.5,239.5C 67.2053,237.265 67.5386,235.265 68.5,233.5 Z"/></g>
<g><path style="opacity:0.01" fill="#e8ddf9" d="M 337.5,234.5 C 337.833,234.5 338.167,234.5 338.5,234.5C 338.59,237.152 337.924,239.485 336.5,241.5C 336.5,240.167 336.5,238.833 336.5,237.5C 337.404,236.791 337.737,235.791 337.5,234.5 Z"/></g>
<g><path style="opacity:0.011" fill="#e2e2e2" d="M 308.5,238.5 C 307.566,239.568 307.232,240.901 307.5,242.5C 307.167,242.5 306.833,242.5 306.5,242.5C 306.421,239.729 306.921,237.063 308,234.5C 308.49,235.793 308.657,237.127 308.5,238.5 Z"/></g>
<g><path style="opacity:0.01" fill="#fefffe" d="M 112.5,237.5 C 113.794,239.68 113.461,241.68 111.5,243.5C 111.5,242.5 111.5,241.5 111.5,240.5C 112.404,239.791 112.737,238.791 112.5,237.5 Z"/></g>
<g><path style="opacity:0.012" fill="#fefffe" d="M 118.5,239.5 C 119.124,239.917 119.457,240.584 119.5,241.5C 118.818,245.138 118.318,248.805 118,252.5C 117.371,248.129 117.537,243.796 118.5,239.5 Z"/></g>
<g><path style="opacity:0.011" fill="#fefffe" d="M 37.5,247.5 C 36.5386,249.265 36.2053,251.265 36.5,253.5C 36.1667,253.5 35.8333,253.5 35.5,253.5C 35.5775,249.123 36.0775,244.79 37,240.5C 37.4966,242.81 37.6633,245.143 37.5,247.5 Z"/></g>
<g><path style="opacity:0.012" fill="#fefffe" d="M 110.5,243.5 C 110.833,243.5 111.167,243.5 111.5,243.5C 111.672,244.492 111.338,245.158 110.5,245.5C 110.5,244.833 110.5,244.167 110.5,243.5 Z"/></g>
<g><path style="opacity:0.011" fill="#fefffe" d="M 109.5,245.5 C 109.833,245.5 110.167,245.5 110.5,245.5C 110.573,247.027 109.906,248.027 108.5,248.5C 108.5,247.833 108.5,247.167 108.5,246.5C 109.167,246.5 109.5,246.167 109.5,245.5 Z"/></g>
<g><path style="opacity:0.012" fill="#e7e6f4" d="M 306.5,242.5 C 306.5,244.833 306.5,247.167 306.5,249.5C 305.167,253.167 305.167,256.833 306.5,260.5C 306.662,262.527 306.495,264.527 306,266.5C 303.906,258.314 304.073,250.314 306.5,242.5 Z"/></g>
<g><path style="opacity:0.011" fill="#f4f4fa" d="M 212.5,245.5 C 212.833,245.5 213.167,245.5 213.5,245.5C 213.785,248.829 213.118,251.829 211.5,254.5C 211.5,253.167 211.5,251.833 211.5,250.5C 212.451,249.081 212.784,247.415 212.5,245.5 Z"/></g>
<g><path style="opacity:0.01" fill="#fefffe" d="M 107.5,248.5 C 107.833,248.5 108.167,248.5 108.5,248.5C 108.573,250.027 107.906,251.027 106.5,251.5C 106.5,250.833 106.5,250.167 106.5,249.5C 107.167,249.5 107.5,249.167 107.5,248.5 Z"/></g>
<g><path style="opacity:0.012" fill="#fefffe" d="M 243.5,262.5 C 243.167,262.5 242.833,262.5 242.5,262.5C 244.164,245.174 244.497,245.174 243.5,262.5 Z"/></g>
<g><path style="opacity:0.016" fill="#fefffe" d="M 105.5,251.5 C 105.833,251.5 106.167,251.5 106.5,251.5C 106.315,252.17 105.981,252.17 105.5,251.5 Z"/></g>
<g><path style="opacity:0.02" fill="#c9cfdd" d="M 148.5,242.5 C 148.392,247.87 148.725,253.203 149.5,258.5C 149.167,258.5 148.833,258.5 148.5,258.5C 148.737,257.209 148.404,256.209 147.5,255.5C 147.182,250.968 147.515,246.634 148.5,242.5 Z"/></g>
<g><path style="opacity:0.02" fill="#fefffe" d="M 104.5,252.5 C 104.833,252.5 105.167,252.5 105.5,252.5C 105.315,253.17 104.981,253.17 104.5,252.5 Z"/></g>
<g><path style="opacity:0.011" fill="#fefffe" d="M 475.5,252.5 C 476.824,258.39 476.657,264.39 475,270.5C 475.239,264.535 475.406,258.535 475.5,252.5 Z"/></g>
<g><path style="opacity:0.012" fill="#fefffe" d="M 35.5,253.5 C 35.0728,257.824 34.7395,262.158 34.5,266.5C 33.258,262.088 33.5913,257.754 35.5,253.5 Z"/></g>
<g><path style="opacity:0.024" fill="#fefffe" d="M 103.5,253.5 C 103.833,253.5 104.167,253.5 104.5,253.5C 104.315,254.17 103.981,254.17 103.5,253.5 Z"/></g>
<g><path style="opacity:0.011" fill="#fefffe" d="M 398.5,253.5 C 399.794,255.68 399.461,257.68 397.5,259.5C 397.5,258.5 397.5,257.5 397.5,256.5C 398.404,255.791 398.737,254.791 398.5,253.5 Z"/></g>
<g><path style="opacity:0.02" fill="#fefffe" d="M 102.5,254.5 C 102.833,254.5 103.167,254.5 103.5,254.5C 103.315,255.17 102.981,255.17 102.5,254.5 Z"/></g>
<g><path style="opacity:0.012" fill="#c6c6c6" d="M 180.5,254.5 C 180.5,255.167 180.5,255.833 180.5,256.5C 179.833,256.5 179.5,256.833 179.5,257.5C 179.167,257.5 178.833,257.5 178.5,257.5C 178.427,255.973 179.094,254.973 180.5,254.5 Z"/></g>
<g><path style="opacity:0.02" fill="#fefffe" d="M 101.5,255.5 C 101.833,255.5 102.167,255.5 102.5,255.5C 102.315,256.17 101.981,256.17 101.5,255.5 Z"/></g>
<g><path style="opacity:0.016" fill="#b9a5ff" d="M 210.5,254.5 C 210.833,254.5 211.167,254.5 211.5,254.5C 211.737,255.791 211.404,256.791 210.5,257.5C 210.5,256.5 210.5,255.5 210.5,254.5 Z"/></g>
<g><path style="opacity:0.012" fill="#fefffe" d="M 119.5,265.5 C 119.543,269.893 119.043,270.226 118,266.5C 117.333,263.5 117.333,260.5 118,257.5C 118.183,260.365 118.683,263.031 119.5,265.5 Z"/></g>
<g><path style="opacity:0.012" fill="#ebddff" d="M 209.5,257.5 C 209.833,257.5 210.167,257.5 210.5,257.5C 210.598,259.553 209.931,261.22 208.5,262.5C 208.5,261.5 208.5,260.5 208.5,259.5C 209.338,259.158 209.672,258.492 209.5,257.5 Z"/></g>
<g><path style="opacity:0.012" fill="#fefffe" d="M 433.5,257.5 C 434.919,258.451 436.585,258.784 438.5,258.5C 439.209,259.404 440.209,259.737 441.5,259.5C 437.577,260.165 433.577,259.665 429.5,258C 430.793,257.51 432.127,257.343 433.5,257.5 Z"/></g>
<g><path style="opacity:0.016" fill="#fefffe" d="M 96.5,259.5 C 97.8333,260.167 97.8333,260.167 96.5,259.5 Z"/></g>
<g><path style="opacity:0.012" fill="#fefffe" d="M 269.5,271.5 C 270.461,269.735 270.795,267.735 270.5,265.5C 271.309,263.708 271.809,261.708 272,259.5C 272.213,265.567 271.546,271.567 270,277.5C 269.505,275.527 269.338,273.527 269.5,271.5 Z"/></g>
<g><path style="opacity:0.014" fill="#fefffe" d="M 396.5,259.5 C 396.833,259.5 397.167,259.5 397.5,259.5C 397.672,260.492 397.338,261.158 396.5,261.5C 396.5,260.833 396.5,260.167 396.5,259.5 Z"/></g>
<g><path style="opacity:0.012" fill="#fefffe" d="M 94.5,260.5 C 95.1667,260.5 95.8333,260.5 96.5,260.5C 95.8333,261.833 95.1667,261.833 94.5,260.5 Z"/></g>
<g><path style="opacity:0.013" fill="#fefffe" d="M 362.5,261.5 C 362.5,261.833 362.5,262.167 362.5,262.5C 361.833,262.5 361.5,262.833 361.5,263.5C 360.833,263.5 360.167,263.5 359.5,263.5C 359.973,262.094 360.973,261.427 362.5,261.5 Z"/></g>
<g><path style="opacity:0.014" fill="#fefffe" d="M 395.5,261.5 C 395.833,261.5 396.167,261.5 396.5,261.5C 396.672,262.492 396.338,263.158 395.5,263.5C 395.5,262.833 395.5,262.167 395.5,261.5 Z"/></g>
<g><path style="opacity:0.02" fill="#fefffe" d="M 444.5,261.5 C 444.631,262.239 444.464,262.906 444,263.5C 443.308,262.563 443.475,261.897 444.5,261.5 Z"/></g>
<g><path style="opacity:0.014" fill="#e8dcf8" d="M 174.5,261.5 C 174.5,261.833 174.5,262.167 174.5,262.5C 173.833,262.5 173.5,262.833 173.5,263.5C 172.833,263.5 172.167,263.5 171.5,263.5C 171.973,262.094 172.973,261.427 174.5,261.5 Z"/></g>
<g><path style="opacity:0.012" fill="#fefffe" d="M 242.5,262.5 C 242.5,264.5 242.5,266.5 242.5,268.5C 241.691,270.292 241.191,272.292 241,274.5C 240.348,270.244 240.848,266.244 242.5,262.5 Z"/></g>
<g><path style="opacity:0.017" fill="#fefffe" d="M 410.5,263.5 C 411.251,262.427 412.251,262.26 413.5,263C 412.552,263.483 411.552,263.649 410.5,263.5 Z"/></g>
<g><path style="opacity:0.008" fill="#9c98ff" d="M 207.5,262.5 C 207.833,262.5 208.167,262.5 208.5,262.5C 208.672,263.492 208.338,264.158 207.5,264.5C 207.5,263.833 207.5,263.167 207.5,262.5 Z"/></g>
<g><path style="opacity:0.011" fill="#fefffe" d="M 341.5,264.5 C 341.5,264.167 341.5,263.833 341.5,263.5C 346.453,264.329 351.453,264.663 356.5,264.5C 356.5,264.833 356.5,265.167 356.5,265.5C 352.167,266.833 347.833,266.833 343.5,265.5C 343.158,264.662 342.492,264.328 341.5,264.5 Z"/></g>
<g><path style="opacity:0.012" fill="#fefffe" d="M 394.5,263.5 C 394.833,263.5 395.167,263.5 395.5,263.5C 395.672,264.492 395.338,265.158 394.5,265.5C 394.5,264.833 394.5,264.167 394.5,263.5 Z"/></g>
<g><path style="opacity:0.01" fill="#fefffe" d="M 414.5,264.5 C 414.897,263.475 415.563,263.308 416.5,264C 415.906,264.464 415.239,264.631 414.5,264.5 Z"/></g>
<g><path style="opacity:0.005" fill="#f0f0f4" d="M 156.5,265.5 C 156.5,265.167 156.5,264.833 156.5,264.5C 160.5,264.5 164.5,264.5 168.5,264.5C 168.5,264.833 168.5,265.167 168.5,265.5C 166.05,265.298 163.717,265.631 161.5,266.5C 160.081,265.549 158.415,265.216 156.5,265.5 Z"/></g>
<g><path style="opacity:0.012" fill="#fefffe" d="M 443.5,267.5 C 443.351,266.448 443.517,265.448 444,264.5C 444.74,265.749 444.573,266.749 443.5,267.5 Z"/></g>
<g><path style="opacity:0.008" fill="#b2fffe" d="M 206.5,264.5 C 206.833,264.5 207.167,264.5 207.5,264.5C 207.672,265.492 207.338,266.158 206.5,266.5C 206.5,265.833 206.5,265.167 206.5,264.5 Z"/></g>
<g><path style="opacity:0.012" fill="#fefffe" d="M 393.5,265.5 C 393.833,265.5 394.167,265.5 394.5,265.5C 394.672,266.492 394.338,267.158 393.5,267.5C 393.5,266.833 393.5,266.167 393.5,265.5 Z"/></g>
<g><path style="opacity:0.009" fill="#fefffe" d="M 408.5,267.5 C 407.662,267.842 407.328,268.508 407.5,269.5C 407.167,269.5 406.833,269.5 406.5,269.5C 406.312,267.897 406.812,266.563 408,265.5C 408.464,266.094 408.631,266.761 408.5,267.5 Z"/></g>
<g><path style="opacity:0.02" fill="#fefffe" d="M 205.5,266.5 C 205.833,266.5 206.167,266.5 206.5,266.5C 206.315,267.17 205.981,267.17 205.5,266.5 Z"/></g>
<g><path style="opacity:0.011" fill="#fefffe" d="M 420.5,267.5 C 422.68,266.206 424.68,266.539 426.5,268.5C 425.5,268.5 424.5,268.5 423.5,268.5C 422.791,267.596 421.791,267.263 420.5,267.5 Z"/></g>
<g><path style="opacity:0.01" fill="#fefffe" d="M 204.5,267.5 C 204.833,267.5 205.167,267.5 205.5,267.5C 205.672,268.492 205.338,269.158 204.5,269.5C 204.5,268.833 204.5,268.167 204.5,267.5 Z"/></g>
<g><path style="opacity:0.012" fill="#fefffe" d="M 392.5,267.5 C 392.833,267.5 393.167,267.5 393.5,267.5C 393.672,268.492 393.338,269.158 392.5,269.5C 392.5,268.833 392.5,268.167 392.5,267.5 Z"/></g>
<g><path style="opacity:0.024" fill="#fefffe" d="M 443.5,267.5 C 442.833,268.167 442.833,268.167 443.5,267.5 Z"/></g>
<g><path style="opacity:0.009" fill="#fefffe" d="M 426.5,269.5 C 426.5,269.167 426.5,268.833 426.5,268.5C 431.858,269.512 437.191,269.512 442.5,268.5C 442.5,268.833 442.5,269.167 442.5,269.5C 437.183,270.616 431.849,270.616 426.5,269.5 Z"/></g>
<g><path style="opacity:0.012" fill="#fefffe" d="M 203.5,269.5 C 203.833,269.5 204.167,269.5 204.5,269.5C 204.672,270.492 204.338,271.158 203.5,271.5C 203.5,270.833 203.5,270.167 203.5,269.5 Z"/></g>
<g><path style="opacity:0.02" fill="#fefffe" d="M 391.5,269.5 C 391.833,269.5 392.167,269.5 392.5,269.5C 392.315,270.17 391.981,270.17 391.5,269.5 Z"/></g>
<g><path style="opacity:0.009" fill="#fefffe" d="M 406.5,269.5 C 406.5,270.167 406.5,270.833 406.5,271.5C 405.662,271.842 405.328,272.508 405.5,273.5C 404.662,273.842 404.328,274.508 404.5,275.5C 404.167,275.5 403.833,275.5 403.5,275.5C 403.461,272.911 404.461,270.911 406.5,269.5 Z"/></g>
<g><path style="opacity:0.012" fill="#fefffe" d="M 61.5,270.5 C 62.742,274.912 62.4087,279.246 60.5,283.5C 60.5,281.5 60.5,279.5 60.5,277.5C 61.4682,275.393 61.8016,273.059 61.5,270.5 Z"/></g>
<g><path style="opacity:0.014" fill="#fefffe" d="M 390.5,270.5 C 390.833,270.5 391.167,270.5 391.5,270.5C 391.672,271.492 391.338,272.158 390.5,272.5C 390.5,271.833 390.5,271.167 390.5,270.5 Z"/></g>
<g><path style="opacity:0.016" fill="#fefffe" d="M 202.5,271.5 C 202.833,271.5 203.167,271.5 203.5,271.5C 203.315,272.17 202.981,272.17 202.5,271.5 Z"/></g>
<g><path style="opacity:0.012" fill="#fefffe" d="M 31.5,285.5 C 31.1667,285.5 30.8333,285.5 30.5,285.5C 32.1641,268.174 32.4975,268.174 31.5,285.5 Z"/></g>
<g><path style="opacity:0.01" fill="#f6f6ff" d="M 121.5,272.5 C 121.328,273.492 121.662,274.158 122.5,274.5C 122.5,275.167 122.5,275.833 122.5,276.5C 120.481,275.462 120.147,274.128 121.5,272.5 Z"/></g>
<g><path style="opacity:0.02" fill="#fefffe" d="M 389.5,272.5 C 389.833,272.5 390.167,272.5 390.5,272.5C 390.315,273.17 389.981,273.17 389.5,272.5 Z"/></g>
<g><path style="opacity:0.004" fill="#b1eeff" d="M 201.5,272.5 C 201.833,272.5 202.167,272.5 202.5,272.5C 202.573,274.027 201.906,275.027 200.5,275.5C 200.5,274.833 200.5,274.167 200.5,273.5C 201.167,273.5 201.5,273.167 201.5,272.5 Z"/></g>
<g><path style="opacity:0.01" fill="#fefffe" d="M 388.5,273.5 C 388.833,273.5 389.167,273.5 389.5,273.5C 389.573,275.027 388.906,276.027 387.5,276.5C 387.5,275.833 387.5,275.167 387.5,274.5C 388.167,274.5 388.5,274.167 388.5,273.5 Z"/></g>
<g><path style="opacity:0.02" fill="#cbccfe" d="M 199.5,275.5 C 199.833,275.5 200.167,275.5 200.5,275.5C 200.315,276.17 199.981,276.17 199.5,275.5 Z"/></g>
<g><path style="opacity:0.01" fill="#fefffe" d="M 403.5,275.5 C 403.5,276.167 403.5,276.833 403.5,277.5C 402.662,277.842 402.328,278.508 402.5,279.5C 401.147,277.872 401.481,276.538 403.5,275.5 Z"/></g>
<g><path style="opacity:0.024" fill="#fefffe" d="M 198.5,276.5 C 198.833,276.5 199.167,276.5 199.5,276.5C 199.315,277.17 198.981,277.17 198.5,276.5 Z"/></g>
<g><path style="opacity:0.016" fill="#fefffe" d="M 386.5,276.5 C 386.833,276.5 387.167,276.5 387.5,276.5C 387.315,277.17 386.981,277.17 386.5,276.5 Z"/></g>
<g><path style="opacity:0.02" fill="#fefffe" d="M 197.5,277.5 C 197.833,277.5 198.167,277.5 198.5,277.5C 198.315,278.17 197.981,278.17 197.5,277.5 Z"/></g>
<g><path style="opacity:0.024" fill="#fefffe" d="M 385.5,277.5 C 385.833,277.5 386.167,277.5 386.5,277.5C 386.315,278.17 385.981,278.17 385.5,277.5 Z"/></g>
<g><path style="opacity:0.012" fill="#fefffe" d="M 470.5,277.5 C 471.715,278.779 471.382,279.779 469.5,280.5C 469.5,279.833 469.5,279.167 469.5,278.5C 470.167,278.5 470.5,278.167 470.5,277.5 Z"/></g>
<g><path style="opacity:0.012" fill="#f2e8ff" d="M 122.5,276.5 C 122.833,276.5 123.167,276.5 123.5,276.5C 123.328,277.492 123.662,278.158 124.5,278.5C 124.631,279.239 124.464,279.906 124,280.5C 122.812,279.437 122.312,278.103 122.5,276.5 Z"/></g>
<g><path style="opacity:0.012" fill="#fefffe" d="M 267.5,290.5 C 267.5,288.5 267.5,286.5 267.5,284.5C 268.309,282.708 268.809,280.708 269,278.5C 269.652,282.756 269.152,286.756 267.5,290.5 Z"/></g>
<g><path style="opacity:0.004" fill="#9165ff" d="M 311.5,277.5 C 311.631,278.239 311.464,278.906 311,279.5C 310.308,278.563 310.475,277.897 311.5,277.5 Z"/></g>
<g><path style="opacity:0.024" fill="#fefffe" d="M 384.5,278.5 C 384.833,278.5 385.167,278.5 385.5,278.5C 385.315,279.17 384.981,279.17 384.5,278.5 Z"/></g>
<g><path style="opacity:0.02" fill="#fefffe" d="M 383.5,279.5 C 383.833,279.5 384.167,279.5 384.5,279.5C 384.315,280.17 383.981,280.17 383.5,279.5 Z"/></g>
<g><path style="opacity:0.02" fill="#fefffe" d="M 382.5,280.5 C 382.833,280.5 383.167,280.5 383.5,280.5C 383.315,281.17 382.981,281.17 382.5,280.5 Z"/></g>
<g><path style="opacity:0.02" fill="#fefffe" d="M 468.5,280.5 C 468.833,280.5 469.167,280.5 469.5,280.5C 469.315,281.17 468.981,281.17 468.5,280.5 Z"/></g>
<g><path style="opacity:0.012" fill="#fefffe" d="M 239.5,287.5 C 238.539,289.265 238.205,291.265 238.5,293.5C 237.44,289.628 237.607,285.628 239,281.5C 239.495,283.473 239.662,285.473 239.5,287.5 Z"/></g>
<g><path style="opacity:0.024" fill="#fefffe" d="M 381.5,281.5 C 381.833,281.5 382.167,281.5 382.5,281.5C 382.315,282.17 381.981,282.17 381.5,281.5 Z"/></g>
<g><path style="opacity:0.012" fill="#fefffe" d="M 467.5,281.5 C 467.833,281.5 468.167,281.5 468.5,281.5C 468.672,282.492 468.338,283.158 467.5,283.5C 467.5,282.833 467.5,282.167 467.5,281.5 Z"/></g>
<g><path style="opacity:0.007" fill="#f4f2ff" d="M 196.5,278.5 C 196.833,278.5 197.167,278.5 197.5,278.5C 196.167,281.833 193.833,284.167 190.5,285.5C 190.5,285.167 190.5,284.833 190.5,284.5C 191.167,284.5 191.5,284.167 191.5,283.5C 192.167,283.5 192.5,283.167 192.5,282.5C 193.167,282.5 193.5,282.167 193.5,281.5C 194.167,281.5 194.5,281.167 194.5,280.5C 195.167,280.5 195.5,280.167 195.5,279.5C 196.167,279.5 196.5,279.167 196.5,278.5 Z"/></g>
<g><path style="opacity:0.02" fill="#fefffe" d="M 380.5,282.5 C 380.833,282.5 381.167,282.5 381.5,282.5C 381.315,283.17 380.981,283.17 380.5,282.5 Z"/></g>
<g><path style="opacity:0.011" fill="#fefffe" d="M 59.5,283.5 C 59.8333,283.5 60.1667,283.5 60.5,283.5C 60.6564,287.582 60.1564,291.582 59,295.5C 59.0172,291.525 59.1839,287.525 59.5,283.5 Z"/></g>
<g><path style="opacity:0.004" fill="#ffc1fc" d="M 308.5,284.5 C 306.621,284.607 306.288,284.107 307.5,283C 310.875,282.368 311.209,282.868 308.5,284.5 Z"/></g>
<g><path style="opacity:0.02" fill="#fefffe" d="M 379.5,283.5 C 379.833,283.5 380.167,283.5 380.5,283.5C 380.315,284.17 379.981,284.17 379.5,283.5 Z"/></g>
<g><path style="opacity:0.016" fill="#fefffe" d="M 466.5,283.5 C 466.833,283.5 467.167,283.5 467.5,283.5C 467.315,284.17 466.981,284.17 466.5,283.5 Z"/></g>
<g><path style="opacity:0.008" fill="#fefffe" d="M 316.5,284.5 C 317.167,284.5 317.5,284.833 317.5,285.5C 317.253,287.975 316.587,287.975 315.5,285.5C 315.624,284.893 315.957,284.56 316.5,284.5 Z"/></g>
<g><path style="opacity:0.024" fill="#fefffe" d="M 378.5,284.5 C 378.833,284.5 379.167,284.5 379.5,284.5C 379.315,285.17 378.981,285.17 378.5,284.5 Z"/></g>
<g><path style="opacity:0.02" fill="#fefffe" d="M 465.5,284.5 C 465.833,284.5 466.167,284.5 466.5,284.5C 466.315,285.17 465.981,285.17 465.5,284.5 Z"/></g>
<g><path style="opacity:0.011" fill="#fefffe" d="M 30.5,285.5 C 30.5,287.5 30.5,289.5 30.5,291.5C 29.71,292.609 29.21,293.942 29,295.5C 28.5518,291.929 29.0518,288.596 30.5,285.5 Z"/></g>
<g><path style="opacity:0.02" fill="#fefffe" d="M 189.5,285.5 C 189.833,285.5 190.167,285.5 190.5,285.5C 190.315,286.17 189.981,286.17 189.5,285.5 Z"/></g>
<g><path style="opacity:0.02" fill="#fefffe" d="M 377.5,285.5 C 377.833,285.5 378.167,285.5 378.5,285.5C 378.315,286.17 377.981,286.17 377.5,285.5 Z"/></g>
<g><path style="opacity:0.004" fill="#fefffe" d="M 397.5,285.5 C 398.833,286.167 398.833,286.167 397.5,285.5 Z"/></g>
<g><path style="opacity:0.02" fill="#fefffe" d="M 464.5,285.5 C 464.833,285.5 465.167,285.5 465.5,285.5C 465.315,286.17 464.981,286.17 464.5,285.5 Z"/></g>
<g><path style="opacity:0.024" fill="#fefffe" d="M 188.5,286.5 C 188.833,286.5 189.167,286.5 189.5,286.5C 189.315,287.17 188.981,287.17 188.5,286.5 Z"/></g>
<g><path style="opacity:0.02" fill="#fefffe" d="M 376.5,286.5 C 376.833,286.5 377.167,286.5 377.5,286.5C 377.315,287.17 376.981,287.17 376.5,286.5 Z"/></g>
<g><path style="opacity:0.02" fill="#fefffe" d="M 463.5,286.5 C 463.833,286.5 464.167,286.5 464.5,286.5C 464.315,287.17 463.981,287.17 463.5,286.5 Z"/></g>
<g><path style="opacity:0.004" fill="#767676" d="M 130.5,286.5 C 131.167,286.5 131.5,286.833 131.5,287.5C 131.44,288.043 131.107,288.376 130.5,288.5C 129.227,287.743 129.227,287.077 130.5,286.5 Z"/></g>
<g><path style="opacity:0.016" fill="#fefffe" d="M 187.5,287.5 C 187.833,287.5 188.167,287.5 188.5,287.5C 188.315,288.17 187.981,288.17 187.5,287.5 Z"/></g>
<g><path style="opacity:0.997" fill="#ff9c00" d="M 308.5,284.5 C 310.379,285.897 312.046,287.563 313.5,289.5C 313.5,290.167 313.833,290.5 314.5,290.5C 314.5,291.167 314.833,291.5 315.5,291.5C 315.5,292.167 315.833,292.5 316.5,292.5C 317.436,293.974 318.77,294.974 320.5,295.5C 320.842,296.338 321.508,296.672 322.5,296.5C 322.842,297.338 323.508,297.672 324.5,297.5C 325.11,298.391 325.443,299.391 325.5,300.5C 324.833,300.5 324.5,300.833 324.5,301.5C 323.833,301.5 323.5,301.833 323.5,302.5C 322.833,302.5 322.5,302.833 322.5,303.5C 321.833,303.5 321.5,303.833 321.5,304.5C 320.508,304.328 319.842,304.662 319.5,305.5C 318.833,305.5 318.5,305.833 318.5,306.5C 316.246,307.124 314.579,308.457 313.5,310.5C 312.833,310.5 312.5,310.833 312.5,311.5C 311.508,311.328 310.842,311.662 310.5,312.5C 309.833,312.5 309.5,312.833 309.5,313.5C 308.508,313.328 307.842,313.662 307.5,314.5C 306.833,314.5 306.5,314.833 306.5,315.5C 305.833,315.5 305.5,315.833 305.5,316.5C 304.508,316.328 303.842,316.662 303.5,317.5C 302.833,317.5 302.5,317.833 302.5,318.5C 299.669,319.079 297.336,320.412 295.5,322.5C 294.833,322.5 294.5,322.833 294.5,323.5C 293.508,323.328 292.842,323.662 292.5,324.5C 291.508,324.328 290.842,324.662 290.5,325.5C 289.833,325.5 289.5,325.833 289.5,326.5C 288.508,326.328 287.842,326.662 287.5,327.5C 286.508,327.328 285.842,327.662 285.5,328.5C 284.508,328.328 283.842,328.662 283.5,329.5C 282.508,329.328 281.842,329.662 281.5,330.5C 277.23,332.138 273.23,334.138 269.5,336.5C 268.508,336.328 267.842,336.662 267.5,337.5C 266.508,337.328 265.842,337.662 265.5,338.5C 262.759,338.707 260.426,339.707 258.5,341.5C 257.209,341.263 256.209,341.596 255.5,342.5C 254.209,342.263 253.209,342.596 252.5,343.5C 245.96,345.126 239.627,347.126 233.5,349.5C 231.901,349.232 230.568,349.566 229.5,350.5C 223.951,351.011 218.617,352.011 213.5,353.5C 199.456,354.997 185.456,354.664 171.5,352.5C 168.381,351.13 165.048,350.13 161.5,349.5C 160.791,348.596 159.791,348.263 158.5,348.5C 158.158,347.662 157.492,347.328 156.5,347.5C 153.669,345.583 150.669,343.917 147.5,342.5C 147.5,341.833 147.167,341.5 146.5,341.5C 144.858,340.197 143.191,338.864 141.5,337.5C 141.5,336.833 141.167,336.5 140.5,336.5C 140.5,335.833 140.167,335.5 139.5,335.5C 139.5,334.833 139.167,334.5 138.5,334.5C 134.988,330.137 131.988,325.47 129.5,320.5C 128.184,315.752 127.184,310.918 126.5,306C 126.613,302.267 127.613,301.767 129.5,304.5C 129.5,305.167 129.833,305.5 130.5,305.5C 130.328,306.492 130.662,307.158 131.5,307.5C 131.5,308.167 131.833,308.5 132.5,308.5C 133.833,310.5 135.5,312.167 137.5,313.5C 137.5,314.167 137.833,314.5 138.5,314.5C 138.973,315.906 139.973,316.573 141.5,316.5C 141.5,317.167 141.833,317.5 142.5,317.5C 145.515,319.674 148.849,321.341 152.5,322.5C 156.403,324.898 160.736,326.231 165.5,326.5C 166.919,327.451 168.585,327.784 170.5,327.5C 176.601,328.972 182.935,329.639 189.5,329.5C 193.681,329.499 197.681,329.166 201.5,328.5C 206.75,328.698 211.75,328.031 216.5,326.5C 218.415,326.784 220.081,326.451 221.5,325.5C 224.781,325.58 227.781,324.913 230.5,323.5C 235.165,322.922 239.499,321.589 243.5,319.5C 244.791,319.737 245.791,319.404 246.5,318.5C 248.553,318.598 250.22,317.931 251.5,316.5C 256.642,315.458 261.309,313.458 265.5,310.5C 267.553,310.598 269.22,309.931 270.5,308.5C 271.492,308.672 272.158,308.338 272.5,307.5C 273.492,307.672 274.158,307.338 274.5,306.5C 276.027,306.573 277.027,305.906 277.5,304.5C 279.819,304.008 281.819,303.008 283.5,301.5C 284.167,301.5 284.5,301.167 284.5,300.5C 293.321,296.336 301.321,291.003 308.5,284.5 Z M 275.5,304.5 C 276.167,304.5 276.833,304.5 277.5,304.5C 277.027,305.906 276.027,306.573 274.5,306.5C 274.833,305.833 275.167,305.167 275.5,304.5 Z M 270.5,308.5 C 269.22,309.931 267.553,310.598 265.5,310.5C 266.78,309.069 268.447,308.402 270.5,308.5 Z M 138.5,314.5 C 139.167,314.5 139.833,314.5 140.5,314.5C 140.5,315.167 140.833,315.5 141.5,315.5C 141.5,315.833 141.5,316.167 141.5,316.5C 139.973,316.573 138.973,315.906 138.5,314.5 Z M 251.5,316.5 C 250.22,317.931 248.553,318.598 246.5,318.5C 246.5,318.167 246.5,317.833 246.5,317.5C 248.117,316.962 249.784,316.629 251.5,316.5 Z M 230.5,323.5 C 227.781,324.913 224.781,325.58 221.5,325.5C 224.219,324.087 227.219,323.42 230.5,323.5 Z M 216.5,326.5 C 211.75,328.031 206.75,328.698 201.5,328.5C 206.29,327.275 211.29,326.608 216.5,326.5 Z"/></g>
<g><path style="opacity:0.008" fill="#fefffe" d="M 374.5,287.5 C 375.167,287.5 375.833,287.5 376.5,287.5C 375.833,288.833 375.167,288.833 374.5,287.5 Z"/></g>
<g><path style="opacity:0.012" fill="#fefffe" d="M 398.5,287.5 C 399.833,288.167 399.833,288.167 398.5,287.5 Z"/></g>
<g><path style="opacity:0.02" fill="#fefffe" d="M 462.5,287.5 C 462.833,287.5 463.167,287.5 463.5,287.5C 463.315,288.17 462.981,288.17 462.5,287.5 Z"/></g>
<g><path style="opacity:0.012" fill="#ffb0ff" d="M 315.5,290.5 C 315.167,290.5 314.833,290.5 314.5,290.5C 313.833,290.5 313.5,290.167 313.5,289.5C 314.301,287.207 314.968,287.54 315.5,290.5 Z"/></g>
<g><path style="opacity:0.008" fill="#fefffe" d="M 320.5,288.5 C 321.167,288.5 321.5,288.833 321.5,289.5C 320.503,290.713 319.503,290.546 318.5,289C 319.094,288.536 319.761,288.369 320.5,288.5 Z"/></g>
<g><path style="opacity:0.016" fill="#fefffe" d="M 461.5,288.5 C 461.833,288.5 462.167,288.5 462.5,288.5C 462.315,289.17 461.981,289.17 461.5,288.5 Z"/></g>
<g><path style="opacity:0.004" fill="#bc97ff" d="M 185.5,288.5 C 186.167,288.5 186.833,288.5 187.5,288.5C 187.027,289.906 186.027,290.573 184.5,290.5C 184.5,290.167 184.5,289.833 184.5,289.5C 185.167,289.5 185.5,289.167 185.5,288.5 Z"/></g>
<g><path style="opacity:0.012" fill="#fefffe" d="M 459.5,290.5 C 459.5,290.167 459.5,289.833 459.5,289.5C 460.167,289.5 460.833,289.5 461.5,289.5C 461.158,290.338 460.492,290.672 459.5,290.5 Z"/></g>
<g><path style="opacity:0.012" fill="#fefffe" d="M 266.5,290.5 C 266.833,290.5 267.167,290.5 267.5,290.5C 267.167,297.167 266.833,297.167 266.5,290.5 Z"/></g>
<g><path style="opacity:0.02" fill="#fefffe" d="M 458.5,290.5 C 458.833,290.5 459.167,290.5 459.5,290.5C 459.315,291.17 458.981,291.17 458.5,290.5 Z"/></g>
<g><path style="opacity:0.01" fill="#c6c6c6" d="M 136.5,291.5 C 137.167,291.5 137.5,291.833 137.5,292.5C 136.503,293.713 135.503,293.546 134.5,292C 135.094,291.536 135.761,291.369 136.5,291.5 Z"/></g>
<g><path style="opacity:0.004" fill="#757385" d="M 182.5,290.5 C 183.167,290.5 183.833,290.5 184.5,290.5C 184.027,291.906 183.027,292.573 181.5,292.5C 181.5,292.167 181.5,291.833 181.5,291.5C 182.167,291.5 182.5,291.167 182.5,290.5 Z"/></g>
<g><path style="opacity:0.012" fill="#ff72ff" d="M 315.5,291.5 C 315.5,291.167 315.5,290.833 315.5,290.5C 318.46,291.032 318.793,291.699 316.5,292.5C 315.833,292.5 315.5,292.167 315.5,291.5 Z"/></g>
<g><path style="opacity:0.011" fill="#fefffe" d="M 368.5,291.5 C 370.975,291.747 370.975,292.413 368.5,293.5C 367.537,293.03 367.537,292.363 368.5,291.5 Z"/></g>
<g><path style="opacity:0.011" fill="#fefffe" d="M 406.5,291.5 C 406.842,292.338 407.508,292.672 408.5,292.5C 406.911,293.621 405.244,293.454 403.5,292C 404.448,291.517 405.448,291.351 406.5,291.5 Z"/></g>
<g><path style="opacity:0.011" fill="#fefffe" d="M 456.5,291.5 C 457.167,291.5 457.833,291.5 458.5,291.5C 458.027,292.906 457.027,293.573 455.5,293.5C 455.5,293.167 455.5,292.833 455.5,292.5C 456.167,292.5 456.5,292.167 456.5,291.5 Z"/></g>
<g><path style="opacity:0.012" fill="#fefffe" d="M 179.5,293.5 C 179.5,293.167 179.5,292.833 179.5,292.5C 180.167,292.5 180.833,292.5 181.5,292.5C 181.158,293.338 180.492,293.672 179.5,293.5 Z"/></g>
<g><path style="opacity:0.008" fill="#b0a8ff" d="M 177.5,294.5 C 177.5,294.167 177.5,293.833 177.5,293.5C 178.167,293.5 178.833,293.5 179.5,293.5C 179.158,294.338 178.492,294.672 177.5,294.5 Z"/></g>
<g><path style="opacity:0.011" fill="#fefffe" d="M 327.5,293.5 C 327.842,294.338 328.508,294.672 329.5,294.5C 328.151,295.797 326.818,295.63 325.5,294C 326.094,293.536 326.761,293.369 327.5,293.5 Z"/></g>
<g><path style="opacity:0.02" fill="#fefffe" d="M 365.5,293.5 C 366.833,294.167 366.833,294.167 365.5,293.5 Z"/></g>
<g><path style="opacity:0.014" fill="#fefffe" d="M 453.5,294.5 C 453.5,294.167 453.5,293.833 453.5,293.5C 454.167,293.5 454.833,293.5 455.5,293.5C 455.158,294.338 454.492,294.672 453.5,294.5 Z"/></g>
<g><path style="opacity:0.02" fill="#cfcfcf" d="M 174.5,295.5 C 174.5,295.167 174.5,294.833 174.5,294.5C 175.5,294.5 176.5,294.5 177.5,294.5C 176.791,295.404 175.791,295.737 174.5,295.5 Z"/></g>
<g><path style="opacity:0.01" fill="#fefffe" d="M 362.5,294.5 C 363.5,294.5 364.5,294.5 365.5,294.5C 364.5,295.833 363.5,295.833 362.5,294.5 Z"/></g>
<g><path style="opacity:0.014" fill="#fefffe" d="M 451.5,294.5 C 452.167,294.5 452.833,294.5 453.5,294.5C 452.833,295.833 452.167,295.833 451.5,294.5 Z"/></g>
<g><path style="opacity:0.016" fill="#fefffe" d="M 172.5,296.5 C 172.5,296.167 172.5,295.833 172.5,295.5C 173.167,295.5 173.833,295.5 174.5,295.5C 174.158,296.338 173.492,296.672 172.5,296.5 Z"/></g>
<g><path style="opacity:0.012" fill="#ff94fd" d="M 320.5,295.5 C 322.128,294.147 323.462,294.481 324.5,296.5C 323.833,296.5 323.167,296.5 322.5,296.5C 322.158,295.662 321.492,295.328 320.5,295.5 Z"/></g>
<g><path style="opacity:0.012" fill="#f0ecf7" d="M 144.5,295.5 C 145.209,296.404 146.209,296.737 147.5,296.5C 149.265,297.461 151.265,297.795 153.5,297.5C 153.5,297.833 153.5,298.167 153.5,298.5C 149.253,298.822 145.253,297.989 141.5,296C 142.448,295.517 143.448,295.351 144.5,295.5 Z"/></g>
<g><path style="opacity:0.012" fill="#fcfcfc" d="M 168.5,296.5 C 169.833,296.5 171.167,296.5 172.5,296.5C 169.493,298.175 166.16,298.841 162.5,298.5C 162.5,298.167 162.5,297.833 162.5,297.5C 164.735,297.795 166.735,297.461 168.5,296.5 Z"/></g>
<g><path style="opacity:0.004" fill="#fe0000" d="M 324.5,296.5 C 325.833,297.167 325.833,297.167 324.5,296.5 Z"/></g>
<g><path style="opacity:0.011" fill="#fefffe" d="M 335.5,296.5 C 337.292,297.309 339.292,297.809 341.5,298C 338.072,298.701 334.738,298.368 331.5,297C 332.793,296.51 334.127,296.343 335.5,296.5 Z"/></g>
<g><path style="opacity:0.011" fill="#fefffe" d="M 420.5,296.5 C 421.919,297.451 423.585,297.784 425.5,297.5C 425.5,297.833 425.5,298.167 425.5,298.5C 422.393,298.649 419.393,298.149 416.5,297C 417.793,296.51 419.127,296.343 420.5,296.5 Z"/></g>
<g><path style="opacity:0.006" fill="#fefffe" d="M 33.5,297.5 C 33.5,297.833 33.5,298.167 33.5,298.5C 30.8333,298.167 30.8333,297.833 33.5,297.5 Z"/></g>
<g><path style="opacity:0.012" fill="#fefffe" d="M 55.5,297.5 C 56.8333,298.167 56.8333,298.167 55.5,297.5 Z"/></g>
<g><path style="opacity:0.004" fill="#fe0000" d="M 327.5,298.5 C 326.833,297.167 326.833,297.167 327.5,298.5 Z"/></g>
<g><path style="opacity:0.008" fill="#fefffe" d="M 33.5,298.5 C 40.5079,298.334 47.5079,298.5 54.5,299C 47.3209,299.821 40.3209,299.655 33.5,298.5 Z"/></g>
<g><path style="opacity:0.004" fill="#c7cbe3" d="M 153.5,298.5 C 156.5,298.5 159.5,298.5 162.5,298.5C 159.5,299.833 156.5,299.833 153.5,298.5 Z"/></g>
<g><path style="opacity:0.019" fill="#fefffe" d="M 240.5,299.5 C 247.989,298.344 255.655,298.178 263.5,299C 255.841,299.5 248.174,299.666 240.5,299.5 Z"/></g>
<g><path style="opacity:0.004" fill="#fefffe" d="M 342.5,299.5 C 344.288,298.378 346.288,298.211 348.5,299C 346.527,299.495 344.527,299.662 342.5,299.5 Z"/></g>
<g><path style="opacity:0.015" fill="#fefffe" d="M 425.5,298.5 C 430.844,298.334 436.177,298.501 441.5,299C 435.984,299.817 430.65,299.651 425.5,298.5 Z"/></g>
<g><path style="opacity:0.008" fill="#ff84fe" d="M 284.5,300.5 C 283.833,300.5 283.5,300.833 283.5,301.5C 281.025,301.253 281.025,300.587 283.5,299.5C 284.107,299.624 284.44,299.957 284.5,300.5 Z"/></g>
<g><path style="opacity:0.004" fill="#ff5dfc" d="M 327.5,298.5 C 328.332,300.725 327.332,302.058 324.5,302.5C 324.5,302.167 324.5,301.833 324.5,301.5C 325.167,301.5 325.5,301.167 325.5,300.5C 326.5,300.167 327.167,299.5 327.5,298.5 Z"/></g>
<g><path style="opacity:0.024" fill="#fe8000" d="M 323.5,302.5 C 323.833,302.5 324.167,302.5 324.5,302.5C 324.315,303.17 323.981,303.17 323.5,302.5 Z"/></g>
<g><path style="opacity:0.02" fill="#fe9900" d="M 322.5,303.5 C 322.833,303.5 323.167,303.5 323.5,303.5C 323.315,304.17 322.981,304.17 322.5,303.5 Z"/></g>
<g><path style="opacity:0.024" fill="#ff89fd" d="M 131.5,305.5 C 131.167,305.5 130.833,305.5 130.5,305.5C 129.833,305.5 129.5,305.167 129.5,304.5C 130.301,302.207 130.968,302.54 131.5,305.5 Z"/></g>
<g><path style="opacity:0.02" fill="#fe9900" d="M 321.5,304.5 C 321.833,304.5 322.167,304.5 322.5,304.5C 322.315,305.17 321.981,305.17 321.5,304.5 Z"/></g>
<g><path style="opacity:0.004" fill="#ffd2fd" d="M 275.5,304.5 C 275.167,305.167 274.833,305.833 274.5,306.5C 273.508,306.328 272.842,306.662 272.5,307.5C 271.761,307.631 271.094,307.464 270.5,307C 271.91,305.628 273.577,304.795 275.5,304.5 Z"/></g>
<g><path style="opacity:0.012" fill="#ffa8fe" d="M 124.5,302.5 C 125.629,304.628 125.796,306.961 125,309.5C 124.503,307.19 124.337,304.857 124.5,302.5 Z"/></g>
<g><path style="opacity:0.004" fill="#ffddff" d="M 131.5,305.5 C 133.382,306.221 133.715,307.221 132.5,308.5C 131.833,308.5 131.5,308.167 131.5,307.5C 131.5,306.833 131.5,306.167 131.5,305.5 Z"/></g>
<g><path style="opacity:0.004" fill="#ff63fe" d="M 319.5,305.5 C 320.167,305.5 320.833,305.5 321.5,305.5C 320.779,307.382 319.779,307.715 318.5,306.5C 319.167,306.5 319.5,306.167 319.5,305.5 Z"/></g>
<g><path style="opacity:0.024" fill="#fe8000" d="M 313.5,310.5 C 314.833,311.167 314.833,311.167 313.5,310.5 Z"/></g>
<g><path style="opacity:0.016" fill="#ffa4ff" d="M 126.5,315.5 C 125.387,314.054 125.22,312.387 126,310.5C 126.494,312.134 126.66,313.801 126.5,315.5 Z"/></g>
<g><path style="opacity:0.016" fill="#febf00" d="M 312.5,311.5 C 312.833,311.5 313.167,311.5 313.5,311.5C 313.315,312.17 312.981,312.17 312.5,311.5 Z"/></g>
<g><path style="opacity:0.012" fill="#fe8000" d="M 310.5,313.5 C 310.5,313.167 310.5,312.833 310.5,312.5C 311.167,312.5 311.833,312.5 312.5,312.5C 312.158,313.338 311.492,313.672 310.5,313.5 Z"/></g>
<g><path style="opacity:0.008" fill="#ff84fe" d="M 137.5,313.5 C 138.779,312.285 139.779,312.618 140.5,314.5C 139.833,314.5 139.167,314.5 138.5,314.5C 137.833,314.5 137.5,314.167 137.5,313.5 Z"/></g>
<g><path style="opacity:0.02" fill="#fe9900" d="M 309.5,313.5 C 309.833,313.5 310.167,313.5 310.5,313.5C 310.315,314.17 309.981,314.17 309.5,313.5 Z"/></g>
<g><path style="opacity:0.004" fill="#ffb8fc" d="M 307.5,314.5 C 308.167,314.5 308.833,314.5 309.5,314.5C 309.027,315.906 308.027,316.573 306.5,316.5C 306.5,316.167 306.5,315.833 306.5,315.5C 307.167,315.5 307.5,315.167 307.5,314.5 Z"/></g>
<g><path style="opacity:0.016" fill="#ffb200" d="M 126.5,315.5 C 127.525,315.897 127.692,316.563 127,317.5C 126.536,316.906 126.369,316.239 126.5,315.5 Z"/></g>
<g><path style="opacity:0.012" fill="#ffa2ff" d="M 141.5,316.5 C 141.5,316.167 141.5,315.833 141.5,315.5C 144.46,316.032 144.793,316.699 142.5,317.5C 141.833,317.5 141.5,317.167 141.5,316.5 Z"/></g>
<g><path style="opacity:0.016" fill="#febf00" d="M 305.5,316.5 C 305.833,316.5 306.167,316.5 306.5,316.5C 306.315,317.17 305.981,317.17 305.5,316.5 Z"/></g>
<g><path style="opacity:0.012" fill="#ff86ff" d="M 246.5,317.5 C 246.5,317.833 246.5,318.167 246.5,318.5C 245.209,318.263 244.209,318.596 243.5,319.5C 242.448,319.649 241.448,319.483 240.5,319C 242.345,317.872 244.345,317.372 246.5,317.5 Z"/></g>
<g><path style="opacity:0.008" fill="#ff8800" d="M 303.5,318.5 C 303.5,318.167 303.5,317.833 303.5,317.5C 304.167,317.5 304.833,317.5 305.5,317.5C 305.158,318.338 304.492,318.672 303.5,318.5 Z"/></g>
<g><path style="opacity:0.016" fill="#febf00" d="M 302.5,318.5 C 302.833,318.5 303.167,318.5 303.5,318.5C 303.315,319.17 302.981,319.17 302.5,318.5 Z"/></g>
<g><path style="opacity:0.008" fill="#ffa9fc" d="M 129.5,320.5 C 129.207,324.221 128.541,324.055 127.5,320C 127.667,319.5 127.833,319 128,318.5C 128.278,319.416 128.778,320.082 129.5,320.5 Z"/></g>
<g><path style="opacity:0.016" fill="#ffaa00" d="M 152.5,322.5 C 152.897,321.475 153.563,321.308 154.5,322C 153.906,322.464 153.239,322.631 152.5,322.5 Z"/></g>
<g><path style="opacity:0.012" fill="#ffc400" d="M 158.5,323.5 C 157.448,323.649 156.448,323.483 155.5,323C 156.749,322.26 157.749,322.427 158.5,323.5 Z"/></g>
<g><path style="opacity:0.012" fill="#fe8000" d="M 295.5,323.5 C 295.5,323.167 295.5,322.833 295.5,322.5C 298.167,322.833 298.167,323.167 295.5,323.5 Z"/></g>
<g><path style="opacity:0.02" fill="#ff9200" d="M 158.5,323.5 C 159.552,323.351 160.552,323.517 161.5,324C 160.251,324.74 159.251,324.573 158.5,323.5 Z"/></g>
<g><path style="opacity:0.02" fill="#fe9900" d="M 294.5,323.5 C 294.833,323.5 295.167,323.5 295.5,323.5C 295.315,324.17 294.981,324.17 294.5,323.5 Z"/></g>
<g><path style="opacity:0.008" fill="#ff8800" d="M 292.5,325.5 C 292.5,325.167 292.5,324.833 292.5,324.5C 293.167,324.5 293.833,324.5 294.5,324.5C 294.158,325.338 293.492,325.672 292.5,325.5 Z"/></g>
<g><path style="opacity:0.012" fill="#fe8000" d="M 290.5,326.5 C 290.5,326.167 290.5,325.833 290.5,325.5C 291.167,325.5 291.833,325.5 292.5,325.5C 292.158,326.338 291.492,326.672 290.5,326.5 Z"/></g>
<g><path style="opacity:0.02" fill="#ff8cff" d="M 165.5,326.5 C 166.274,325.853 167.274,325.52 168.5,325.5C 171.5,326 174.5,326.5 177.5,327C 175.19,327.497 172.857,327.663 170.5,327.5C 169.081,326.549 167.415,326.216 165.5,326.5 Z"/></g>
<g><path style="opacity:0.02" fill="#fe9900" d="M 289.5,326.5 C 289.833,326.5 290.167,326.5 290.5,326.5C 290.315,327.17 289.981,327.17 289.5,326.5 Z"/></g>
<g><path style="opacity:0.008" fill="#ff8800" d="M 287.5,328.5 C 287.5,328.167 287.5,327.833 287.5,327.5C 288.167,327.5 288.833,327.5 289.5,327.5C 289.158,328.338 288.492,328.672 287.5,328.5 Z"/></g>
<g><path style="opacity:0.008" fill="#ff9600" d="M 285.5,329.5 C 285.5,329.167 285.5,328.833 285.5,328.5C 286.167,328.5 286.833,328.5 287.5,328.5C 287.158,329.338 286.492,329.672 285.5,329.5 Z"/></g>
<g><path style="opacity:0.016" fill="#ffb0fd" d="M 283.5,329.5 C 284.167,329.5 284.833,329.5 285.5,329.5C 284.462,331.519 283.128,331.853 281.5,330.5C 282.492,330.672 283.158,330.338 283.5,329.5 Z"/></g>
<g><path style="opacity:0.004" fill="#ff75fc" d="M 138.5,334.5 C 139.167,334.5 139.5,334.833 139.5,335.5C 140.167,335.5 140.5,335.833 140.5,336.5C 141.167,336.5 141.5,336.833 141.5,337.5C 139.732,338.507 138.399,337.841 137.5,335.5C 137.624,334.893 137.957,334.56 138.5,334.5 Z"/></g>
<g><path style="opacity:0.008" fill="#ff8800" d="M 272.5,336.5 C 272.897,335.475 273.563,335.308 274.5,336C 273.906,336.464 273.239,336.631 272.5,336.5 Z"/></g>
<g><path style="opacity:0.012" fill="#fe8000" d="M 269.5,337.5 C 269.5,337.167 269.5,336.833 269.5,336.5C 272.167,336.833 272.167,337.167 269.5,337.5 Z"/></g>
<g><path style="opacity:0.012" fill="#ffa1ff" d="M 267.5,337.5 C 268.167,337.5 268.833,337.5 269.5,337.5C 268.462,339.519 267.128,339.853 265.5,338.5C 266.492,338.672 267.158,338.338 267.5,337.5 Z"/></g>
<g><path style="opacity:0.008" fill="#ff76ff" d="M 146.5,341.5 C 147.167,341.5 147.5,341.833 147.5,342.5C 146.503,343.713 145.503,343.546 144.5,342C 145.094,341.536 145.761,341.369 146.5,341.5 Z"/></g>
<g><path style="opacity:0.008" fill="#ff8800" d="M 258.5,342.5 C 258.5,342.167 258.5,341.833 258.5,341.5C 261.167,341.833 261.167,342.167 258.5,342.5 Z"/></g>
<g><path style="opacity:0.02" fill="#ffa9fd" d="M 255.5,342.5 C 256.5,342.5 257.5,342.5 258.5,342.5C 256.68,344.461 254.68,344.794 252.5,343.5C 253.791,343.737 254.791,343.404 255.5,342.5 Z"/></g>
<g><path style="opacity:0.012" fill="#ff9cfe" d="M 156.5,347.5 C 156.842,348.338 157.508,348.672 158.5,348.5C 158.5,348.833 158.5,349.167 158.5,349.5C 156.897,349.688 155.563,349.188 154.5,348C 155.094,347.536 155.761,347.369 156.5,347.5 Z"/></g>
<g><path style="opacity:0.02" fill="#ff84fe" d="M 233.5,350.5 C 233.5,350.167 233.5,349.833 233.5,349.5C 238.833,349.833 238.833,350.167 233.5,350.5 Z"/></g>
<g><path style="opacity:0.016" fill="#ff88fe" d="M 158.5,349.5 C 159.5,349.5 160.5,349.5 161.5,349.5C 161.918,350.222 162.584,350.722 163.5,351C 161.465,351.599 159.799,351.099 158.5,349.5 Z"/></g>
<g><path style="opacity:0.016" fill="#ffb8ff" d="M 229.5,350.5 C 230.833,350.5 232.167,350.5 233.5,350.5C 231.149,352.203 228.482,352.703 225.5,352C 227.058,351.79 228.391,351.29 229.5,350.5 Z"/></g>
<g><path style="opacity:0.02" fill="#ff8f00" d="M 220.5,353.5 C 221.601,352.402 222.934,352.235 224.5,353C 223.207,353.49 221.873,353.657 220.5,353.5 Z"/></g>
<g><path style="opacity:0.012" fill="#ffa1ff" d="M 171.5,352.5 C 172.952,353.302 174.618,353.802 176.5,354C 173.406,354.652 170.406,354.318 167.5,353C 168.793,352.51 170.127,352.343 171.5,352.5 Z"/></g>
<g><path style="opacity:0.016" fill="#ff9900" d="M 213.5,354.5 C 213.5,354.167 213.5,353.833 213.5,353.5C 215.833,353.5 218.167,353.5 220.5,353.5C 218.393,354.468 216.059,354.802 213.5,354.5 Z"/></g>
<g><path style="opacity:0.02" fill="#ff96ff" d="M 213.5,354.5 C 201.677,356.919 189.677,357.086 177.5,355C 189.493,355.76 201.493,355.594 213.5,354.5 Z"/></g>
</svg>
